<?xml version="1.0" encoding="UTF-8"?>
<svg width="1561px" height="800px" viewBox="0 0 1561 800" version="1.1" xmlns="http://www.w3.org/2000/svg" xmlns:xlink="http://www.w3.org/1999/xlink">
    <title>41E16966-2232-45F5-8554-3DF29827CF59@3x</title>
    <defs>
        <path d="M271.598236,19.3994119 L291,19.3994119 L291,0 L271.598236,0 L271.598236,19.3994119 Z M232.801323,19.3994119 L252.203087,19.3994119 L252.203087,0 L232.801323,0 L232.801323,19.3994119 Z M194,19.3994119 L213.399559,19.3994119 L213.399559,0 L194,0 L194,19.3994119 Z M155.196472,19.3994119 L174.598236,19.3994119 L174.598236,0 L155.196472,0 L155.196472,19.3994119 Z M116.399559,19.3994119 L135.801323,19.3994119 L135.801323,0 L116.399559,0 L116.399559,19.3994119 Z M77.5982358,19.3994119 L97,19.3994119 L97,0 L77.5982358,0 L77.5982358,19.3994119 Z M38.7969127,19.3994119 L58.1964716,19.3994119 L58.1964716,0 L38.7969127,0 L38.7969127,19.3994119 Z M0,19.3994119 L19.3973537,19.3994119 L19.3973537,0 L0,0 L0,19.3994119 Z M271.598236,58.1982358 L291,58.1982358 L291,38.7988239 L271.598236,38.7988239 L271.598236,58.1982358 Z M194,58.1982358 L213.399559,58.1982358 L213.399559,38.7988239 L194,38.7988239 L194,58.1982358 Z M116.399559,58.1982358 L135.801323,58.1982358 L135.801323,38.7988239 L116.399559,38.7988239 L116.399559,58.1982358 Z M77.5982358,58.1982358 L97,58.1982358 L97,38.7988239 L77.5982358,38.7988239 L77.5982358,58.1982358 Z M0,58.1982358 L19.3973537,58.1982358 L19.3973537,38.7988239 L0,38.7988239 L0,58.1982358 Z M271.598236,96.9992649 L291,96.9992649 L291,77.599853 L271.598236,77.599853 L271.598236,96.9992649 Z M232.801323,96.9992649 L252.203087,96.9992649 L252.203087,77.599853 L232.801323,77.599853 L232.801323,96.9992649 Z M155.196472,96.9992649 L213.399559,96.9992649 L213.399559,77.599853 L155.196472,77.599853 L155.196472,96.9992649 Z M116.399559,96.9992649 L135.801323,96.9992649 L135.801323,77.599853 L116.399559,77.599853 L116.399559,96.9992649 Z M77.5982358,96.9992649 L97,96.9992649 L97,77.599853 L77.5982358,77.599853 L77.5982358,96.9992649 Z M0,96.9992649 L19.3973537,96.9992649 L19.3973537,77.599853 L0,77.599853 L0,96.9992649 Z M271.598236,135.802499 L291,135.802499 L291,116.400882 L271.598236,116.400882 L271.598236,135.802499 Z M194,135.802499 L213.399559,135.802499 L213.399559,116.400882 L194,116.400882 L194,135.802499 Z M116.399559,135.802499 L135.801323,135.802499 L135.801323,116.400882 L116.399559,116.400882 L116.399559,135.802499 Z M77.5982358,135.802499 L97,135.802499 L97,116.400882 L77.5982358,116.400882 L77.5982358,135.802499 Z M0,135.802499 L19.3973537,135.802499 L19.3973537,116.400882 L0,116.400882 L0,135.802499 Z M232.801323,174.599118 L291,174.599118 L291,155.199706 L232.801323,155.199706 L232.801323,174.599118 Z M194,174.599118 L213.399559,174.599118 L213.399559,155.199706 L194,155.199706 L194,174.599118 Z M155.196472,174.599118 L174.598236,174.599118 L174.598236,155.199706 L155.196472,155.199706 L155.196472,174.599118 Z M116.399559,174.599118 L135.801323,174.599118 L135.801323,155.199706 L116.399559,155.199706 L116.399559,174.599118 Z M77.5982358,174.599118 L97,174.599118 L97,155.199706 L77.5982358,155.199706 L77.5982358,174.599118 Z M38.7969127,174.599118 L58.1964716,174.599118 L58.1964716,155.199706 L38.7969127,155.199706 L38.7969127,174.599118 Z M0,174.599118 L19.3973537,174.599118 L19.3973537,155.199706 L0,155.199706 L0,174.599118 Z M271.598236,213.400147 L291,213.400147 L291,194.000735 L271.598236,194.000735 L271.598236,213.400147 Z M232.801323,213.400147 L252.203087,213.400147 L252.203087,194.000735 L232.801323,194.000735 L232.801323,213.400147 Z M194,213.400147 L213.399559,213.400147 L213.399559,194.000735 L194,194.000735 L194,213.400147 Z M155.196472,213.400147 L174.598236,213.400147 L174.598236,194.000735 L155.196472,194.000735 L155.196472,213.400147 Z M116.399559,213.400147 L135.801323,213.400147 L135.801323,194.000735 L116.399559,194.000735 L116.399559,213.400147 Z M77.5982358,213.400147 L97,213.400147 L97,194.000735 L77.5982358,194.000735 L77.5982358,213.400147 Z M38.7969127,213.400147 L58.1964716,213.400147 L58.1964716,194.000735 L38.7969127,194.000735 L38.7969127,213.400147 Z M0,213.400147 L19.3973537,213.400147 L19.3973537,194.000735 L0,194.000735 L0,213.400147 Z M271.598236,252.201176 L291,252.201176 L291,232.801764 L271.598236,232.801764 L271.598236,252.201176 Z M232.801323,252.201176 L252.203087,252.201176 L252.203087,232.801764 L232.801323,232.801764 L232.801323,252.201176 Z M194,252.201176 L213.399559,252.201176 L213.399559,232.801764 L194,232.801764 L194,252.201176 Z M155.196472,252.201176 L174.598236,252.201176 L174.598236,232.801764 L155.196472,232.801764 L155.196472,252.201176 Z M116.399559,252.201176 L135.801323,252.201176 L135.801323,232.801764 L116.399559,232.801764 L116.399559,252.201176 Z M77.5982358,252.201176 L97,252.201176 L97,232.801764 L77.5982358,232.801764 L77.5982358,252.201176 Z M38.7969127,252.201176 L58.1964716,252.201176 L58.1964716,232.801764 L38.7969127,232.801764 L38.7969127,252.201176 Z M0,252.201176 L19.3973537,252.201176 L19.3973537,232.801764 L0,232.801764 L0,252.201176 Z M271.598236,291 L291,291 L291,271.598383 L271.598236,271.598383 L271.598236,291 Z M194,291 L213.399559,291 L213.399559,271.598383 L194,271.598383 L194,291 Z M155.196472,291 L174.598236,291 L174.598236,271.598383 L155.196472,271.598383 L155.196472,291 Z M116.399559,291 L135.801323,291 L135.801323,271.598383 L116.399559,271.598383 L116.399559,291 Z M77.5982358,291 L97,291 L97,271.598383 L77.5982358,271.598383 L77.5982358,291 Z M38.7969127,291 L58.1964716,291 L58.1964716,271.598383 L38.7969127,271.598383 L38.7969127,291 Z M0,291 L19.3973537,291 L19.3973537,271.598383 L0,271.598383 L0,291 Z" id="path-1"></path>
        <linearGradient x1="49.9996152%" y1="98.8787058%" x2="49.9996152%" y2="-1.12152517%" id="linearGradient-3">
            <stop stop-color="#FEFEFE" offset="0%"></stop>
            <stop stop-color="#FEFEFE" offset="100%"></stop>
        </linearGradient>
        <path d="M271.598236,19.3994119 L291,19.3994119 L291,0 L271.598236,0 L271.598236,19.3994119 Z M232.801323,19.3994119 L252.203087,19.3994119 L252.203087,0 L232.801323,0 L232.801323,19.3994119 Z M194,19.3994119 L213.399559,19.3994119 L213.399559,0 L194,0 L194,19.3994119 Z M155.196472,19.3994119 L174.598236,19.3994119 L174.598236,0 L155.196472,0 L155.196472,19.3994119 Z M116.399559,19.3994119 L135.801323,19.3994119 L135.801323,0 L116.399559,0 L116.399559,19.3994119 Z M77.5982358,19.3994119 L97,19.3994119 L97,0 L77.5982358,0 L77.5982358,19.3994119 Z M38.7969127,19.3994119 L58.1964716,19.3994119 L58.1964716,0 L38.7969127,0 L38.7969127,19.3994119 Z M0,19.3994119 L19.3973537,19.3994119 L19.3973537,0 L0,0 L0,19.3994119 Z M271.598236,58.1982358 L291,58.1982358 L291,38.7988239 L271.598236,38.7988239 L271.598236,58.1982358 Z M194,58.1982358 L213.399559,58.1982358 L213.399559,38.7988239 L194,38.7988239 L194,58.1982358 Z M116.399559,58.1982358 L135.801323,58.1982358 L135.801323,38.7988239 L116.399559,38.7988239 L116.399559,58.1982358 Z M77.5982358,58.1982358 L97,58.1982358 L97,38.7988239 L77.5982358,38.7988239 L77.5982358,58.1982358 Z M0,58.1982358 L19.3973537,58.1982358 L19.3973537,38.7988239 L0,38.7988239 L0,58.1982358 Z M271.598236,96.9992649 L291,96.9992649 L291,77.599853 L271.598236,77.599853 L271.598236,96.9992649 Z M232.801323,96.9992649 L252.203087,96.9992649 L252.203087,77.599853 L232.801323,77.599853 L232.801323,96.9992649 Z M155.196472,96.9992649 L213.399559,96.9992649 L213.399559,77.599853 L155.196472,77.599853 L155.196472,96.9992649 Z M116.399559,96.9992649 L135.801323,96.9992649 L135.801323,77.599853 L116.399559,77.599853 L116.399559,96.9992649 Z M77.5982358,96.9992649 L97,96.9992649 L97,77.599853 L77.5982358,77.599853 L77.5982358,96.9992649 Z M0,96.9992649 L19.3973537,96.9992649 L19.3973537,77.599853 L0,77.599853 L0,96.9992649 Z M271.598236,135.802499 L291,135.802499 L291,116.400882 L271.598236,116.400882 L271.598236,135.802499 Z M194,135.802499 L213.399559,135.802499 L213.399559,116.400882 L194,116.400882 L194,135.802499 Z M116.399559,135.802499 L135.801323,135.802499 L135.801323,116.400882 L116.399559,116.400882 L116.399559,135.802499 Z M77.5982358,135.802499 L97,135.802499 L97,116.400882 L77.5982358,116.400882 L77.5982358,135.802499 Z M0,135.802499 L19.3973537,135.802499 L19.3973537,116.400882 L0,116.400882 L0,135.802499 Z M232.801323,174.599118 L291,174.599118 L291,155.199706 L232.801323,155.199706 L232.801323,174.599118 Z M194,174.599118 L213.399559,174.599118 L213.399559,155.199706 L194,155.199706 L194,174.599118 Z M155.196472,174.599118 L174.598236,174.599118 L174.598236,155.199706 L155.196472,155.199706 L155.196472,174.599118 Z M116.399559,174.599118 L135.801323,174.599118 L135.801323,155.199706 L116.399559,155.199706 L116.399559,174.599118 Z M77.5982358,174.599118 L97,174.599118 L97,155.199706 L77.5982358,155.199706 L77.5982358,174.599118 Z M38.7969127,174.599118 L58.1964716,174.599118 L58.1964716,155.199706 L38.7969127,155.199706 L38.7969127,174.599118 Z M0,174.599118 L19.3973537,174.599118 L19.3973537,155.199706 L0,155.199706 L0,174.599118 Z M271.598236,213.400147 L291,213.400147 L291,194.000735 L271.598236,194.000735 L271.598236,213.400147 Z M232.801323,213.400147 L252.203087,213.400147 L252.203087,194.000735 L232.801323,194.000735 L232.801323,213.400147 Z M194,213.400147 L213.399559,213.400147 L213.399559,194.000735 L194,194.000735 L194,213.400147 Z M155.196472,213.400147 L174.598236,213.400147 L174.598236,194.000735 L155.196472,194.000735 L155.196472,213.400147 Z M116.399559,213.400147 L135.801323,213.400147 L135.801323,194.000735 L116.399559,194.000735 L116.399559,213.400147 Z M77.5982358,213.400147 L97,213.400147 L97,194.000735 L77.5982358,194.000735 L77.5982358,213.400147 Z M38.7969127,213.400147 L58.1964716,213.400147 L58.1964716,194.000735 L38.7969127,194.000735 L38.7969127,213.400147 Z M0,213.400147 L19.3973537,213.400147 L19.3973537,194.000735 L0,194.000735 L0,213.400147 Z M271.598236,252.201176 L291,252.201176 L291,232.801764 L271.598236,232.801764 L271.598236,252.201176 Z M232.801323,252.201176 L252.203087,252.201176 L252.203087,232.801764 L232.801323,232.801764 L232.801323,252.201176 Z M194,252.201176 L213.399559,252.201176 L213.399559,232.801764 L194,232.801764 L194,252.201176 Z M155.196472,252.201176 L174.598236,252.201176 L174.598236,232.801764 L155.196472,232.801764 L155.196472,252.201176 Z M116.399559,252.201176 L135.801323,252.201176 L135.801323,232.801764 L116.399559,232.801764 L116.399559,252.201176 Z M77.5982358,252.201176 L97,252.201176 L97,232.801764 L77.5982358,232.801764 L77.5982358,252.201176 Z M38.7969127,252.201176 L58.1964716,252.201176 L58.1964716,232.801764 L38.7969127,232.801764 L38.7969127,252.201176 Z M0,252.201176 L19.3973537,252.201176 L19.3973537,232.801764 L0,232.801764 L0,252.201176 Z M271.598236,291 L291,291 L291,271.598383 L271.598236,271.598383 L271.598236,291 Z M194,291 L213.399559,291 L213.399559,271.598383 L194,271.598383 L194,291 Z M155.196472,291 L174.598236,291 L174.598236,271.598383 L155.196472,271.598383 L155.196472,291 Z M116.399559,291 L135.801323,291 L135.801323,271.598383 L116.399559,271.598383 L116.399559,291 Z M77.5982358,291 L97,291 L97,271.598383 L77.5982358,271.598383 L77.5982358,291 Z M38.7969127,291 L58.1964716,291 L58.1964716,271.598383 L38.7969127,271.598383 L38.7969127,291 Z M0,291 L19.3973537,291 L19.3973537,271.598383 L0,271.598383 L0,291 Z" id="path-4"></path>
        <path d="M271.598236,19.3994119 L291,19.3994119 L291,0 L271.598236,0 L271.598236,19.3994119 Z M232.801323,19.3994119 L252.203087,19.3994119 L252.203087,0 L232.801323,0 L232.801323,19.3994119 Z M194,19.3994119 L213.399559,19.3994119 L213.399559,0 L194,0 L194,19.3994119 Z M155.196472,19.3994119 L174.598236,19.3994119 L174.598236,0 L155.196472,0 L155.196472,19.3994119 Z M116.399559,19.3994119 L135.801323,19.3994119 L135.801323,0 L116.399559,0 L116.399559,19.3994119 Z M77.5982358,19.3994119 L97,19.3994119 L97,0 L77.5982358,0 L77.5982358,19.3994119 Z M38.7969127,19.3994119 L58.1964716,19.3994119 L58.1964716,0 L38.7969127,0 L38.7969127,19.3994119 Z M0,19.3994119 L19.3973537,19.3994119 L19.3973537,0 L0,0 L0,19.3994119 Z M271.598236,58.1982358 L291,58.1982358 L291,38.7988239 L271.598236,38.7988239 L271.598236,58.1982358 Z M194,58.1982358 L213.399559,58.1982358 L213.399559,38.7988239 L194,38.7988239 L194,58.1982358 Z M116.399559,58.1982358 L135.801323,58.1982358 L135.801323,38.7988239 L116.399559,38.7988239 L116.399559,58.1982358 Z M77.5982358,58.1982358 L97,58.1982358 L97,38.7988239 L77.5982358,38.7988239 L77.5982358,58.1982358 Z M0,58.1982358 L19.3973537,58.1982358 L19.3973537,38.7988239 L0,38.7988239 L0,58.1982358 Z M271.598236,96.9992649 L291,96.9992649 L291,77.599853 L271.598236,77.599853 L271.598236,96.9992649 Z M232.801323,96.9992649 L252.203087,96.9992649 L252.203087,77.599853 L232.801323,77.599853 L232.801323,96.9992649 Z M155.196472,96.9992649 L213.399559,96.9992649 L213.399559,77.599853 L155.196472,77.599853 L155.196472,96.9992649 Z M116.399559,96.9992649 L135.801323,96.9992649 L135.801323,77.599853 L116.399559,77.599853 L116.399559,96.9992649 Z M77.5982358,96.9992649 L97,96.9992649 L97,77.599853 L77.5982358,77.599853 L77.5982358,96.9992649 Z M0,96.9992649 L19.3973537,96.9992649 L19.3973537,77.599853 L0,77.599853 L0,96.9992649 Z M271.598236,135.802499 L291,135.802499 L291,116.400882 L271.598236,116.400882 L271.598236,135.802499 Z M194,135.802499 L213.399559,135.802499 L213.399559,116.400882 L194,116.400882 L194,135.802499 Z M116.399559,135.802499 L135.801323,135.802499 L135.801323,116.400882 L116.399559,116.400882 L116.399559,135.802499 Z M77.5982358,135.802499 L97,135.802499 L97,116.400882 L77.5982358,116.400882 L77.5982358,135.802499 Z M0,135.802499 L19.3973537,135.802499 L19.3973537,116.400882 L0,116.400882 L0,135.802499 Z M232.801323,174.599118 L291,174.599118 L291,155.199706 L232.801323,155.199706 L232.801323,174.599118 Z M194,174.599118 L213.399559,174.599118 L213.399559,155.199706 L194,155.199706 L194,174.599118 Z M155.196472,174.599118 L174.598236,174.599118 L174.598236,155.199706 L155.196472,155.199706 L155.196472,174.599118 Z M116.399559,174.599118 L135.801323,174.599118 L135.801323,155.199706 L116.399559,155.199706 L116.399559,174.599118 Z M77.5982358,174.599118 L97,174.599118 L97,155.199706 L77.5982358,155.199706 L77.5982358,174.599118 Z M38.7969127,174.599118 L58.1964716,174.599118 L58.1964716,155.199706 L38.7969127,155.199706 L38.7969127,174.599118 Z M0,174.599118 L19.3973537,174.599118 L19.3973537,155.199706 L0,155.199706 L0,174.599118 Z M271.598236,213.400147 L291,213.400147 L291,194.000735 L271.598236,194.000735 L271.598236,213.400147 Z M232.801323,213.400147 L252.203087,213.400147 L252.203087,194.000735 L232.801323,194.000735 L232.801323,213.400147 Z M194,213.400147 L213.399559,213.400147 L213.399559,194.000735 L194,194.000735 L194,213.400147 Z M155.196472,213.400147 L174.598236,213.400147 L174.598236,194.000735 L155.196472,194.000735 L155.196472,213.400147 Z M116.399559,213.400147 L135.801323,213.400147 L135.801323,194.000735 L116.399559,194.000735 L116.399559,213.400147 Z M77.5982358,213.400147 L97,213.400147 L97,194.000735 L77.5982358,194.000735 L77.5982358,213.400147 Z M38.7969127,213.400147 L58.1964716,213.400147 L58.1964716,194.000735 L38.7969127,194.000735 L38.7969127,213.400147 Z M0,213.400147 L19.3973537,213.400147 L19.3973537,194.000735 L0,194.000735 L0,213.400147 Z M271.598236,252.201176 L291,252.201176 L291,232.801764 L271.598236,232.801764 L271.598236,252.201176 Z M232.801323,252.201176 L252.203087,252.201176 L252.203087,232.801764 L232.801323,232.801764 L232.801323,252.201176 Z M194,252.201176 L213.399559,252.201176 L213.399559,232.801764 L194,232.801764 L194,252.201176 Z M155.196472,252.201176 L174.598236,252.201176 L174.598236,232.801764 L155.196472,232.801764 L155.196472,252.201176 Z M116.399559,252.201176 L135.801323,252.201176 L135.801323,232.801764 L116.399559,232.801764 L116.399559,252.201176 Z M77.5982358,252.201176 L97,252.201176 L97,232.801764 L77.5982358,232.801764 L77.5982358,252.201176 Z M38.7969127,252.201176 L58.1964716,252.201176 L58.1964716,232.801764 L38.7969127,232.801764 L38.7969127,252.201176 Z M0,252.201176 L19.3973537,252.201176 L19.3973537,232.801764 L0,232.801764 L0,252.201176 Z M271.598236,291 L291,291 L291,271.598383 L271.598236,271.598383 L271.598236,291 Z M194,291 L213.399559,291 L213.399559,271.598383 L194,271.598383 L194,291 Z M155.196472,291 L174.598236,291 L174.598236,271.598383 L155.196472,271.598383 L155.196472,291 Z M116.399559,291 L135.801323,291 L135.801323,271.598383 L116.399559,271.598383 L116.399559,291 Z M77.5982358,291 L97,291 L97,271.598383 L77.5982358,271.598383 L77.5982358,291 Z M38.7969127,291 L58.1964716,291 L58.1964716,271.598383 L38.7969127,271.598383 L38.7969127,291 Z M0,291 L19.3973537,291 L19.3973537,271.598383 L0,271.598383 L0,291 Z" id="path-6"></path>
        <path d="M271.598236,19.3994119 L291,19.3994119 L291,0 L271.598236,0 L271.598236,19.3994119 Z M232.801323,19.3994119 L252.203087,19.3994119 L252.203087,0 L232.801323,0 L232.801323,19.3994119 Z M194,19.3994119 L213.399559,19.3994119 L213.399559,0 L194,0 L194,19.3994119 Z M155.196472,19.3994119 L174.598236,19.3994119 L174.598236,0 L155.196472,0 L155.196472,19.3994119 Z M116.399559,19.3994119 L135.801323,19.3994119 L135.801323,0 L116.399559,0 L116.399559,19.3994119 Z M77.5982358,19.3994119 L97,19.3994119 L97,0 L77.5982358,0 L77.5982358,19.3994119 Z M38.7969127,19.3994119 L58.1964716,19.3994119 L58.1964716,0 L38.7969127,0 L38.7969127,19.3994119 Z M0,19.3994119 L19.3973537,19.3994119 L19.3973537,0 L0,0 L0,19.3994119 Z M271.598236,58.1982358 L291,58.1982358 L291,38.7988239 L271.598236,38.7988239 L271.598236,58.1982358 Z M194,58.1982358 L213.399559,58.1982358 L213.399559,38.7988239 L194,38.7988239 L194,58.1982358 Z M116.399559,58.1982358 L135.801323,58.1982358 L135.801323,38.7988239 L116.399559,38.7988239 L116.399559,58.1982358 Z M77.5982358,58.1982358 L97,58.1982358 L97,38.7988239 L77.5982358,38.7988239 L77.5982358,58.1982358 Z M0,58.1982358 L19.3973537,58.1982358 L19.3973537,38.7988239 L0,38.7988239 L0,58.1982358 Z M271.598236,96.9992649 L291,96.9992649 L291,77.599853 L271.598236,77.599853 L271.598236,96.9992649 Z M232.801323,96.9992649 L252.203087,96.9992649 L252.203087,77.599853 L232.801323,77.599853 L232.801323,96.9992649 Z M155.196472,96.9992649 L213.399559,96.9992649 L213.399559,77.599853 L155.196472,77.599853 L155.196472,96.9992649 Z M116.399559,96.9992649 L135.801323,96.9992649 L135.801323,77.599853 L116.399559,77.599853 L116.399559,96.9992649 Z M77.5982358,96.9992649 L97,96.9992649 L97,77.599853 L77.5982358,77.599853 L77.5982358,96.9992649 Z M0,96.9992649 L19.3973537,96.9992649 L19.3973537,77.599853 L0,77.599853 L0,96.9992649 Z M271.598236,135.802499 L291,135.802499 L291,116.400882 L271.598236,116.400882 L271.598236,135.802499 Z M194,135.802499 L213.399559,135.802499 L213.399559,116.400882 L194,116.400882 L194,135.802499 Z M116.399559,135.802499 L135.801323,135.802499 L135.801323,116.400882 L116.399559,116.400882 L116.399559,135.802499 Z M77.5982358,135.802499 L97,135.802499 L97,116.400882 L77.5982358,116.400882 L77.5982358,135.802499 Z M0,135.802499 L19.3973537,135.802499 L19.3973537,116.400882 L0,116.400882 L0,135.802499 Z M232.801323,174.599118 L291,174.599118 L291,155.199706 L232.801323,155.199706 L232.801323,174.599118 Z M194,174.599118 L213.399559,174.599118 L213.399559,155.199706 L194,155.199706 L194,174.599118 Z M155.196472,174.599118 L174.598236,174.599118 L174.598236,155.199706 L155.196472,155.199706 L155.196472,174.599118 Z M116.399559,174.599118 L135.801323,174.599118 L135.801323,155.199706 L116.399559,155.199706 L116.399559,174.599118 Z M77.5982358,174.599118 L97,174.599118 L97,155.199706 L77.5982358,155.199706 L77.5982358,174.599118 Z M38.7969127,174.599118 L58.1964716,174.599118 L58.1964716,155.199706 L38.7969127,155.199706 L38.7969127,174.599118 Z M0,174.599118 L19.3973537,174.599118 L19.3973537,155.199706 L0,155.199706 L0,174.599118 Z M271.598236,213.400147 L291,213.400147 L291,194.000735 L271.598236,194.000735 L271.598236,213.400147 Z M232.801323,213.400147 L252.203087,213.400147 L252.203087,194.000735 L232.801323,194.000735 L232.801323,213.400147 Z M194,213.400147 L213.399559,213.400147 L213.399559,194.000735 L194,194.000735 L194,213.400147 Z M155.196472,213.400147 L174.598236,213.400147 L174.598236,194.000735 L155.196472,194.000735 L155.196472,213.400147 Z M116.399559,213.400147 L135.801323,213.400147 L135.801323,194.000735 L116.399559,194.000735 L116.399559,213.400147 Z M77.5982358,213.400147 L97,213.400147 L97,194.000735 L77.5982358,194.000735 L77.5982358,213.400147 Z M38.7969127,213.400147 L58.1964716,213.400147 L58.1964716,194.000735 L38.7969127,194.000735 L38.7969127,213.400147 Z M0,213.400147 L19.3973537,213.400147 L19.3973537,194.000735 L0,194.000735 L0,213.400147 Z M271.598236,252.201176 L291,252.201176 L291,232.801764 L271.598236,232.801764 L271.598236,252.201176 Z M232.801323,252.201176 L252.203087,252.201176 L252.203087,232.801764 L232.801323,232.801764 L232.801323,252.201176 Z M194,252.201176 L213.399559,252.201176 L213.399559,232.801764 L194,232.801764 L194,252.201176 Z M155.196472,252.201176 L174.598236,252.201176 L174.598236,232.801764 L155.196472,232.801764 L155.196472,252.201176 Z M116.399559,252.201176 L135.801323,252.201176 L135.801323,232.801764 L116.399559,232.801764 L116.399559,252.201176 Z M77.5982358,252.201176 L97,252.201176 L97,232.801764 L77.5982358,232.801764 L77.5982358,252.201176 Z M38.7969127,252.201176 L58.1964716,252.201176 L58.1964716,232.801764 L38.7969127,232.801764 L38.7969127,252.201176 Z M0,252.201176 L19.3973537,252.201176 L19.3973537,232.801764 L0,232.801764 L0,252.201176 Z M271.598236,291 L291,291 L291,271.598383 L271.598236,271.598383 L271.598236,291 Z M194,291 L213.399559,291 L213.399559,271.598383 L194,271.598383 L194,291 Z M155.196472,291 L174.598236,291 L174.598236,271.598383 L155.196472,271.598383 L155.196472,291 Z M116.399559,291 L135.801323,291 L135.801323,271.598383 L116.399559,271.598383 L116.399559,291 Z M77.5982358,291 L97,291 L97,271.598383 L77.5982358,271.598383 L77.5982358,291 Z M38.7969127,291 L58.1964716,291 L58.1964716,271.598383 L38.7969127,271.598383 L38.7969127,291 Z M0,291 L19.3973537,291 L19.3973537,271.598383 L0,271.598383 L0,291 Z" id="path-8"></path>
    </defs>
    <g id="Web" stroke="none" stroke-width="1" fill="none" fill-rule="evenodd">
        <g id="01-03-Careers" transform="translate(121.000000, 0.000000)">
            <g id="des-banner" transform="translate(-121.000000, 0.000000)">
                <g id="1" opacity="0.05" transform="translate(464.000000, 0.000000)">
                    <mask id="mask-2" fill="white">
                        <use xlink:href="#path-1"></use>
                    </mask>
                    <g id="Clip-2"></g>
                    <path d="M271.598236,19.3994119 L291,19.3994119 L291,0 L271.598236,0 L271.598236,19.3994119 Z M232.801323,19.3994119 L252.203087,19.3994119 L252.203087,0 L232.801323,0 L232.801323,19.3994119 Z M194,19.3994119 L213.399559,19.3994119 L213.399559,0 L194,0 L194,19.3994119 Z M155.196472,19.3994119 L174.598236,19.3994119 L174.598236,0 L155.196472,0 L155.196472,19.3994119 Z M116.399559,19.3994119 L135.801323,19.3994119 L135.801323,0 L116.399559,0 L116.399559,19.3994119 Z M77.5982358,19.3994119 L97,19.3994119 L97,0 L77.5982358,0 L77.5982358,19.3994119 Z M38.7969127,19.3994119 L58.1964716,19.3994119 L58.1964716,0 L38.7969127,0 L38.7969127,19.3994119 Z M0,19.3994119 L19.3973537,19.3994119 L19.3973537,0 L0,0 L0,19.3994119 Z M271.598236,58.1982358 L291,58.1982358 L291,38.7988239 L271.598236,38.7988239 L271.598236,58.1982358 Z M194,58.1982358 L213.399559,58.1982358 L213.399559,38.7988239 L194,38.7988239 L194,58.1982358 Z M116.399559,58.1982358 L135.801323,58.1982358 L135.801323,38.7988239 L116.399559,38.7988239 L116.399559,58.1982358 Z M77.5982358,58.1982358 L97,58.1982358 L97,38.7988239 L77.5982358,38.7988239 L77.5982358,58.1982358 Z M0,58.1982358 L19.3973537,58.1982358 L19.3973537,38.7988239 L0,38.7988239 L0,58.1982358 Z M271.598236,96.9992649 L291,96.9992649 L291,77.599853 L271.598236,77.599853 L271.598236,96.9992649 Z M232.801323,96.9992649 L252.203087,96.9992649 L252.203087,77.599853 L232.801323,77.599853 L232.801323,96.9992649 Z M155.196472,96.9992649 L213.399559,96.9992649 L213.399559,77.599853 L155.196472,77.599853 L155.196472,96.9992649 Z M116.399559,96.9992649 L135.801323,96.9992649 L135.801323,77.599853 L116.399559,77.599853 L116.399559,96.9992649 Z M77.5982358,96.9992649 L97,96.9992649 L97,77.599853 L77.5982358,77.599853 L77.5982358,96.9992649 Z M0,96.9992649 L19.3973537,96.9992649 L19.3973537,77.599853 L0,77.599853 L0,96.9992649 Z M271.598236,135.802499 L291,135.802499 L291,116.400882 L271.598236,116.400882 L271.598236,135.802499 Z M194,135.802499 L213.399559,135.802499 L213.399559,116.400882 L194,116.400882 L194,135.802499 Z M116.399559,135.802499 L135.801323,135.802499 L135.801323,116.400882 L116.399559,116.400882 L116.399559,135.802499 Z M77.5982358,135.802499 L97,135.802499 L97,116.400882 L77.5982358,116.400882 L77.5982358,135.802499 Z M0,135.802499 L19.3973537,135.802499 L19.3973537,116.400882 L0,116.400882 L0,135.802499 Z M232.801323,174.599118 L291,174.599118 L291,155.199706 L232.801323,155.199706 L232.801323,174.599118 Z M194,174.599118 L213.399559,174.599118 L213.399559,155.199706 L194,155.199706 L194,174.599118 Z M155.196472,174.599118 L174.598236,174.599118 L174.598236,155.199706 L155.196472,155.199706 L155.196472,174.599118 Z M116.399559,174.599118 L135.801323,174.599118 L135.801323,155.199706 L116.399559,155.199706 L116.399559,174.599118 Z M77.5982358,174.599118 L97,174.599118 L97,155.199706 L77.5982358,155.199706 L77.5982358,174.599118 Z M38.7969127,174.599118 L58.1964716,174.599118 L58.1964716,155.199706 L38.7969127,155.199706 L38.7969127,174.599118 Z M0,174.599118 L19.3973537,174.599118 L19.3973537,155.199706 L0,155.199706 L0,174.599118 Z M271.598236,213.400147 L291,213.400147 L291,194.000735 L271.598236,194.000735 L271.598236,213.400147 Z M232.801323,213.400147 L252.203087,213.400147 L252.203087,194.000735 L232.801323,194.000735 L232.801323,213.400147 Z M194,213.400147 L213.399559,213.400147 L213.399559,194.000735 L194,194.000735 L194,213.400147 Z M155.196472,213.400147 L174.598236,213.400147 L174.598236,194.000735 L155.196472,194.000735 L155.196472,213.400147 Z M116.399559,213.400147 L135.801323,213.400147 L135.801323,194.000735 L116.399559,194.000735 L116.399559,213.400147 Z M77.5982358,213.400147 L97,213.400147 L97,194.000735 L77.5982358,194.000735 L77.5982358,213.400147 Z M38.7969127,213.400147 L58.1964716,213.400147 L58.1964716,194.000735 L38.7969127,194.000735 L38.7969127,213.400147 Z M0,213.400147 L19.3973537,213.400147 L19.3973537,194.000735 L0,194.000735 L0,213.400147 Z M271.598236,252.201176 L291,252.201176 L291,232.801764 L271.598236,232.801764 L271.598236,252.201176 Z M232.801323,252.201176 L252.203087,252.201176 L252.203087,232.801764 L232.801323,232.801764 L232.801323,252.201176 Z M194,252.201176 L213.399559,252.201176 L213.399559,232.801764 L194,232.801764 L194,252.201176 Z M155.196472,252.201176 L174.598236,252.201176 L174.598236,232.801764 L155.196472,232.801764 L155.196472,252.201176 Z M116.399559,252.201176 L135.801323,252.201176 L135.801323,232.801764 L116.399559,232.801764 L116.399559,252.201176 Z M77.5982358,252.201176 L97,252.201176 L97,232.801764 L77.5982358,232.801764 L77.5982358,252.201176 Z M38.7969127,252.201176 L58.1964716,252.201176 L58.1964716,232.801764 L38.7969127,232.801764 L38.7969127,252.201176 Z M0,252.201176 L19.3973537,252.201176 L19.3973537,232.801764 L0,232.801764 L0,252.201176 Z M271.598236,291 L291,291 L291,271.598383 L271.598236,271.598383 L271.598236,291 Z M194,291 L213.399559,291 L213.399559,271.598383 L194,271.598383 L194,291 Z M155.196472,291 L174.598236,291 L174.598236,271.598383 L155.196472,271.598383 L155.196472,291 Z M116.399559,291 L135.801323,291 L135.801323,271.598383 L116.399559,271.598383 L116.399559,291 Z M77.5982358,291 L97,291 L97,271.598383 L77.5982358,271.598383 L77.5982358,291 Z M38.7969127,291 L58.1964716,291 L58.1964716,271.598383 L38.7969127,271.598383 L38.7969127,291 Z M0,291 L19.3973537,291 L19.3973537,271.598383 L0,271.598383 L0,291 Z" id="Fill-1" fill="url(#linearGradient-3)" mask="url(#mask-2)"></path>
                </g>
                <g id="2" opacity="0.05" transform="translate(0.000000, 509.000000)">
                    <mask id="mask-5" fill="white">
                        <use xlink:href="#path-4"></use>
                    </mask>
                    <g id="Clip-2"></g>
                </g>
                <g id="5" opacity="0.05" transform="translate(1270.000000, 509.000000)">
                    <mask id="mask-7" fill="white">
                        <use xlink:href="#path-6"></use>
                    </mask>
                    <g id="Clip-2"></g>
                </g>
                <g id="6" opacity="0.05" transform="translate(1415.500000, 347.500000) rotate(-90.000000) translate(-1415.500000, -347.500000) translate(1270.000000, 202.000000)">
                    <mask id="mask-9" fill="white">
                        <use xlink:href="#path-8"></use>
                    </mask>
                    <g id="Clip-2"></g>
                    <path d="M271.598236,19.3994119 L291,19.3994119 L291,0 L271.598236,0 L271.598236,19.3994119 Z M232.801323,19.3994119 L252.203087,19.3994119 L252.203087,0 L232.801323,0 L232.801323,19.3994119 Z M194,19.3994119 L213.399559,19.3994119 L213.399559,0 L194,0 L194,19.3994119 Z M155.196472,19.3994119 L174.598236,19.3994119 L174.598236,0 L155.196472,0 L155.196472,19.3994119 Z M116.399559,19.3994119 L135.801323,19.3994119 L135.801323,0 L116.399559,0 L116.399559,19.3994119 Z M77.5982358,19.3994119 L97,19.3994119 L97,0 L77.5982358,0 L77.5982358,19.3994119 Z M38.7969127,19.3994119 L58.1964716,19.3994119 L58.1964716,0 L38.7969127,0 L38.7969127,19.3994119 Z M0,19.3994119 L19.3973537,19.3994119 L19.3973537,0 L0,0 L0,19.3994119 Z M271.598236,58.1982358 L291,58.1982358 L291,38.7988239 L271.598236,38.7988239 L271.598236,58.1982358 Z M194,58.1982358 L213.399559,58.1982358 L213.399559,38.7988239 L194,38.7988239 L194,58.1982358 Z M116.399559,58.1982358 L135.801323,58.1982358 L135.801323,38.7988239 L116.399559,38.7988239 L116.399559,58.1982358 Z M77.5982358,58.1982358 L97,58.1982358 L97,38.7988239 L77.5982358,38.7988239 L77.5982358,58.1982358 Z M0,58.1982358 L19.3973537,58.1982358 L19.3973537,38.7988239 L0,38.7988239 L0,58.1982358 Z M271.598236,96.9992649 L291,96.9992649 L291,77.599853 L271.598236,77.599853 L271.598236,96.9992649 Z M232.801323,96.9992649 L252.203087,96.9992649 L252.203087,77.599853 L232.801323,77.599853 L232.801323,96.9992649 Z M155.196472,96.9992649 L213.399559,96.9992649 L213.399559,77.599853 L155.196472,77.599853 L155.196472,96.9992649 Z M116.399559,96.9992649 L135.801323,96.9992649 L135.801323,77.599853 L116.399559,77.599853 L116.399559,96.9992649 Z M77.5982358,96.9992649 L97,96.9992649 L97,77.599853 L77.5982358,77.599853 L77.5982358,96.9992649 Z M271.598236,135.802499 L291,135.802499 L291,116.400882 L271.598236,116.400882 L271.598236,135.802499 Z M194,135.802499 L213.399559,135.802499 L213.399559,116.400882 L194,116.400882 L194,135.802499 Z M116.399559,135.802499 L135.801323,135.802499 L135.801323,116.400882 L116.399559,116.400882 L116.399559,135.802499 Z M77.5982358,135.802499 L97,135.802499 L97,116.400882 L77.5982358,116.400882 L77.5982358,135.802499 Z M232.801323,174.599118 L291,174.599118 L291,155.199706 L232.801323,155.199706 L232.801323,174.599118 Z M194,174.599118 L213.399559,174.599118 L213.399559,155.199706 L194,155.199706 L194,174.599118 Z M155.196472,174.599118 L174.598236,174.599118 L174.598236,155.199706 L155.196472,155.199706 L155.196472,174.599118 Z M116.399559,174.599118 L135.801323,174.599118 L135.801323,155.199706 L116.399559,155.199706 L116.399559,174.599118 Z M77.5982358,174.599118 L97,174.599118 L97,155.199706 L77.5982358,155.199706 L77.5982358,174.599118 Z M38.7969127,174.599118 L58.1964716,174.599118 L58.1964716,155.199706 L38.7969127,155.199706 L38.7969127,174.599118 Z M0,174.599118 L19.3973537,174.599118 L19.3973537,155.199706 L0,155.199706 L0,174.599118 Z M271.598236,213.400147 L291,213.400147 L291,194.000735 L271.598236,194.000735 L271.598236,213.400147 Z M232.801323,213.400147 L252.203087,213.400147 L252.203087,194.000735 L232.801323,194.000735 L232.801323,213.400147 Z M194,213.400147 L213.399559,213.400147 L213.399559,194.000735 L194,194.000735 L194,213.400147 Z M155.196472,213.400147 L174.598236,213.400147 L174.598236,194.000735 L155.196472,194.000735 L155.196472,213.400147 Z M116.399559,213.400147 L135.801323,213.400147 L135.801323,194.000735 L116.399559,194.000735 L116.399559,213.400147 Z M77.5982358,213.400147 L97,213.400147 L97,194.000735 L77.5982358,194.000735 L77.5982358,213.400147 Z M38.7969127,213.400147 L58.1964716,213.400147 L58.1964716,194.000735 L38.7969127,194.000735 L38.7969127,213.400147 Z M0,213.400147 L19.3973537,213.400147 L19.3973537,194.000735 L0,194.000735 L0,213.400147 Z M271.598236,252.201176 L291,252.201176 L291,232.801764 L271.598236,232.801764 L271.598236,252.201176 Z M232.801323,252.201176 L252.203087,252.201176 L252.203087,232.801764 L232.801323,232.801764 L232.801323,252.201176 Z M194,252.201176 L213.399559,252.201176 L213.399559,232.801764 L194,232.801764 L194,252.201176 Z M155.196472,252.201176 L174.598236,252.201176 L174.598236,232.801764 L155.196472,232.801764 L155.196472,252.201176 Z M116.399559,252.201176 L135.801323,252.201176 L135.801323,232.801764 L116.399559,232.801764 L116.399559,252.201176 Z M77.5982358,252.201176 L97,252.201176 L97,232.801764 L77.5982358,232.801764 L77.5982358,252.201176 Z M38.7969127,252.201176 L58.1964716,252.201176 L58.1964716,232.801764 L38.7969127,232.801764 L38.7969127,252.201176 Z M271.598236,291 L291,291 L291,271.598383 L271.598236,271.598383 L271.598236,291 Z M194,291 L213.399559,291 L213.399559,271.598383 L194,271.598383 L194,291 Z M155.196472,291 L174.598236,291 L174.598236,271.598383 L155.196472,271.598383 L155.196472,291 Z M116.399559,291 L135.801323,291 L135.801323,271.598383 L116.399559,271.598383 L116.399559,291 Z M77.5982358,291 L97,291 L97,271.598383 L77.5982358,271.598383 L77.5982358,291 Z M38.7969127,291 L58.1964716,291 L58.1964716,271.598383 L38.7969127,271.598383 L38.7969127,291 Z M0,291 L19.3973537,291 L19.3973537,271.598383 L0,271.598383 L0,291 Z" id="Fill-1" fill="url(#linearGradient-3)" mask="url(#mask-9)"></path>
                </g>
                <path d="M964.779,155 L964.779,178.26 L988.039,178.26 L988.039,201.518 L1011.297,201.518 L1011.297,155 L964.779,155 Z M895,155 L895,178.26 L895,201.518 L918.259,201.518 L918.259,178.26 L941.519,178.26 L941.519,155 L895,155 Z M988.039,224.778 L988.039,248.038 L964.779,248.038 L964.779,271.297 L988.039,271.297 L1011.297,271.297 L1011.297,224.778 L988.039,224.778 Z M895,224.778 L895,248.038 L895,271.297 L918.259,271.297 L941.519,271.297 L941.519,248.038 L918.259,248.038 L918.259,224.778 L895,224.778 Z" id="Fill-1-Copy" fill-opacity="0.03" fill="#FEFEFE"></path>
            </g>
        </g>
    </g>
</svg>