<?xml version="1.0" encoding="UTF-8"?>
<svg width="54px" height="55px" viewBox="0 0 54 55" version="1.1" xmlns="http://www.w3.org/2000/svg" xmlns:xlink="http://www.w3.org/1999/xlink">
    <title>3</title>
    <g id="Web" stroke="none" stroke-width="1" fill="none" fill-rule="evenodd" fill-opacity="0.03">
        <g id="m01-01-Landing-|-Vertical-" transform="translate(0.000000, -144.000000)" fill="#FEFEFE">
            <g id="design-element" transform="translate(187.500000, 337.500000) rotate(-270.000000) translate(-187.500000, -337.500000) translate(-150.000000, 150.000000)">
                <g transform="translate(-56.500000, 0.500000)" id="3">
                    <path d="M233.423593,320.506012 L233.423593,331.405091 L244.330908,331.405091 L244.330908,342.303232 L255.237286,342.303232 L255.237286,320.506012 L233.423593,320.506012 Z M200.702114,320.506012 L200.702114,331.405091 L200.702114,342.303232 L211.608961,342.303232 L211.608961,331.405091 L222.516277,331.405091 L222.516277,320.506012 L200.702114,320.506012 Z M244.330908,353.202311 L244.330908,364.10139 L233.423593,364.10139 L233.423593,375 L244.330908,375 L255.237286,375 L255.237286,353.202311 L244.330908,353.202311 Z M200.702114,353.202311 L200.702114,364.10139 L200.702114,375 L211.608961,375 L222.516277,375 L222.516277,364.10139 L211.608961,364.10139 L211.608961,353.202311 L200.702114,353.202311 Z"></path>
                </g>
            </g>
        </g>
    </g>
</svg>