<?xml version="1.0" encoding="UTF-8"?>
<svg width="137px" height="137px" viewBox="0 0 137 137" version="1.1" xmlns="http://www.w3.org/2000/svg" xmlns:xlink="http://www.w3.org/1999/xlink">
    <title>Fill 1</title>
    <defs>
        <linearGradient x1="49.9996152%" y1="98.8787058%" x2="49.9996152%" y2="-1.12152517%" id="linearGradient-1">
            <stop stop-color="#FEFEFE" offset="0%"></stop>
            <stop stop-color="#FEFEFE" offset="100%"></stop>
        </linearGradient>
    </defs>
    <g id="Web" stroke="none" stroke-width="1" fill="none" fill-rule="evenodd" opacity="0.05">
        <g id="m01-01-Landing-|-Vertical-" transform="translate(-238.000000, -161.000000)" fill="url(#linearGradient-1)">
            <g id="design-element" transform="translate(187.500000, 337.500000) rotate(-270.000000) translate(-187.500000, -337.500000) translate(-150.000000, 150.000000)">
                <g transform="translate(-56.500000, 0.500000)" id="1">
                    <g transform="translate(217.583600, 0.000000)">
                        <path d="M127.360608,9.09009965 L136.45868,9.09009965 L136.45868,0 L127.360608,0 L127.360608,9.09009965 Z M109.167565,9.09009965 L118.265637,9.09009965 L118.265637,0 L109.167565,0 L109.167565,9.09009965 Z M90.9724536,9.09009965 L100.069492,9.09009965 L100.069492,0 L90.9724536,0 L90.9724536,9.09009965 Z M72.7763083,9.09009965 L81.8743809,9.09009965 L81.8743809,0 L72.7763083,0 L72.7763083,9.09009965 Z M54.5832653,9.09009965 L63.681338,9.09009965 L63.681338,0 L54.5832653,0 L54.5832653,9.09009965 Z M36.3881541,9.09009965 L45.4862268,9.09009965 L45.4862268,0 L36.3881541,0 L36.3881541,9.09009965 Z M18.193043,9.09009965 L27.2900815,9.09009965 L27.2900815,0 L18.193043,0 L18.193043,9.09009965 Z M0,9.09009965 L9.09600443,9.09009965 L9.09600443,0 L0,0 L0,9.09009965 Z M127.360608,27.2702989 L136.45868,27.2702989 L136.45868,18.1801993 L127.360608,18.1801993 L127.360608,27.2702989 Z M90.9724536,27.2702989 L100.069492,27.2702989 L100.069492,18.1801993 L90.9724536,18.1801993 L90.9724536,27.2702989 Z M54.5832653,27.2702989 L63.681338,27.2702989 L63.681338,18.1801993 L54.5832653,18.1801993 L54.5832653,27.2702989 Z M36.3881541,27.2702989 L45.4862268,27.2702989 L45.4862268,18.1801993 L36.3881541,18.1801993 L36.3881541,27.2702989 Z M0,27.2702989 L9.09600443,27.2702989 L9.09600443,18.1801993 L0,18.1801993 L0,27.2702989 Z M127.360608,45.4515316 L136.45868,45.4515316 L136.45868,36.3614319 L127.360608,36.3614319 L127.360608,45.4515316 Z M109.167565,45.4515316 L118.265637,45.4515316 L118.265637,36.3614319 L109.167565,36.3614319 L109.167565,45.4515316 Z M72.7763083,45.4515316 L100.069492,45.4515316 L100.069492,36.3614319 L72.7763083,36.3614319 L72.7763083,45.4515316 Z M54.5832653,45.4515316 L63.681338,45.4515316 L63.681338,36.3614319 L54.5832653,36.3614319 L54.5832653,45.4515316 Z M36.3881541,45.4515316 L45.4862268,45.4515316 L45.4862268,36.3614319 L36.3881541,36.3614319 L36.3881541,45.4515316 Z M0,45.4515316 L9.09600443,45.4515316 L9.09600443,36.3614319 L0,36.3614319 L0,45.4515316 Z M127.360608,63.6337975 L136.45868,63.6337975 L136.45868,54.5426645 L127.360608,54.5426645 L127.360608,63.6337975 Z M90.9724536,63.6337975 L100.069492,63.6337975 L100.069492,54.5426645 L90.9724536,54.5426645 L90.9724536,63.6337975 Z M54.5832653,63.6337975 L63.681338,63.6337975 L63.681338,54.5426645 L54.5832653,54.5426645 L54.5832653,63.6337975 Z M36.3881541,63.6337975 L45.4862268,63.6337975 L45.4862268,54.5426645 L36.3881541,54.5426645 L36.3881541,63.6337975 Z M0,63.6337975 L9.09600443,63.6337975 L9.09600443,54.5426645 L0,54.5426645 L0,63.6337975 Z M109.167565,81.8129635 L136.45868,81.8129635 L136.45868,72.7228638 L109.167565,72.7228638 L109.167565,81.8129635 Z M90.9724536,81.8129635 L100.069492,81.8129635 L100.069492,72.7228638 L90.9724536,72.7228638 L90.9724536,81.8129635 Z M72.7763083,81.8129635 L81.8743809,81.8129635 L81.8743809,72.7228638 L72.7763083,72.7228638 L72.7763083,81.8129635 Z M54.5832653,81.8129635 L63.681338,81.8129635 L63.681338,72.7228638 L54.5832653,72.7228638 L54.5832653,81.8129635 Z M36.3881541,81.8129635 L45.4862268,81.8129635 L45.4862268,72.7228638 L36.3881541,72.7228638 L36.3881541,81.8129635 Z M18.193043,81.8129635 L27.2900815,81.8129635 L27.2900815,72.7228638 L18.193043,72.7228638 L18.193043,81.8129635 Z M0,81.8129635 L9.09600443,81.8129635 L9.09600443,72.7228638 L0,72.7228638 L0,81.8129635 Z M127.360608,99.9941961 L136.45868,99.9941961 L136.45868,90.9040964 L127.360608,90.9040964 L127.360608,99.9941961 Z M109.167565,99.9941961 L118.265637,99.9941961 L118.265637,90.9040964 L109.167565,90.9040964 L109.167565,99.9941961 Z M90.9724536,99.9941961 L100.069492,99.9941961 L100.069492,90.9040964 L90.9724536,90.9040964 L90.9724536,99.9941961 Z M72.7763083,99.9941961 L81.8743809,99.9941961 L81.8743809,90.9040964 L72.7763083,90.9040964 L72.7763083,99.9941961 Z M54.5832653,99.9941961 L63.681338,99.9941961 L63.681338,90.9040964 L54.5832653,90.9040964 L54.5832653,99.9941961 Z M36.3881541,99.9941961 L45.4862268,99.9941961 L45.4862268,90.9040964 L36.3881541,90.9040964 L36.3881541,99.9941961 Z M18.193043,99.9941961 L27.2900815,99.9941961 L27.2900815,90.9040964 L18.193043,90.9040964 L18.193043,99.9941961 Z M0,99.9941961 L9.09600443,99.9941961 L9.09600443,90.9040964 L0,90.9040964 L0,99.9941961 Z M127.360608,118.175429 L136.45868,118.175429 L136.45868,109.085329 L127.360608,109.085329 L127.360608,118.175429 Z M109.167565,118.175429 L118.265637,118.175429 L118.265637,109.085329 L109.167565,109.085329 L109.167565,118.175429 Z M90.9724536,118.175429 L100.069492,118.175429 L100.069492,109.085329 L90.9724536,109.085329 L90.9724536,118.175429 Z M72.7763083,118.175429 L81.8743809,118.175429 L81.8743809,109.085329 L72.7763083,109.085329 L72.7763083,118.175429 Z M54.5832653,118.175429 L63.681338,118.175429 L63.681338,109.085329 L54.5832653,109.085329 L54.5832653,118.175429 Z M36.3881541,118.175429 L45.4862268,118.175429 L45.4862268,109.085329 L36.3881541,109.085329 L36.3881541,118.175429 Z M18.193043,118.175429 L27.2900815,118.175429 L27.2900815,109.085329 L18.193043,109.085329 L18.193043,118.175429 Z M0,118.175429 L9.09600443,118.175429 L9.09600443,109.085329 L0,109.085329 L0,118.175429 Z M127.360608,136.355628 L136.45868,136.355628 L136.45868,127.264495 L127.360608,127.264495 L127.360608,136.355628 Z M90.9724536,136.355628 L100.069492,136.355628 L100.069492,127.264495 L90.9724536,127.264495 L90.9724536,136.355628 Z M72.7763083,136.355628 L81.8743809,136.355628 L81.8743809,127.264495 L72.7763083,127.264495 L72.7763083,136.355628 Z M54.5832653,136.355628 L63.681338,136.355628 L63.681338,127.264495 L54.5832653,127.264495 L54.5832653,136.355628 Z M36.3881541,136.355628 L45.4862268,136.355628 L45.4862268,127.264495 L36.3881541,127.264495 L36.3881541,136.355628 Z M18.193043,136.355628 L27.2900815,136.355628 L27.2900815,127.264495 L18.193043,127.264495 L18.193043,136.355628 Z M0,136.355628 L9.09600443,136.355628 L9.09600443,127.264495 L0,127.264495 L0,136.355628 Z" id="Fill-1"></path>
                    </g>
                </g>
            </g>
        </g>
    </g>
</svg>