<?xml version="1.0" encoding="UTF-8"?>
<svg width="125px" height="125px" viewBox="0 0 125 125" version="1.1" xmlns="http://www.w3.org/2000/svg" xmlns:xlink="http://www.w3.org/1999/xlink">
    <title>492E2B9A-B12E-4358-A4ED-77EE9F9B7906@3x</title>
    <g id="HD" stroke="none" stroke-width="1" fill="none" fill-rule="evenodd">
        <g id="1920-|-01-06-Product-2" transform="translate(-976.000000, -1754.000000)">
            <rect fill="#FFFFFF" x="0" y="0" width="1920" height="2952"></rect>
            <rect id="background-gray" fill="#F8F8F8" x="0" y="1486" width="1920" height="545"></rect>
            <g id="icons/service/insurance" transform="translate(976.000000, 1754.000000)">
                <rect id="box" x="0" y="0" width="125" height="125"></rect>
                <g id="savings-(1)" transform="translate(18.000000, 13.000000)">
                    <path d="M65.0707799,90.1468606 C63.5685384,89.1236859 62.1449556,87.3273375 61.1650738,85.2185895 C60.4183229,83.6128922 60.0065327,81.9649184 60.0065327,80.5813764 L60.0065327,65.6266439 L73.5407314,59.0052768 L71.5110487,58.009338 L55.9418829,65.6264406 L55.9418829,80.5813764 C55.9418829,81.9649184 56.3528601,83.611876 57.1004239,85.2185895 C58.0803058,87.3273375 59.5038885,89.1236859 61.0061301,90.1468606 L71.512065,97.3050183 L73.5445932,95.9202569 L65.0707799,90.1468606 Z" id="Path" fill="#D4E1F4" fill-rule="nonzero" opacity="0.5"></path>
                    <g id="Group" fill="#202020" fill-rule="nonzero">
                        <path d="M85.6826482,19.816914 L43.7109413,0.115618313 C43.3826058,-0.0385394378 43.0026874,-0.0385394378 42.6743519,0.115618313 L0.701222222,19.816914 C0.273273003,20.0178417 2.88839627e-15,20.448009 2.88839627e-15,20.92078 L2.88839627e-15,28.6301594 C2.88839627e-15,29.30368 0.545996318,29.8496763 1.21951691,29.8496763 L6.2601868,29.8496763 C5.08051567,31.4791076 4.88042864,33.6211928 5.73792303,35.4409108 C6.59541742,37.2606288 8.37476931,38.4699553 10.3823572,38.5974744 C10.5014634,38.6047915 10.6200275,38.6085178 10.7380496,38.6086533 C11.8349993,38.6115294 12.907362,38.2838001 13.8152973,37.6682025 L13.8152973,69.2408855 L12.1667137,69.2408855 C11.7047953,69.2408242 11.2824873,69.5017471 11.0758558,69.9148718 L9.64190718,72.7829723 C9.55717722,72.9523434 9.51305776,73.1391204 9.5130449,73.3285029 L9.5130449,74.9770865 L4.71729465,74.9770865 C4.04377406,74.9770865 3.49777775,75.5230828 3.49777775,76.1966034 L3.49777775,82.9742719 C3.49777775,83.6477925 4.04377406,84.1937888 4.71729465,84.1937888 L55.0585461,84.1937888 C55.7320667,84.1937888 56.278063,83.6477925 56.278063,82.9742719 C56.278063,82.3007513 55.7320667,81.754755 55.0585461,81.754755 L5.93681156,81.754755 L5.93681156,77.4161203 L54.7227725,77.4161203 C55.3962931,77.4161203 55.9422894,76.870124 55.9422894,76.1966034 C55.9422894,75.5230828 55.3962931,74.9770865 54.7227725,74.9770865 L27.4665696,74.9770865 L27.4665696,73.3285029 C27.4665567,73.1391204 27.4224372,72.9523434 27.3377073,72.7829723 L25.9037586,69.9148718 C25.6971272,69.5017471 25.2748192,69.2408242 24.8129008,69.2408855 L23.1643172,69.2408855 L23.1643172,37.3960469 C24.8427171,38.7400883 27.1488902,38.987039 29.0738185,38.0288507 C30.9987468,37.0706624 32.1919727,35.0817856 32.131425,32.9324118 C32.0982472,31.8179809 31.7211129,30.7411036 31.051746,29.8494731 L55.2998072,29.8494731 C54.1198968,31.4788473 53.9196474,33.6210402 54.777131,35.4408673 C55.6346146,37.2606945 57.4140853,38.4700639 59.4217744,38.5974744 C59.5408805,38.6047915 59.6594447,38.6085178 59.7774668,38.6086533 C60.8743585,38.6115642 61.9466662,38.28383 62.8545112,37.6682025 L62.8545112,60.4111765 L65.293545,60.4111765 L65.293545,34.3064009 L69.765107,34.3064009 L69.765107,56.9105533 C69.7651071,57.5840738 70.3111034,58.1300701 70.9846239,58.1300701 C71.6581445,58.1300701 72.2041408,57.5840738 72.2041408,56.9105533 L72.2041408,37.3960469 C73.8825818,38.7400351 76.1887447,38.9869587 78.1136805,38.0287884 C80.0386163,37.0706181 81.2318935,35.0817873 81.1714519,32.9324118 C81.1381815,31.817998 80.7610568,30.741148 80.091773,29.8494731 L85.16476,29.8494731 C85.8382806,29.8494731 86.3842769,29.3034767 86.3842769,28.6299562 L86.3842769,20.9205768 C86.3842769,20.4477858 86.1106894,20.0176925 85.6826482,19.816914 L85.6826482,19.816914 Z M25.0279423,73.6163089 L25.0279423,74.9770865 L11.9520787,74.9770865 L11.9520787,73.6163089 L12.9203751,71.6799193 L24.0586296,71.6799193 L25.0279423,73.6163089 Z M16.2543311,69.2408855 L16.2543311,34.3064009 L20.7258931,34.3064009 L20.7258931,69.2408855 L16.2543311,69.2408855 Z M28.8216561,35.236689 C27.9468259,36.1358911 26.6143338,36.41525 25.4520063,35.9431409 C24.2896788,35.4710318 23.5293884,34.3416358 23.5293592,33.0870872 C23.5293592,32.4135666 22.9833629,31.8675703 22.3098423,31.8675703 L15.0348142,31.8675703 C14.3612936,31.8675703 13.8152973,32.4135666 13.8152973,33.0870872 C13.8152128,33.9392198 13.4624573,34.7533185 12.8407781,35.3361091 C12.2190988,35.9188997 11.3839406,36.2184057 10.5335773,36.1635219 C8.99421508,36.0490916 7.77044871,34.8252388 7.65612715,33.2858685 C7.60124084,32.4355238 7.9007525,31.600385 8.48354968,30.9787372 C9.06634687,30.3570895 9.88044767,30.0043517 10.7325618,30.0043517 L26.5224602,30.0043517 C28.2257188,30.0043517 29.6482853,31.3480561 29.6932042,32.9994852 C29.7192868,33.8326985 29.4045498,34.6405332 28.8216561,35.2364858 L28.8216561,35.236689 Z M77.8610733,35.236689 C76.9862904,36.1360126 75.6537521,36.4154792 74.4913526,35.9434036 C73.328953,35.4713281 72.5686001,34.3418932 72.5685731,33.0872905 C72.5685731,32.4137699 72.0225768,31.8677735 71.3490562,31.8677735 L64.0740281,31.8677735 C63.4005075,31.8677735 62.8545112,32.4137699 62.8545112,33.0872905 C62.8544231,33.9393854 62.5016952,34.75345 61.8800615,35.3362341 C61.2584277,35.9190181 60.4233238,36.2185504 59.5729945,36.1637251 C58.0335144,36.0494748 56.8095914,34.8255518 56.6953411,33.2860717 C56.6405158,32.4357424 56.940048,31.6006385 57.5228321,30.9790047 C58.1056162,30.3573709 58.9196808,30.0046431 59.7717757,30.004555 L75.5618774,30.004555 C77.2649328,30.004555 78.6874992,31.3482593 78.7326214,32.9996885 C78.7587346,33.8327866 78.4439849,34.640507 77.8610733,35.2362825 L77.8610733,35.236689 Z M83.9448366,27.4114555 L2.43903382,27.4114555 L2.43903382,21.6953765 L43.1912238,2.56644079 L83.9434139,21.6953765 L83.9448366,27.4114555 Z" id="Shape"></path>
                        <path d="M43.1889881,6.82336781 C38.3747457,6.83001667 34.3118593,10.4055445 33.6934229,15.1799042 L31.2267467,15.1799042 C30.5532261,15.1799042 30.0072298,15.7259005 30.0072298,16.3994211 C30.0072298,17.0729417 30.5532261,17.618938 31.2267467,17.618938 L33.6934229,17.618938 C34.3056392,22.3965882 38.3722724,25.9753677 43.1889881,25.9753677 C48.0057037,25.9753677 52.0723369,22.3965882 52.6845532,17.618938 L55.1666766,17.618938 C55.8401972,17.618938 56.3861935,17.0729417 56.3861935,16.3994211 C56.3861935,15.7259005 55.8401972,15.1799042 55.1666766,15.1799042 L52.6845532,15.1799042 C52.0661168,10.4055445 48.0032304,6.83001667 43.1889881,6.82336781 L43.1889881,6.82336781 Z M43.1889881,23.5364405 C40.3023331,23.5364405 37.6999169,21.7975616 36.5952419,19.1306402 C35.4905668,16.4637188 36.1011799,13.3939595 38.1423532,11.3527862 C40.1835265,9.31161297 43.2532858,8.70099988 45.9202072,9.80567489 C48.5871285,10.9103499 50.3260075,13.5127662 50.3260075,16.3994211 C50.3215271,20.3392308 47.1287977,23.5319602 43.1889881,23.5364405 L43.1889881,23.5364405 Z" id="Shape"></path>
                        <path d="M43.1889881,14.5538855 C42.3491954,14.5538033 41.5920523,15.0596298 41.2706396,15.8354813 C40.9492269,16.6113328 41.1268472,17.5044045 41.7206702,18.0982276 C42.3144933,18.6920507 43.2075651,18.869671 43.9834166,18.5482583 C44.7592681,18.2268456 45.2650945,17.4697024 45.2650123,16.6299098 C45.2636683,15.4839104 44.3349874,14.5552295 43.1889881,14.5538855 L43.1889881,14.5538855 Z M43.1889881,16.9929193 C42.9885034,16.9929193 42.8259785,16.8303944 42.8259785,16.6299098 C42.8259785,16.4294252 42.9885034,16.2669002 43.1889881,16.2669002 C43.3894727,16.2669002 43.5519976,16.4294252 43.5519976,16.6299098 C43.5517736,16.8303015 43.3893798,16.9926953 43.1889881,16.9929193 Z" id="Shape"></path>
                        <path d="M43.1918336,41.1342728 C35.5641007,41.1342728 29.3806014,47.3177721 29.3806014,54.945505 C29.3806014,62.573238 35.5641007,68.7567373 43.1918336,68.7567373 C50.8195665,68.7567373 57.0030658,62.573238 57.0030658,54.945505 C56.994441,47.3213474 50.8159912,41.1428976 43.1918336,41.1342728 L43.1918336,41.1342728 Z M43.1918336,66.3172969 C36.9111418,66.3172969 31.8196352,61.2257903 31.8196352,54.9450985 C31.8196352,48.6644067 36.9111418,43.5729001 43.1918336,43.5729001 C49.4725254,43.5729001 54.564032,48.6644067 54.564032,54.9450985 C54.5570875,61.2229773 49.4697122,66.3105345 43.1918336,66.3177034 L43.1918336,66.3172969 Z" id="Shape"></path>
                        <path d="M43.1918336,50.3763817 C44.098377,50.3775015 44.8329965,51.112121 44.8341164,52.0186644 C44.8341164,52.692185 45.3801127,53.2381813 46.0536333,53.2381813 C46.7271539,53.2381813 47.2731502,52.692185 47.2731502,52.0186644 C47.2709688,50.2350933 46.1127762,48.6587833 44.4113505,48.1237307 L44.4113505,47.584501 C44.4113505,46.9109804 43.8653542,46.364984 43.1918336,46.364984 C42.518313,46.364984 41.9723167,46.9109804 41.9723167,47.584501 L41.9723167,48.1239339 C40.0485295,48.7261757 38.8526493,50.6428117 39.1573344,52.6355032 C39.4620195,54.6281947 41.1759833,56.0999117 43.1918336,56.0997778 C44.0928579,56.1019623 44.823782,56.8298688 44.8296939,57.7308764 C44.8356058,58.6318839 44.1142965,59.3693192 43.2133784,59.383327 C43.2060613,59.383327 43.1991507,59.383327 43.1918336,59.383327 C43.1845165,59.383327 43.1776059,59.383327 43.1702888,59.383327 C42.2725058,59.3706709 41.5509972,58.6399319 41.5497541,57.7420605 C41.5497541,57.0685399 41.0037578,56.5225436 40.3302372,56.5225436 C39.6567166,56.5225436 39.1107203,57.0685399 39.1107203,57.7420605 C39.1130036,59.5255339 40.271051,61.1017582 41.9723167,61.6369943 L41.9723167,62.3065091 C41.9723167,62.9800297 42.518313,63.526026 43.1918336,63.526026 C43.8653542,63.526026 44.4113505,62.9800297 44.4113505,62.3065091 L44.4113505,61.6369943 C46.3352381,61.0347371 47.5311924,59.1180149 47.2265073,57.1252218 C46.9218222,55.1324287 45.2077843,53.6606254 43.1918336,53.660744 C42.2920083,53.6507331 41.5678207,52.9184438 41.5678207,52.0185628 C41.5678207,51.1186819 42.2920083,50.3863926 43.1918336,50.3763817 L43.1918336,50.3763817 Z" id="Path"></path>
                    </g>
                    <path d="M88.8377417,63.7943197 L72.0490589,55.556483 C71.7105588,55.3906251 71.3143842,55.3906251 70.9758841,55.556483 L54.1872013,63.7709456 C53.7689181,63.9756069 53.5036621,64.4006067 53.5036621,64.8662751 L53.5036621,80.5813764 C53.5036621,82.3374808 53.9825257,84.2964315 54.8884235,86.246439 C56.0483873,88.7425869 57.7778656,90.8990993 59.632954,92.1625188 L70.825477,99.7883612 C71.239711,100.070546 71.784419,100.070546 72.198653,99.7883612 L83.3911759,92.162722 C86.8283844,89.8214528 89.5206712,84.7344413 89.5206712,80.5813764 L89.5206712,64.8890394 C89.5206712,64.4237281 89.2555903,63.9990567 88.8377417,63.7943197 L88.8377417,63.7943197 Z M87.0812309,80.5813764 C87.0812309,83.8968364 84.7625227,88.2773412 82.0177967,90.1470638 L71.5116585,97.3050183 L61.0057236,90.1468606 C59.503482,89.1236859 58.0798993,87.3273375 57.1000174,85.2185895 C56.3532666,83.6128922 55.9414764,81.9649184 55.9414764,80.5813764 L55.9414764,65.6266439 L71.5106422,58.0095412 L87.0812309,65.6492049 L87.0812309,80.5813764 Z" id="Shape" fill="#E85453"></path>
                    <path d="M65.2591953,76.3524983 C64.9485043,76.0420634 64.4948857,75.9226726 64.0716264,76.0399342 C63.6483671,76.1571958 63.3208562,76.4929941 63.214206,76.919051 C63.1075559,77.345108 63.2382428,77.795602 63.5563432,78.09844 L68.6277043,83.0445974 C69.1013805,83.5066252 69.8570833,83.5066252 70.3307596,83.0445974 L79.467177,74.1333841 C79.9449047,73.6622938 79.9523707,72.8937865 79.4838855,72.413504 C79.0154003,71.9332214 78.246945,71.9215761 77.7641217,72.3874423 L69.4791303,80.4675549 L65.2591953,76.3524983 Z" id="Path" fill="#E85453"></path>
                </g>
            </g>
        </g>
    </g>
</svg>