<?xml version="1.0" encoding="UTF-8"?>
<svg width="375px" height="675px" viewBox="0 0 375 675" version="1.1" xmlns="http://www.w3.org/2000/svg" xmlns:xlink="http://www.w3.org/1999/xlink">
    <title>mobile design element</title>
    <defs>
        <rect id="path-1" x="0" y="0" width="675" height="375"></rect>
        <path d="M127.360608,9.09009965 L136.45868,9.09009965 L136.45868,0 L127.360608,0 L127.360608,9.09009965 Z M109.167565,9.09009965 L118.265637,9.09009965 L118.265637,0 L109.167565,0 L109.167565,9.09009965 Z M90.9724536,9.09009965 L100.069492,9.09009965 L100.069492,0 L90.9724536,0 L90.9724536,9.09009965 Z M72.7763083,9.09009965 L81.8743809,9.09009965 L81.8743809,0 L72.7763083,0 L72.7763083,9.09009965 Z M54.5832653,9.09009965 L63.681338,9.09009965 L63.681338,0 L54.5832653,0 L54.5832653,9.09009965 Z M36.3881541,9.09009965 L45.4862268,9.09009965 L45.4862268,0 L36.3881541,0 L36.3881541,9.09009965 Z M18.193043,9.09009965 L27.2900815,9.09009965 L27.2900815,0 L18.193043,0 L18.193043,9.09009965 Z M0,9.09009965 L9.09600443,9.09009965 L9.09600443,0 L0,0 L0,9.09009965 Z M127.360608,27.2702989 L136.45868,27.2702989 L136.45868,18.1801993 L127.360608,18.1801993 L127.360608,27.2702989 Z M90.9724536,27.2702989 L100.069492,27.2702989 L100.069492,18.1801993 L90.9724536,18.1801993 L90.9724536,27.2702989 Z M54.5832653,27.2702989 L63.681338,27.2702989 L63.681338,18.1801993 L54.5832653,18.1801993 L54.5832653,27.2702989 Z M36.3881541,27.2702989 L45.4862268,27.2702989 L45.4862268,18.1801993 L36.3881541,18.1801993 L36.3881541,27.2702989 Z M0,27.2702989 L9.09600443,27.2702989 L9.09600443,18.1801993 L0,18.1801993 L0,27.2702989 Z M127.360608,45.4515316 L136.45868,45.4515316 L136.45868,36.3614319 L127.360608,36.3614319 L127.360608,45.4515316 Z M109.167565,45.4515316 L118.265637,45.4515316 L118.265637,36.3614319 L109.167565,36.3614319 L109.167565,45.4515316 Z M72.7763083,45.4515316 L100.069492,45.4515316 L100.069492,36.3614319 L72.7763083,36.3614319 L72.7763083,45.4515316 Z M54.5832653,45.4515316 L63.681338,45.4515316 L63.681338,36.3614319 L54.5832653,36.3614319 L54.5832653,45.4515316 Z M36.3881541,45.4515316 L45.4862268,45.4515316 L45.4862268,36.3614319 L36.3881541,36.3614319 L36.3881541,45.4515316 Z M0,45.4515316 L9.09600443,45.4515316 L9.09600443,36.3614319 L0,36.3614319 L0,45.4515316 Z M127.360608,63.6337975 L136.45868,63.6337975 L136.45868,54.5426645 L127.360608,54.5426645 L127.360608,63.6337975 Z M90.9724536,63.6337975 L100.069492,63.6337975 L100.069492,54.5426645 L90.9724536,54.5426645 L90.9724536,63.6337975 Z M54.5832653,63.6337975 L63.681338,63.6337975 L63.681338,54.5426645 L54.5832653,54.5426645 L54.5832653,63.6337975 Z M36.3881541,63.6337975 L45.4862268,63.6337975 L45.4862268,54.5426645 L36.3881541,54.5426645 L36.3881541,63.6337975 Z M0,63.6337975 L9.09600443,63.6337975 L9.09600443,54.5426645 L0,54.5426645 L0,63.6337975 Z M109.167565,81.8129635 L136.45868,81.8129635 L136.45868,72.7228638 L109.167565,72.7228638 L109.167565,81.8129635 Z M90.9724536,81.8129635 L100.069492,81.8129635 L100.069492,72.7228638 L90.9724536,72.7228638 L90.9724536,81.8129635 Z M72.7763083,81.8129635 L81.8743809,81.8129635 L81.8743809,72.7228638 L72.7763083,72.7228638 L72.7763083,81.8129635 Z M54.5832653,81.8129635 L63.681338,81.8129635 L63.681338,72.7228638 L54.5832653,72.7228638 L54.5832653,81.8129635 Z M36.3881541,81.8129635 L45.4862268,81.8129635 L45.4862268,72.7228638 L36.3881541,72.7228638 L36.3881541,81.8129635 Z M18.193043,81.8129635 L27.2900815,81.8129635 L27.2900815,72.7228638 L18.193043,72.7228638 L18.193043,81.8129635 Z M0,81.8129635 L9.09600443,81.8129635 L9.09600443,72.7228638 L0,72.7228638 L0,81.8129635 Z M127.360608,99.9941961 L136.45868,99.9941961 L136.45868,90.9040964 L127.360608,90.9040964 L127.360608,99.9941961 Z M109.167565,99.9941961 L118.265637,99.9941961 L118.265637,90.9040964 L109.167565,90.9040964 L109.167565,99.9941961 Z M90.9724536,99.9941961 L100.069492,99.9941961 L100.069492,90.9040964 L90.9724536,90.9040964 L90.9724536,99.9941961 Z M72.7763083,99.9941961 L81.8743809,99.9941961 L81.8743809,90.9040964 L72.7763083,90.9040964 L72.7763083,99.9941961 Z M54.5832653,99.9941961 L63.681338,99.9941961 L63.681338,90.9040964 L54.5832653,90.9040964 L54.5832653,99.9941961 Z M36.3881541,99.9941961 L45.4862268,99.9941961 L45.4862268,90.9040964 L36.3881541,90.9040964 L36.3881541,99.9941961 Z M18.193043,99.9941961 L27.2900815,99.9941961 L27.2900815,90.9040964 L18.193043,90.9040964 L18.193043,99.9941961 Z M0,99.9941961 L9.09600443,99.9941961 L9.09600443,90.9040964 L0,90.9040964 L0,99.9941961 Z M127.360608,118.175429 L136.45868,118.175429 L136.45868,109.085329 L127.360608,109.085329 L127.360608,118.175429 Z M109.167565,118.175429 L118.265637,118.175429 L118.265637,109.085329 L109.167565,109.085329 L109.167565,118.175429 Z M90.9724536,118.175429 L100.069492,118.175429 L100.069492,109.085329 L90.9724536,109.085329 L90.9724536,118.175429 Z M72.7763083,118.175429 L81.8743809,118.175429 L81.8743809,109.085329 L72.7763083,109.085329 L72.7763083,118.175429 Z M54.5832653,118.175429 L63.681338,118.175429 L63.681338,109.085329 L54.5832653,109.085329 L54.5832653,118.175429 Z M36.3881541,118.175429 L45.4862268,118.175429 L45.4862268,109.085329 L36.3881541,109.085329 L36.3881541,118.175429 Z M18.193043,118.175429 L27.2900815,118.175429 L27.2900815,109.085329 L18.193043,109.085329 L18.193043,118.175429 Z M0,118.175429 L9.09600443,118.175429 L9.09600443,109.085329 L0,109.085329 L0,118.175429 Z M127.360608,136.355628 L136.45868,136.355628 L136.45868,127.264495 L127.360608,127.264495 L127.360608,136.355628 Z M90.9724536,136.355628 L100.069492,136.355628 L100.069492,127.264495 L90.9724536,127.264495 L90.9724536,136.355628 Z M72.7763083,136.355628 L81.8743809,136.355628 L81.8743809,127.264495 L72.7763083,127.264495 L72.7763083,136.355628 Z M54.5832653,136.355628 L63.681338,136.355628 L63.681338,127.264495 L54.5832653,127.264495 L54.5832653,136.355628 Z M36.3881541,136.355628 L45.4862268,136.355628 L45.4862268,127.264495 L36.3881541,127.264495 L36.3881541,136.355628 Z M18.193043,136.355628 L27.2900815,136.355628 L27.2900815,127.264495 L18.193043,127.264495 L18.193043,136.355628 Z M0,136.355628 L9.09600443,136.355628 L9.09600443,127.264495 L0,127.264495 L0,136.355628 Z" id="path-3"></path>
        <linearGradient x1="49.9996152%" y1="98.8787058%" x2="49.9996152%" y2="-1.12152517%" id="linearGradient-5">
            <stop stop-color="#FEFEFE" offset="0%"></stop>
            <stop stop-color="#FEFEFE" offset="100%"></stop>
        </linearGradient>
        <path d="M127.360608,9.09009965 L136.45868,9.09009965 L136.45868,0 L127.360608,0 L127.360608,9.09009965 Z M109.167565,9.09009965 L118.265637,9.09009965 L118.265637,0 L109.167565,0 L109.167565,9.09009965 Z M90.9724536,9.09009965 L100.069492,9.09009965 L100.069492,0 L90.9724536,0 L90.9724536,9.09009965 Z M72.7763083,9.09009965 L81.8743809,9.09009965 L81.8743809,0 L72.7763083,0 L72.7763083,9.09009965 Z M54.5832653,9.09009965 L63.681338,9.09009965 L63.681338,0 L54.5832653,0 L54.5832653,9.09009965 Z M36.3881541,9.09009965 L45.4862268,9.09009965 L45.4862268,0 L36.3881541,0 L36.3881541,9.09009965 Z M18.193043,9.09009965 L27.2900815,9.09009965 L27.2900815,0 L18.193043,0 L18.193043,9.09009965 Z M0,9.09009965 L9.09600443,9.09009965 L9.09600443,0 L0,0 L0,9.09009965 Z M127.360608,27.2702989 L136.45868,27.2702989 L136.45868,18.1801993 L127.360608,18.1801993 L127.360608,27.2702989 Z M90.9724536,27.2702989 L100.069492,27.2702989 L100.069492,18.1801993 L90.9724536,18.1801993 L90.9724536,27.2702989 Z M54.5832653,27.2702989 L63.681338,27.2702989 L63.681338,18.1801993 L54.5832653,18.1801993 L54.5832653,27.2702989 Z M36.3881541,27.2702989 L45.4862268,27.2702989 L45.4862268,18.1801993 L36.3881541,18.1801993 L36.3881541,27.2702989 Z M0,27.2702989 L9.09600443,27.2702989 L9.09600443,18.1801993 L0,18.1801993 L0,27.2702989 Z M127.360608,45.4515316 L136.45868,45.4515316 L136.45868,36.3614319 L127.360608,36.3614319 L127.360608,45.4515316 Z M109.167565,45.4515316 L118.265637,45.4515316 L118.265637,36.3614319 L109.167565,36.3614319 L109.167565,45.4515316 Z M72.7763083,45.4515316 L100.069492,45.4515316 L100.069492,36.3614319 L72.7763083,36.3614319 L72.7763083,45.4515316 Z M54.5832653,45.4515316 L63.681338,45.4515316 L63.681338,36.3614319 L54.5832653,36.3614319 L54.5832653,45.4515316 Z M36.3881541,45.4515316 L45.4862268,45.4515316 L45.4862268,36.3614319 L36.3881541,36.3614319 L36.3881541,45.4515316 Z M0,45.4515316 L9.09600443,45.4515316 L9.09600443,36.3614319 L0,36.3614319 L0,45.4515316 Z M127.360608,63.6337975 L136.45868,63.6337975 L136.45868,54.5426645 L127.360608,54.5426645 L127.360608,63.6337975 Z M90.9724536,63.6337975 L100.069492,63.6337975 L100.069492,54.5426645 L90.9724536,54.5426645 L90.9724536,63.6337975 Z M54.5832653,63.6337975 L63.681338,63.6337975 L63.681338,54.5426645 L54.5832653,54.5426645 L54.5832653,63.6337975 Z M36.3881541,63.6337975 L45.4862268,63.6337975 L45.4862268,54.5426645 L36.3881541,54.5426645 L36.3881541,63.6337975 Z M0,63.6337975 L9.09600443,63.6337975 L9.09600443,54.5426645 L0,54.5426645 L0,63.6337975 Z M109.167565,81.8129635 L136.45868,81.8129635 L136.45868,72.7228638 L109.167565,72.7228638 L109.167565,81.8129635 Z M90.9724536,81.8129635 L100.069492,81.8129635 L100.069492,72.7228638 L90.9724536,72.7228638 L90.9724536,81.8129635 Z M72.7763083,81.8129635 L81.8743809,81.8129635 L81.8743809,72.7228638 L72.7763083,72.7228638 L72.7763083,81.8129635 Z M54.5832653,81.8129635 L63.681338,81.8129635 L63.681338,72.7228638 L54.5832653,72.7228638 L54.5832653,81.8129635 Z M36.3881541,81.8129635 L45.4862268,81.8129635 L45.4862268,72.7228638 L36.3881541,72.7228638 L36.3881541,81.8129635 Z M18.193043,81.8129635 L27.2900815,81.8129635 L27.2900815,72.7228638 L18.193043,72.7228638 L18.193043,81.8129635 Z M0,81.8129635 L9.09600443,81.8129635 L9.09600443,72.7228638 L0,72.7228638 L0,81.8129635 Z M127.360608,99.9941961 L136.45868,99.9941961 L136.45868,90.9040964 L127.360608,90.9040964 L127.360608,99.9941961 Z M109.167565,99.9941961 L118.265637,99.9941961 L118.265637,90.9040964 L109.167565,90.9040964 L109.167565,99.9941961 Z M90.9724536,99.9941961 L100.069492,99.9941961 L100.069492,90.9040964 L90.9724536,90.9040964 L90.9724536,99.9941961 Z M72.7763083,99.9941961 L81.8743809,99.9941961 L81.8743809,90.9040964 L72.7763083,90.9040964 L72.7763083,99.9941961 Z M54.5832653,99.9941961 L63.681338,99.9941961 L63.681338,90.9040964 L54.5832653,90.9040964 L54.5832653,99.9941961 Z M36.3881541,99.9941961 L45.4862268,99.9941961 L45.4862268,90.9040964 L36.3881541,90.9040964 L36.3881541,99.9941961 Z M18.193043,99.9941961 L27.2900815,99.9941961 L27.2900815,90.9040964 L18.193043,90.9040964 L18.193043,99.9941961 Z M0,99.9941961 L9.09600443,99.9941961 L9.09600443,90.9040964 L0,90.9040964 L0,99.9941961 Z M127.360608,118.175429 L136.45868,118.175429 L136.45868,109.085329 L127.360608,109.085329 L127.360608,118.175429 Z M109.167565,118.175429 L118.265637,118.175429 L118.265637,109.085329 L109.167565,109.085329 L109.167565,118.175429 Z M90.9724536,118.175429 L100.069492,118.175429 L100.069492,109.085329 L90.9724536,109.085329 L90.9724536,118.175429 Z M72.7763083,118.175429 L81.8743809,118.175429 L81.8743809,109.085329 L72.7763083,109.085329 L72.7763083,118.175429 Z M54.5832653,118.175429 L63.681338,118.175429 L63.681338,109.085329 L54.5832653,109.085329 L54.5832653,118.175429 Z M36.3881541,118.175429 L45.4862268,118.175429 L45.4862268,109.085329 L36.3881541,109.085329 L36.3881541,118.175429 Z M18.193043,118.175429 L27.2900815,118.175429 L27.2900815,109.085329 L18.193043,109.085329 L18.193043,118.175429 Z M0,118.175429 L9.09600443,118.175429 L9.09600443,109.085329 L0,109.085329 L0,118.175429 Z M127.360608,136.355628 L136.45868,136.355628 L136.45868,127.264495 L127.360608,127.264495 L127.360608,136.355628 Z M90.9724536,136.355628 L100.069492,136.355628 L100.069492,127.264495 L90.9724536,127.264495 L90.9724536,136.355628 Z M72.7763083,136.355628 L81.8743809,136.355628 L81.8743809,127.264495 L72.7763083,127.264495 L72.7763083,136.355628 Z M54.5832653,136.355628 L63.681338,136.355628 L63.681338,127.264495 L54.5832653,127.264495 L54.5832653,136.355628 Z M36.3881541,136.355628 L45.4862268,136.355628 L45.4862268,127.264495 L36.3881541,127.264495 L36.3881541,136.355628 Z M18.193043,136.355628 L27.2900815,136.355628 L27.2900815,127.264495 L18.193043,127.264495 L18.193043,136.355628 Z M0,136.355628 L9.09600443,136.355628 L9.09600443,127.264495 L0,127.264495 L0,136.355628 Z" id="path-6"></path>
        <path d="M127.360608,9.09009965 L136.45868,9.09009965 L136.45868,0 L127.360608,0 L127.360608,9.09009965 Z M109.167565,9.09009965 L118.265637,9.09009965 L118.265637,0 L109.167565,0 L109.167565,9.09009965 Z M90.9724536,9.09009965 L100.069492,9.09009965 L100.069492,0 L90.9724536,0 L90.9724536,9.09009965 Z M72.7763083,9.09009965 L81.8743809,9.09009965 L81.8743809,0 L72.7763083,0 L72.7763083,9.09009965 Z M54.5832653,9.09009965 L63.681338,9.09009965 L63.681338,0 L54.5832653,0 L54.5832653,9.09009965 Z M36.3881541,9.09009965 L45.4862268,9.09009965 L45.4862268,0 L36.3881541,0 L36.3881541,9.09009965 Z M18.193043,9.09009965 L27.2900815,9.09009965 L27.2900815,0 L18.193043,0 L18.193043,9.09009965 Z M0,9.09009965 L9.09600443,9.09009965 L9.09600443,0 L0,0 L0,9.09009965 Z M127.360608,27.2702989 L136.45868,27.2702989 L136.45868,18.1801993 L127.360608,18.1801993 L127.360608,27.2702989 Z M90.9724536,27.2702989 L100.069492,27.2702989 L100.069492,18.1801993 L90.9724536,18.1801993 L90.9724536,27.2702989 Z M54.5832653,27.2702989 L63.681338,27.2702989 L63.681338,18.1801993 L54.5832653,18.1801993 L54.5832653,27.2702989 Z M36.3881541,27.2702989 L45.4862268,27.2702989 L45.4862268,18.1801993 L36.3881541,18.1801993 L36.3881541,27.2702989 Z M0,27.2702989 L9.09600443,27.2702989 L9.09600443,18.1801993 L0,18.1801993 L0,27.2702989 Z M127.360608,45.4515316 L136.45868,45.4515316 L136.45868,36.3614319 L127.360608,36.3614319 L127.360608,45.4515316 Z M109.167565,45.4515316 L118.265637,45.4515316 L118.265637,36.3614319 L109.167565,36.3614319 L109.167565,45.4515316 Z M72.7763083,45.4515316 L100.069492,45.4515316 L100.069492,36.3614319 L72.7763083,36.3614319 L72.7763083,45.4515316 Z M54.5832653,45.4515316 L63.681338,45.4515316 L63.681338,36.3614319 L54.5832653,36.3614319 L54.5832653,45.4515316 Z M36.3881541,45.4515316 L45.4862268,45.4515316 L45.4862268,36.3614319 L36.3881541,36.3614319 L36.3881541,45.4515316 Z M0,45.4515316 L9.09600443,45.4515316 L9.09600443,36.3614319 L0,36.3614319 L0,45.4515316 Z M127.360608,63.6337975 L136.45868,63.6337975 L136.45868,54.5426645 L127.360608,54.5426645 L127.360608,63.6337975 Z M90.9724536,63.6337975 L100.069492,63.6337975 L100.069492,54.5426645 L90.9724536,54.5426645 L90.9724536,63.6337975 Z M54.5832653,63.6337975 L63.681338,63.6337975 L63.681338,54.5426645 L54.5832653,54.5426645 L54.5832653,63.6337975 Z M36.3881541,63.6337975 L45.4862268,63.6337975 L45.4862268,54.5426645 L36.3881541,54.5426645 L36.3881541,63.6337975 Z M0,63.6337975 L9.09600443,63.6337975 L9.09600443,54.5426645 L0,54.5426645 L0,63.6337975 Z M109.167565,81.8129635 L136.45868,81.8129635 L136.45868,72.7228638 L109.167565,72.7228638 L109.167565,81.8129635 Z M90.9724536,81.8129635 L100.069492,81.8129635 L100.069492,72.7228638 L90.9724536,72.7228638 L90.9724536,81.8129635 Z M72.7763083,81.8129635 L81.8743809,81.8129635 L81.8743809,72.7228638 L72.7763083,72.7228638 L72.7763083,81.8129635 Z M54.5832653,81.8129635 L63.681338,81.8129635 L63.681338,72.7228638 L54.5832653,72.7228638 L54.5832653,81.8129635 Z M36.3881541,81.8129635 L45.4862268,81.8129635 L45.4862268,72.7228638 L36.3881541,72.7228638 L36.3881541,81.8129635 Z M18.193043,81.8129635 L27.2900815,81.8129635 L27.2900815,72.7228638 L18.193043,72.7228638 L18.193043,81.8129635 Z M0,81.8129635 L9.09600443,81.8129635 L9.09600443,72.7228638 L0,72.7228638 L0,81.8129635 Z M127.360608,99.9941961 L136.45868,99.9941961 L136.45868,90.9040964 L127.360608,90.9040964 L127.360608,99.9941961 Z M109.167565,99.9941961 L118.265637,99.9941961 L118.265637,90.9040964 L109.167565,90.9040964 L109.167565,99.9941961 Z M90.9724536,99.9941961 L100.069492,99.9941961 L100.069492,90.9040964 L90.9724536,90.9040964 L90.9724536,99.9941961 Z M72.7763083,99.9941961 L81.8743809,99.9941961 L81.8743809,90.9040964 L72.7763083,90.9040964 L72.7763083,99.9941961 Z M54.5832653,99.9941961 L63.681338,99.9941961 L63.681338,90.9040964 L54.5832653,90.9040964 L54.5832653,99.9941961 Z M36.3881541,99.9941961 L45.4862268,99.9941961 L45.4862268,90.9040964 L36.3881541,90.9040964 L36.3881541,99.9941961 Z M18.193043,99.9941961 L27.2900815,99.9941961 L27.2900815,90.9040964 L18.193043,90.9040964 L18.193043,99.9941961 Z M0,99.9941961 L9.09600443,99.9941961 L9.09600443,90.9040964 L0,90.9040964 L0,99.9941961 Z M127.360608,118.175429 L136.45868,118.175429 L136.45868,109.085329 L127.360608,109.085329 L127.360608,118.175429 Z M109.167565,118.175429 L118.265637,118.175429 L118.265637,109.085329 L109.167565,109.085329 L109.167565,118.175429 Z M90.9724536,118.175429 L100.069492,118.175429 L100.069492,109.085329 L90.9724536,109.085329 L90.9724536,118.175429 Z M72.7763083,118.175429 L81.8743809,118.175429 L81.8743809,109.085329 L72.7763083,109.085329 L72.7763083,118.175429 Z M54.5832653,118.175429 L63.681338,118.175429 L63.681338,109.085329 L54.5832653,109.085329 L54.5832653,118.175429 Z M36.3881541,118.175429 L45.4862268,118.175429 L45.4862268,109.085329 L36.3881541,109.085329 L36.3881541,118.175429 Z M18.193043,118.175429 L27.2900815,118.175429 L27.2900815,109.085329 L18.193043,109.085329 L18.193043,118.175429 Z M0,118.175429 L9.09600443,118.175429 L9.09600443,109.085329 L0,109.085329 L0,118.175429 Z M127.360608,136.355628 L136.45868,136.355628 L136.45868,127.264495 L127.360608,127.264495 L127.360608,136.355628 Z M90.9724536,136.355628 L100.069492,136.355628 L100.069492,127.264495 L90.9724536,127.264495 L90.9724536,136.355628 Z M72.7763083,136.355628 L81.8743809,136.355628 L81.8743809,127.264495 L72.7763083,127.264495 L72.7763083,136.355628 Z M54.5832653,136.355628 L63.681338,136.355628 L63.681338,127.264495 L54.5832653,127.264495 L54.5832653,136.355628 Z M36.3881541,136.355628 L45.4862268,136.355628 L45.4862268,127.264495 L36.3881541,127.264495 L36.3881541,136.355628 Z M18.193043,136.355628 L27.2900815,136.355628 L27.2900815,127.264495 L18.193043,127.264495 L18.193043,136.355628 Z M0,136.355628 L9.09600443,136.355628 L9.09600443,127.264495 L0,127.264495 L0,136.355628 Z" id="path-8"></path>
        <path d="M127.360608,9.09009965 L136.45868,9.09009965 L136.45868,-4.54747351e-13 L127.360608,-4.54747351e-13 L127.360608,9.09009965 Z M109.167565,9.09009965 L118.265637,9.09009965 L118.265637,-4.54747351e-13 L109.167565,-4.54747351e-13 L109.167565,9.09009965 Z M90.9724536,9.09009965 L100.069492,9.09009965 L100.069492,-4.54747351e-13 L90.9724536,-4.54747351e-13 L90.9724536,9.09009965 Z M72.7763083,9.09009965 L81.8743809,9.09009965 L81.8743809,-4.54747351e-13 L72.7763083,-4.54747351e-13 L72.7763083,9.09009965 Z M54.5832653,9.09009965 L63.681338,9.09009965 L63.681338,-4.54747351e-13 L54.5832653,-4.54747351e-13 L54.5832653,9.09009965 Z M36.3881541,9.09009965 L45.4862268,9.09009965 L45.4862268,-4.54747351e-13 L36.3881541,-4.54747351e-13 L36.3881541,9.09009965 Z M18.193043,9.09009965 L27.2900815,9.09009965 L27.2900815,-4.54747351e-13 L18.193043,-4.54747351e-13 L18.193043,9.09009965 Z M0,9.09009965 L9.09600443,9.09009965 L9.09600443,-4.54747351e-13 L0,-4.54747351e-13 L0,9.09009965 Z M127.360608,27.2702989 L136.45868,27.2702989 L136.45868,18.1801993 L127.360608,18.1801993 L127.360608,27.2702989 Z M90.9724536,27.2702989 L100.069492,27.2702989 L100.069492,18.1801993 L90.9724536,18.1801993 L90.9724536,27.2702989 Z M54.5832653,27.2702989 L63.681338,27.2702989 L63.681338,18.1801993 L54.5832653,18.1801993 L54.5832653,27.2702989 Z M36.3881541,27.2702989 L45.4862268,27.2702989 L45.4862268,18.1801993 L36.3881541,18.1801993 L36.3881541,27.2702989 Z M0,27.2702989 L9.09600443,27.2702989 L9.09600443,18.1801993 L0,18.1801993 L0,27.2702989 Z M127.360608,45.4515316 L136.45868,45.4515316 L136.45868,36.3614319 L127.360608,36.3614319 L127.360608,45.4515316 Z M109.167565,45.4515316 L118.265637,45.4515316 L118.265637,36.3614319 L109.167565,36.3614319 L109.167565,45.4515316 Z M72.7763083,45.4515316 L100.069492,45.4515316 L100.069492,36.3614319 L72.7763083,36.3614319 L72.7763083,45.4515316 Z M54.5832653,45.4515316 L63.681338,45.4515316 L63.681338,36.3614319 L54.5832653,36.3614319 L54.5832653,45.4515316 Z M36.3881541,45.4515316 L45.4862268,45.4515316 L45.4862268,36.3614319 L36.3881541,36.3614319 L36.3881541,45.4515316 Z M0,45.4515316 L9.09600443,45.4515316 L9.09600443,36.3614319 L0,36.3614319 L0,45.4515316 Z M127.360608,63.6337975 L136.45868,63.6337975 L136.45868,54.5426645 L127.360608,54.5426645 L127.360608,63.6337975 Z M90.9724536,63.6337975 L100.069492,63.6337975 L100.069492,54.5426645 L90.9724536,54.5426645 L90.9724536,63.6337975 Z M54.5832653,63.6337975 L63.681338,63.6337975 L63.681338,54.5426645 L54.5832653,54.5426645 L54.5832653,63.6337975 Z M36.3881541,63.6337975 L45.4862268,63.6337975 L45.4862268,54.5426645 L36.3881541,54.5426645 L36.3881541,63.6337975 Z M0,63.6337975 L9.09600443,63.6337975 L9.09600443,54.5426645 L0,54.5426645 L0,63.6337975 Z M109.167565,81.8129635 L136.45868,81.8129635 L136.45868,72.7228638 L109.167565,72.7228638 L109.167565,81.8129635 Z M90.9724536,81.8129635 L100.069492,81.8129635 L100.069492,72.7228638 L90.9724536,72.7228638 L90.9724536,81.8129635 Z M72.7763083,81.8129635 L81.8743809,81.8129635 L81.8743809,72.7228638 L72.7763083,72.7228638 L72.7763083,81.8129635 Z M54.5832653,81.8129635 L63.681338,81.8129635 L63.681338,72.7228638 L54.5832653,72.7228638 L54.5832653,81.8129635 Z M36.3881541,81.8129635 L45.4862268,81.8129635 L45.4862268,72.7228638 L36.3881541,72.7228638 L36.3881541,81.8129635 Z M18.193043,81.8129635 L27.2900815,81.8129635 L27.2900815,72.7228638 L18.193043,72.7228638 L18.193043,81.8129635 Z M0,81.8129635 L9.09600443,81.8129635 L9.09600443,72.7228638 L0,72.7228638 L0,81.8129635 Z M127.360608,99.9941961 L136.45868,99.9941961 L136.45868,90.9040964 L127.360608,90.9040964 L127.360608,99.9941961 Z M109.167565,99.9941961 L118.265637,99.9941961 L118.265637,90.9040964 L109.167565,90.9040964 L109.167565,99.9941961 Z M90.9724536,99.9941961 L100.069492,99.9941961 L100.069492,90.9040964 L90.9724536,90.9040964 L90.9724536,99.9941961 Z M72.7763083,99.9941961 L81.8743809,99.9941961 L81.8743809,90.9040964 L72.7763083,90.9040964 L72.7763083,99.9941961 Z M54.5832653,99.9941961 L63.681338,99.9941961 L63.681338,90.9040964 L54.5832653,90.9040964 L54.5832653,99.9941961 Z M36.3881541,99.9941961 L45.4862268,99.9941961 L45.4862268,90.9040964 L36.3881541,90.9040964 L36.3881541,99.9941961 Z M18.193043,99.9941961 L27.2900815,99.9941961 L27.2900815,90.9040964 L18.193043,90.9040964 L18.193043,99.9941961 Z M0,99.9941961 L9.09600443,99.9941961 L9.09600443,90.9040964 L0,90.9040964 L0,99.9941961 Z M127.360608,118.175429 L136.45868,118.175429 L136.45868,109.085329 L127.360608,109.085329 L127.360608,118.175429 Z M109.167565,118.175429 L118.265637,118.175429 L118.265637,109.085329 L109.167565,109.085329 L109.167565,118.175429 Z M90.9724536,118.175429 L100.069492,118.175429 L100.069492,109.085329 L90.9724536,109.085329 L90.9724536,118.175429 Z M72.7763083,118.175429 L81.8743809,118.175429 L81.8743809,109.085329 L72.7763083,109.085329 L72.7763083,118.175429 Z M54.5832653,118.175429 L63.681338,118.175429 L63.681338,109.085329 L54.5832653,109.085329 L54.5832653,118.175429 Z M36.3881541,118.175429 L45.4862268,118.175429 L45.4862268,109.085329 L36.3881541,109.085329 L36.3881541,118.175429 Z M18.193043,118.175429 L27.2900815,118.175429 L27.2900815,109.085329 L18.193043,109.085329 L18.193043,118.175429 Z M0,118.175429 L9.09600443,118.175429 L9.09600443,109.085329 L0,109.085329 L0,118.175429 Z M127.360608,136.355628 L136.45868,136.355628 L136.45868,127.264495 L127.360608,127.264495 L127.360608,136.355628 Z M90.9724536,136.355628 L100.069492,136.355628 L100.069492,127.264495 L90.9724536,127.264495 L90.9724536,136.355628 Z M72.7763083,136.355628 L81.8743809,136.355628 L81.8743809,127.264495 L72.7763083,127.264495 L72.7763083,136.355628 Z M54.5832653,136.355628 L63.681338,136.355628 L63.681338,127.264495 L54.5832653,127.264495 L54.5832653,136.355628 Z M36.3881541,136.355628 L45.4862268,136.355628 L45.4862268,127.264495 L36.3881541,127.264495 L36.3881541,136.355628 Z M18.193043,136.355628 L27.2900815,136.355628 L27.2900815,127.264495 L18.193043,127.264495 L18.193043,136.355628 Z M0,136.355628 L9.09600443,136.355628 L9.09600443,127.264495 L0,127.264495 L0,136.355628 Z" id="path-10"></path>
    </defs>
    <g id="Web" stroke="none" stroke-width="1" fill="none" fill-rule="evenodd">
        <g id="mobile-design-element" transform="translate(187.500000, 337.500000) rotate(-270.000000) translate(-187.500000, -337.500000) translate(-150.000000, 150.000000)">
            <mask id="mask-2" fill="white">
                <use xlink:href="#path-1"></use>
            </mask>
            <use id="Mask" fill="#282828" xlink:href="#path-1"></use>
            <g id="design-element" mask="url(#mask-2)">
                <g transform="translate(-56.500000, 0.500000)">
                    <g id="1" opacity="0.05" stroke-width="1" fill="none" transform="translate(217.583600, 0.000000)">
                        <mask id="mask-4" fill="white">
                            <use xlink:href="#path-3"></use>
                        </mask>
                        <g id="Clip-2"></g>
                        <path d="M127.360608,9.09009965 L136.45868,9.09009965 L136.45868,0 L127.360608,0 L127.360608,9.09009965 Z M109.167565,9.09009965 L118.265637,9.09009965 L118.265637,0 L109.167565,0 L109.167565,9.09009965 Z M90.9724536,9.09009965 L100.069492,9.09009965 L100.069492,0 L90.9724536,0 L90.9724536,9.09009965 Z M72.7763083,9.09009965 L81.8743809,9.09009965 L81.8743809,0 L72.7763083,0 L72.7763083,9.09009965 Z M54.5832653,9.09009965 L63.681338,9.09009965 L63.681338,0 L54.5832653,0 L54.5832653,9.09009965 Z M36.3881541,9.09009965 L45.4862268,9.09009965 L45.4862268,0 L36.3881541,0 L36.3881541,9.09009965 Z M18.193043,9.09009965 L27.2900815,9.09009965 L27.2900815,0 L18.193043,0 L18.193043,9.09009965 Z M0,9.09009965 L9.09600443,9.09009965 L9.09600443,0 L0,0 L0,9.09009965 Z M127.360608,27.2702989 L136.45868,27.2702989 L136.45868,18.1801993 L127.360608,18.1801993 L127.360608,27.2702989 Z M90.9724536,27.2702989 L100.069492,27.2702989 L100.069492,18.1801993 L90.9724536,18.1801993 L90.9724536,27.2702989 Z M54.5832653,27.2702989 L63.681338,27.2702989 L63.681338,18.1801993 L54.5832653,18.1801993 L54.5832653,27.2702989 Z M36.3881541,27.2702989 L45.4862268,27.2702989 L45.4862268,18.1801993 L36.3881541,18.1801993 L36.3881541,27.2702989 Z M0,27.2702989 L9.09600443,27.2702989 L9.09600443,18.1801993 L0,18.1801993 L0,27.2702989 Z M127.360608,45.4515316 L136.45868,45.4515316 L136.45868,36.3614319 L127.360608,36.3614319 L127.360608,45.4515316 Z M109.167565,45.4515316 L118.265637,45.4515316 L118.265637,36.3614319 L109.167565,36.3614319 L109.167565,45.4515316 Z M72.7763083,45.4515316 L100.069492,45.4515316 L100.069492,36.3614319 L72.7763083,36.3614319 L72.7763083,45.4515316 Z M54.5832653,45.4515316 L63.681338,45.4515316 L63.681338,36.3614319 L54.5832653,36.3614319 L54.5832653,45.4515316 Z M36.3881541,45.4515316 L45.4862268,45.4515316 L45.4862268,36.3614319 L36.3881541,36.3614319 L36.3881541,45.4515316 Z M0,45.4515316 L9.09600443,45.4515316 L9.09600443,36.3614319 L0,36.3614319 L0,45.4515316 Z M127.360608,63.6337975 L136.45868,63.6337975 L136.45868,54.5426645 L127.360608,54.5426645 L127.360608,63.6337975 Z M90.9724536,63.6337975 L100.069492,63.6337975 L100.069492,54.5426645 L90.9724536,54.5426645 L90.9724536,63.6337975 Z M54.5832653,63.6337975 L63.681338,63.6337975 L63.681338,54.5426645 L54.5832653,54.5426645 L54.5832653,63.6337975 Z M36.3881541,63.6337975 L45.4862268,63.6337975 L45.4862268,54.5426645 L36.3881541,54.5426645 L36.3881541,63.6337975 Z M0,63.6337975 L9.09600443,63.6337975 L9.09600443,54.5426645 L0,54.5426645 L0,63.6337975 Z M109.167565,81.8129635 L136.45868,81.8129635 L136.45868,72.7228638 L109.167565,72.7228638 L109.167565,81.8129635 Z M90.9724536,81.8129635 L100.069492,81.8129635 L100.069492,72.7228638 L90.9724536,72.7228638 L90.9724536,81.8129635 Z M72.7763083,81.8129635 L81.8743809,81.8129635 L81.8743809,72.7228638 L72.7763083,72.7228638 L72.7763083,81.8129635 Z M54.5832653,81.8129635 L63.681338,81.8129635 L63.681338,72.7228638 L54.5832653,72.7228638 L54.5832653,81.8129635 Z M36.3881541,81.8129635 L45.4862268,81.8129635 L45.4862268,72.7228638 L36.3881541,72.7228638 L36.3881541,81.8129635 Z M18.193043,81.8129635 L27.2900815,81.8129635 L27.2900815,72.7228638 L18.193043,72.7228638 L18.193043,81.8129635 Z M0,81.8129635 L9.09600443,81.8129635 L9.09600443,72.7228638 L0,72.7228638 L0,81.8129635 Z M127.360608,99.9941961 L136.45868,99.9941961 L136.45868,90.9040964 L127.360608,90.9040964 L127.360608,99.9941961 Z M109.167565,99.9941961 L118.265637,99.9941961 L118.265637,90.9040964 L109.167565,90.9040964 L109.167565,99.9941961 Z M90.9724536,99.9941961 L100.069492,99.9941961 L100.069492,90.9040964 L90.9724536,90.9040964 L90.9724536,99.9941961 Z M72.7763083,99.9941961 L81.8743809,99.9941961 L81.8743809,90.9040964 L72.7763083,90.9040964 L72.7763083,99.9941961 Z M54.5832653,99.9941961 L63.681338,99.9941961 L63.681338,90.9040964 L54.5832653,90.9040964 L54.5832653,99.9941961 Z M36.3881541,99.9941961 L45.4862268,99.9941961 L45.4862268,90.9040964 L36.3881541,90.9040964 L36.3881541,99.9941961 Z M18.193043,99.9941961 L27.2900815,99.9941961 L27.2900815,90.9040964 L18.193043,90.9040964 L18.193043,99.9941961 Z M0,99.9941961 L9.09600443,99.9941961 L9.09600443,90.9040964 L0,90.9040964 L0,99.9941961 Z M127.360608,118.175429 L136.45868,118.175429 L136.45868,109.085329 L127.360608,109.085329 L127.360608,118.175429 Z M109.167565,118.175429 L118.265637,118.175429 L118.265637,109.085329 L109.167565,109.085329 L109.167565,118.175429 Z M90.9724536,118.175429 L100.069492,118.175429 L100.069492,109.085329 L90.9724536,109.085329 L90.9724536,118.175429 Z M72.7763083,118.175429 L81.8743809,118.175429 L81.8743809,109.085329 L72.7763083,109.085329 L72.7763083,118.175429 Z M54.5832653,118.175429 L63.681338,118.175429 L63.681338,109.085329 L54.5832653,109.085329 L54.5832653,118.175429 Z M36.3881541,118.175429 L45.4862268,118.175429 L45.4862268,109.085329 L36.3881541,109.085329 L36.3881541,118.175429 Z M18.193043,118.175429 L27.2900815,118.175429 L27.2900815,109.085329 L18.193043,109.085329 L18.193043,118.175429 Z M0,118.175429 L9.09600443,118.175429 L9.09600443,109.085329 L0,109.085329 L0,118.175429 Z M127.360608,136.355628 L136.45868,136.355628 L136.45868,127.264495 L127.360608,127.264495 L127.360608,136.355628 Z M90.9724536,136.355628 L100.069492,136.355628 L100.069492,127.264495 L90.9724536,127.264495 L90.9724536,136.355628 Z M72.7763083,136.355628 L81.8743809,136.355628 L81.8743809,127.264495 L72.7763083,127.264495 L72.7763083,136.355628 Z M54.5832653,136.355628 L63.681338,136.355628 L63.681338,127.264495 L54.5832653,127.264495 L54.5832653,136.355628 Z M36.3881541,136.355628 L45.4862268,136.355628 L45.4862268,127.264495 L36.3881541,127.264495 L36.3881541,136.355628 Z M18.193043,136.355628 L27.2900815,136.355628 L27.2900815,127.264495 L18.193043,127.264495 L18.193043,136.355628 Z M0,136.355628 L9.09600443,136.355628 L9.09600443,127.264495 L0,127.264495 L0,136.355628 Z" id="Fill-1" fill="url(#linearGradient-5)" mask="url(#mask-4)"></path>
                    </g>
                    <g id="2" opacity="0.05" stroke-width="1" fill="none" transform="translate(0.000000, 238.505205)">
                        <mask id="mask-7" fill="white">
                            <use xlink:href="#path-6"></use>
                        </mask>
                        <g id="Clip-2"></g>
                        <path d="M127.360608,9.09009965 L136.45868,9.09009965 L136.45868,0 L127.360608,0 L127.360608,9.09009965 Z M109.167565,9.09009965 L118.265637,9.09009965 L118.265637,0 L109.167565,0 L109.167565,9.09009965 Z M90.9724536,9.09009965 L100.069492,9.09009965 L100.069492,0 L90.9724536,0 L90.9724536,9.09009965 Z M72.7763083,9.09009965 L81.8743809,9.09009965 L81.8743809,0 L72.7763083,0 L72.7763083,9.09009965 Z M54.5832653,9.09009965 L63.681338,9.09009965 L63.681338,0 L54.5832653,0 L54.5832653,9.09009965 Z M36.3881541,9.09009965 L45.4862268,9.09009965 L45.4862268,0 L36.3881541,0 L36.3881541,9.09009965 Z M18.193043,9.09009965 L27.2900815,9.09009965 L27.2900815,0 L18.193043,0 L18.193043,9.09009965 Z M0,9.09009965 L9.09600443,9.09009965 L9.09600443,0 L0,0 L0,9.09009965 Z M127.360608,27.2702989 L136.45868,27.2702989 L136.45868,18.1801993 L127.360608,18.1801993 L127.360608,27.2702989 Z M90.9724536,27.2702989 L100.069492,27.2702989 L100.069492,18.1801993 L90.9724536,18.1801993 L90.9724536,27.2702989 Z M54.5832653,27.2702989 L63.681338,27.2702989 L63.681338,18.1801993 L54.5832653,18.1801993 L54.5832653,27.2702989 Z M36.3881541,27.2702989 L45.4862268,27.2702989 L45.4862268,18.1801993 L36.3881541,18.1801993 L36.3881541,27.2702989 Z M0,27.2702989 L9.09600443,27.2702989 L9.09600443,18.1801993 L0,18.1801993 L0,27.2702989 Z M127.360608,45.4515316 L136.45868,45.4515316 L136.45868,36.3614319 L127.360608,36.3614319 L127.360608,45.4515316 Z M109.167565,45.4515316 L118.265637,45.4515316 L118.265637,36.3614319 L109.167565,36.3614319 L109.167565,45.4515316 Z M72.7763083,45.4515316 L100.069492,45.4515316 L100.069492,36.3614319 L72.7763083,36.3614319 L72.7763083,45.4515316 Z M54.5832653,45.4515316 L63.681338,45.4515316 L63.681338,36.3614319 L54.5832653,36.3614319 L54.5832653,45.4515316 Z M36.3881541,45.4515316 L45.4862268,45.4515316 L45.4862268,36.3614319 L36.3881541,36.3614319 L36.3881541,45.4515316 Z M0,45.4515316 L9.09600443,45.4515316 L9.09600443,36.3614319 L0,36.3614319 L0,45.4515316 Z M127.360608,63.6337975 L136.45868,63.6337975 L136.45868,54.5426645 L127.360608,54.5426645 L127.360608,63.6337975 Z M90.9724536,63.6337975 L100.069492,63.6337975 L100.069492,54.5426645 L90.9724536,54.5426645 L90.9724536,63.6337975 Z M54.5832653,63.6337975 L63.681338,63.6337975 L63.681338,54.5426645 L54.5832653,54.5426645 L54.5832653,63.6337975 Z M36.3881541,63.6337975 L45.4862268,63.6337975 L45.4862268,54.5426645 L36.3881541,54.5426645 L36.3881541,63.6337975 Z M0,63.6337975 L9.09600443,63.6337975 L9.09600443,54.5426645 L0,54.5426645 L0,63.6337975 Z M109.167565,81.8129635 L136.45868,81.8129635 L136.45868,72.7228638 L109.167565,72.7228638 L109.167565,81.8129635 Z M90.9724536,81.8129635 L100.069492,81.8129635 L100.069492,72.7228638 L90.9724536,72.7228638 L90.9724536,81.8129635 Z M72.7763083,81.8129635 L81.8743809,81.8129635 L81.8743809,72.7228638 L72.7763083,72.7228638 L72.7763083,81.8129635 Z M54.5832653,81.8129635 L63.681338,81.8129635 L63.681338,72.7228638 L54.5832653,72.7228638 L54.5832653,81.8129635 Z M36.3881541,81.8129635 L45.4862268,81.8129635 L45.4862268,72.7228638 L36.3881541,72.7228638 L36.3881541,81.8129635 Z M18.193043,81.8129635 L27.2900815,81.8129635 L27.2900815,72.7228638 L18.193043,72.7228638 L18.193043,81.8129635 Z M0,81.8129635 L9.09600443,81.8129635 L9.09600443,72.7228638 L0,72.7228638 L0,81.8129635 Z M127.360608,99.9941961 L136.45868,99.9941961 L136.45868,90.9040964 L127.360608,90.9040964 L127.360608,99.9941961 Z M109.167565,99.9941961 L118.265637,99.9941961 L118.265637,90.9040964 L109.167565,90.9040964 L109.167565,99.9941961 Z M90.9724536,99.9941961 L100.069492,99.9941961 L100.069492,90.9040964 L90.9724536,90.9040964 L90.9724536,99.9941961 Z M72.7763083,99.9941961 L81.8743809,99.9941961 L81.8743809,90.9040964 L72.7763083,90.9040964 L72.7763083,99.9941961 Z M54.5832653,99.9941961 L63.681338,99.9941961 L63.681338,90.9040964 L54.5832653,90.9040964 L54.5832653,99.9941961 Z M36.3881541,99.9941961 L45.4862268,99.9941961 L45.4862268,90.9040964 L36.3881541,90.9040964 L36.3881541,99.9941961 Z M18.193043,99.9941961 L27.2900815,99.9941961 L27.2900815,90.9040964 L18.193043,90.9040964 L18.193043,99.9941961 Z M0,99.9941961 L9.09600443,99.9941961 L9.09600443,90.9040964 L0,90.9040964 L0,99.9941961 Z M127.360608,118.175429 L136.45868,118.175429 L136.45868,109.085329 L127.360608,109.085329 L127.360608,118.175429 Z M109.167565,118.175429 L118.265637,118.175429 L118.265637,109.085329 L109.167565,109.085329 L109.167565,118.175429 Z M90.9724536,118.175429 L100.069492,118.175429 L100.069492,109.085329 L90.9724536,109.085329 L90.9724536,118.175429 Z M72.7763083,118.175429 L81.8743809,118.175429 L81.8743809,109.085329 L72.7763083,109.085329 L72.7763083,118.175429 Z M54.5832653,118.175429 L63.681338,118.175429 L63.681338,109.085329 L54.5832653,109.085329 L54.5832653,118.175429 Z M36.3881541,118.175429 L45.4862268,118.175429 L45.4862268,109.085329 L36.3881541,109.085329 L36.3881541,118.175429 Z M18.193043,118.175429 L27.2900815,118.175429 L27.2900815,109.085329 L18.193043,109.085329 L18.193043,118.175429 Z M0,118.175429 L9.09600443,118.175429 L9.09600443,109.085329 L0,109.085329 L0,118.175429 Z M127.360608,136.355628 L136.45868,136.355628 L136.45868,127.264495 L127.360608,127.264495 L127.360608,136.355628 Z M90.9724536,136.355628 L100.069492,136.355628 L100.069492,127.264495 L90.9724536,127.264495 L90.9724536,136.355628 Z M72.7763083,136.355628 L81.8743809,136.355628 L81.8743809,127.264495 L72.7763083,127.264495 L72.7763083,136.355628 Z M54.5832653,136.355628 L63.681338,136.355628 L63.681338,127.264495 L54.5832653,127.264495 L54.5832653,136.355628 Z M36.3881541,136.355628 L45.4862268,136.355628 L45.4862268,127.264495 L36.3881541,127.264495 L36.3881541,136.355628 Z M18.193043,136.355628 L27.2900815,136.355628 L27.2900815,127.264495 L18.193043,127.264495 L18.193043,136.355628 Z M0,136.355628 L9.09600443,136.355628 L9.09600443,127.264495 L0,127.264495 L0,136.355628 Z" id="Fill-1" fill="url(#linearGradient-5)" mask="url(#mask-7)"></path>
                    </g>
                    <g id="5" opacity="0.05" stroke-width="1" fill="none" transform="translate(595.541320, 238.505205)">
                        <mask id="mask-9" fill="white">
                            <use xlink:href="#path-8"></use>
                        </mask>
                        <g id="Clip-2"></g>
                        <path d="M127.360608,9.09009965 L136.45868,9.09009965 L136.45868,0 L127.360608,0 L127.360608,9.09009965 Z M109.167565,9.09009965 L118.265637,9.09009965 L118.265637,0 L109.167565,0 L109.167565,9.09009965 Z M90.9724536,9.09009965 L100.069492,9.09009965 L100.069492,0 L90.9724536,0 L90.9724536,9.09009965 Z M72.7763083,9.09009965 L81.8743809,9.09009965 L81.8743809,0 L72.7763083,0 L72.7763083,9.09009965 Z M54.5832653,9.09009965 L63.681338,9.09009965 L63.681338,0 L54.5832653,0 L54.5832653,9.09009965 Z M36.3881541,9.09009965 L45.4862268,9.09009965 L45.4862268,0 L36.3881541,0 L36.3881541,9.09009965 Z M18.193043,9.09009965 L27.2900815,9.09009965 L27.2900815,0 L18.193043,0 L18.193043,9.09009965 Z M0,9.09009965 L9.09600443,9.09009965 L9.09600443,0 L0,0 L0,9.09009965 Z M127.360608,27.2702989 L136.45868,27.2702989 L136.45868,18.1801993 L127.360608,18.1801993 L127.360608,27.2702989 Z M90.9724536,27.2702989 L100.069492,27.2702989 L100.069492,18.1801993 L90.9724536,18.1801993 L90.9724536,27.2702989 Z M54.5832653,27.2702989 L63.681338,27.2702989 L63.681338,18.1801993 L54.5832653,18.1801993 L54.5832653,27.2702989 Z M36.3881541,27.2702989 L45.4862268,27.2702989 L45.4862268,18.1801993 L36.3881541,18.1801993 L36.3881541,27.2702989 Z M0,27.2702989 L9.09600443,27.2702989 L9.09600443,18.1801993 L0,18.1801993 L0,27.2702989 Z M127.360608,45.4515316 L136.45868,45.4515316 L136.45868,36.3614319 L127.360608,36.3614319 L127.360608,45.4515316 Z M109.167565,45.4515316 L118.265637,45.4515316 L118.265637,36.3614319 L109.167565,36.3614319 L109.167565,45.4515316 Z M72.7763083,45.4515316 L100.069492,45.4515316 L100.069492,36.3614319 L72.7763083,36.3614319 L72.7763083,45.4515316 Z M54.5832653,45.4515316 L63.681338,45.4515316 L63.681338,36.3614319 L54.5832653,36.3614319 L54.5832653,45.4515316 Z M36.3881541,45.4515316 L45.4862268,45.4515316 L45.4862268,36.3614319 L36.3881541,36.3614319 L36.3881541,45.4515316 Z M0,45.4515316 L9.09600443,45.4515316 L9.09600443,36.3614319 L0,36.3614319 L0,45.4515316 Z M127.360608,63.6337975 L136.45868,63.6337975 L136.45868,54.5426645 L127.360608,54.5426645 L127.360608,63.6337975 Z M90.9724536,63.6337975 L100.069492,63.6337975 L100.069492,54.5426645 L90.9724536,54.5426645 L90.9724536,63.6337975 Z M54.5832653,63.6337975 L63.681338,63.6337975 L63.681338,54.5426645 L54.5832653,54.5426645 L54.5832653,63.6337975 Z M36.3881541,63.6337975 L45.4862268,63.6337975 L45.4862268,54.5426645 L36.3881541,54.5426645 L36.3881541,63.6337975 Z M0,63.6337975 L9.09600443,63.6337975 L9.09600443,54.5426645 L0,54.5426645 L0,63.6337975 Z M109.167565,81.8129635 L136.45868,81.8129635 L136.45868,72.7228638 L109.167565,72.7228638 L109.167565,81.8129635 Z M90.9724536,81.8129635 L100.069492,81.8129635 L100.069492,72.7228638 L90.9724536,72.7228638 L90.9724536,81.8129635 Z M72.7763083,81.8129635 L81.8743809,81.8129635 L81.8743809,72.7228638 L72.7763083,72.7228638 L72.7763083,81.8129635 Z M54.5832653,81.8129635 L63.681338,81.8129635 L63.681338,72.7228638 L54.5832653,72.7228638 L54.5832653,81.8129635 Z M36.3881541,81.8129635 L45.4862268,81.8129635 L45.4862268,72.7228638 L36.3881541,72.7228638 L36.3881541,81.8129635 Z M18.193043,81.8129635 L27.2900815,81.8129635 L27.2900815,72.7228638 L18.193043,72.7228638 L18.193043,81.8129635 Z M0,81.8129635 L9.09600443,81.8129635 L9.09600443,72.7228638 L0,72.7228638 L0,81.8129635 Z M127.360608,99.9941961 L136.45868,99.9941961 L136.45868,90.9040964 L127.360608,90.9040964 L127.360608,99.9941961 Z M109.167565,99.9941961 L118.265637,99.9941961 L118.265637,90.9040964 L109.167565,90.9040964 L109.167565,99.9941961 Z M90.9724536,99.9941961 L100.069492,99.9941961 L100.069492,90.9040964 L90.9724536,90.9040964 L90.9724536,99.9941961 Z M72.7763083,99.9941961 L81.8743809,99.9941961 L81.8743809,90.9040964 L72.7763083,90.9040964 L72.7763083,99.9941961 Z M54.5832653,99.9941961 L63.681338,99.9941961 L63.681338,90.9040964 L54.5832653,90.9040964 L54.5832653,99.9941961 Z M36.3881541,99.9941961 L45.4862268,99.9941961 L45.4862268,90.9040964 L36.3881541,90.9040964 L36.3881541,99.9941961 Z M18.193043,99.9941961 L27.2900815,99.9941961 L27.2900815,90.9040964 L18.193043,90.9040964 L18.193043,99.9941961 Z M0,99.9941961 L9.09600443,99.9941961 L9.09600443,90.9040964 L0,90.9040964 L0,99.9941961 Z M127.360608,118.175429 L136.45868,118.175429 L136.45868,109.085329 L127.360608,109.085329 L127.360608,118.175429 Z M109.167565,118.175429 L118.265637,118.175429 L118.265637,109.085329 L109.167565,109.085329 L109.167565,118.175429 Z M90.9724536,118.175429 L100.069492,118.175429 L100.069492,109.085329 L90.9724536,109.085329 L90.9724536,118.175429 Z M72.7763083,118.175429 L81.8743809,118.175429 L81.8743809,109.085329 L72.7763083,109.085329 L72.7763083,118.175429 Z M54.5832653,118.175429 L63.681338,118.175429 L63.681338,109.085329 L54.5832653,109.085329 L54.5832653,118.175429 Z M36.3881541,118.175429 L45.4862268,118.175429 L45.4862268,109.085329 L36.3881541,109.085329 L36.3881541,118.175429 Z M18.193043,118.175429 L27.2900815,118.175429 L27.2900815,109.085329 L18.193043,109.085329 L18.193043,118.175429 Z M0,118.175429 L9.09600443,118.175429 L9.09600443,109.085329 L0,109.085329 L0,118.175429 Z M127.360608,136.355628 L136.45868,136.355628 L136.45868,127.264495 L127.360608,127.264495 L127.360608,136.355628 Z M90.9724536,136.355628 L100.069492,136.355628 L100.069492,127.264495 L90.9724536,127.264495 L90.9724536,136.355628 Z M72.7763083,136.355628 L81.8743809,136.355628 L81.8743809,127.264495 L72.7763083,127.264495 L72.7763083,136.355628 Z M54.5832653,136.355628 L63.681338,136.355628 L63.681338,127.264495 L54.5832653,127.264495 L54.5832653,136.355628 Z M36.3881541,136.355628 L45.4862268,136.355628 L45.4862268,127.264495 L36.3881541,127.264495 L36.3881541,136.355628 Z M18.193043,136.355628 L27.2900815,136.355628 L27.2900815,127.264495 L18.193043,127.264495 L18.193043,136.355628 Z M0,136.355628 L9.09600443,136.355628 L9.09600443,127.264495 L0,127.264495 L0,136.355628 Z" id="Fill-1" fill="url(#linearGradient-5)" mask="url(#mask-9)"></path>
                    </g>
                    <g id="6" opacity="0.05" stroke-width="1" fill="none" transform="translate(663.770660, 162.830174) rotate(-90.000000) translate(-663.770660, -162.830174) translate(595.541320, 94.652360)">
                        <mask id="mask-11" fill="white">
                            <use xlink:href="#path-10"></use>
                        </mask>
                        <g id="Clip-2"></g>
                        <path d="M127.360608,9.09009965 L136.45868,9.09009965 L136.45868,-4.54747351e-13 L127.360608,-4.54747351e-13 L127.360608,9.09009965 Z M109.167565,9.09009965 L118.265637,9.09009965 L118.265637,-4.54747351e-13 L109.167565,-4.54747351e-13 L109.167565,9.09009965 Z M90.9724536,9.09009965 L100.069492,9.09009965 L100.069492,-4.54747351e-13 L90.9724536,-4.54747351e-13 L90.9724536,9.09009965 Z M72.7763083,9.09009965 L81.8743809,9.09009965 L81.8743809,-4.54747351e-13 L72.7763083,-4.54747351e-13 L72.7763083,9.09009965 Z M54.5832653,9.09009965 L63.681338,9.09009965 L63.681338,-4.54747351e-13 L54.5832653,-4.54747351e-13 L54.5832653,9.09009965 Z M36.3881541,9.09009965 L45.4862268,9.09009965 L45.4862268,-4.54747351e-13 L36.3881541,-4.54747351e-13 L36.3881541,9.09009965 Z M18.193043,9.09009965 L27.2900815,9.09009965 L27.2900815,-4.54747351e-13 L18.193043,-4.54747351e-13 L18.193043,9.09009965 Z M0,9.09009965 L9.09600443,9.09009965 L9.09600443,-4.54747351e-13 L0,-4.54747351e-13 L0,9.09009965 Z M127.360608,27.2702989 L136.45868,27.2702989 L136.45868,18.1801993 L127.360608,18.1801993 L127.360608,27.2702989 Z M90.9724536,27.2702989 L100.069492,27.2702989 L100.069492,18.1801993 L90.9724536,18.1801993 L90.9724536,27.2702989 Z M54.5832653,27.2702989 L63.681338,27.2702989 L63.681338,18.1801993 L54.5832653,18.1801993 L54.5832653,27.2702989 Z M36.3881541,27.2702989 L45.4862268,27.2702989 L45.4862268,18.1801993 L36.3881541,18.1801993 L36.3881541,27.2702989 Z M0,27.2702989 L9.09600443,27.2702989 L9.09600443,18.1801993 L0,18.1801993 L0,27.2702989 Z M127.360608,45.4515316 L136.45868,45.4515316 L136.45868,36.3614319 L127.360608,36.3614319 L127.360608,45.4515316 Z M109.167565,45.4515316 L118.265637,45.4515316 L118.265637,36.3614319 L109.167565,36.3614319 L109.167565,45.4515316 Z M72.7763083,45.4515316 L100.069492,45.4515316 L100.069492,36.3614319 L72.7763083,36.3614319 L72.7763083,45.4515316 Z M54.5832653,45.4515316 L63.681338,45.4515316 L63.681338,36.3614319 L54.5832653,36.3614319 L54.5832653,45.4515316 Z M36.3881541,45.4515316 L45.4862268,45.4515316 L45.4862268,36.3614319 L36.3881541,36.3614319 L36.3881541,45.4515316 Z M127.360608,63.6337975 L136.45868,63.6337975 L136.45868,54.5426645 L127.360608,54.5426645 L127.360608,63.6337975 Z M90.9724536,63.6337975 L100.069492,63.6337975 L100.069492,54.5426645 L90.9724536,54.5426645 L90.9724536,63.6337975 Z M54.5832653,63.6337975 L63.681338,63.6337975 L63.681338,54.5426645 L54.5832653,54.5426645 L54.5832653,63.6337975 Z M36.3881541,63.6337975 L45.4862268,63.6337975 L45.4862268,54.5426645 L36.3881541,54.5426645 L36.3881541,63.6337975 Z M109.167565,81.8129635 L136.45868,81.8129635 L136.45868,72.7228638 L109.167565,72.7228638 L109.167565,81.8129635 Z M90.9724536,81.8129635 L100.069492,81.8129635 L100.069492,72.7228638 L90.9724536,72.7228638 L90.9724536,81.8129635 Z M72.7763083,81.8129635 L81.8743809,81.8129635 L81.8743809,72.7228638 L72.7763083,72.7228638 L72.7763083,81.8129635 Z M54.5832653,81.8129635 L63.681338,81.8129635 L63.681338,72.7228638 L54.5832653,72.7228638 L54.5832653,81.8129635 Z M36.3881541,81.8129635 L45.4862268,81.8129635 L45.4862268,72.7228638 L36.3881541,72.7228638 L36.3881541,81.8129635 Z M18.193043,81.8129635 L27.2900815,81.8129635 L27.2900815,72.7228638 L18.193043,72.7228638 L18.193043,81.8129635 Z M0,81.8129635 L9.09600443,81.8129635 L9.09600443,72.7228638 L0,72.7228638 L0,81.8129635 Z M127.360608,99.9941961 L136.45868,99.9941961 L136.45868,90.9040964 L127.360608,90.9040964 L127.360608,99.9941961 Z M109.167565,99.9941961 L118.265637,99.9941961 L118.265637,90.9040964 L109.167565,90.9040964 L109.167565,99.9941961 Z M90.9724536,99.9941961 L100.069492,99.9941961 L100.069492,90.9040964 L90.9724536,90.9040964 L90.9724536,99.9941961 Z M72.7763083,99.9941961 L81.8743809,99.9941961 L81.8743809,90.9040964 L72.7763083,90.9040964 L72.7763083,99.9941961 Z M54.5832653,99.9941961 L63.681338,99.9941961 L63.681338,90.9040964 L54.5832653,90.9040964 L54.5832653,99.9941961 Z M36.3881541,99.9941961 L45.4862268,99.9941961 L45.4862268,90.9040964 L36.3881541,90.9040964 L36.3881541,99.9941961 Z M18.193043,99.9941961 L27.2900815,99.9941961 L27.2900815,90.9040964 L18.193043,90.9040964 L18.193043,99.9941961 Z M0,99.9941961 L9.09600443,99.9941961 L9.09600443,90.9040964 L0,90.9040964 L0,99.9941961 Z M127.360608,118.175429 L136.45868,118.175429 L136.45868,109.085329 L127.360608,109.085329 L127.360608,118.175429 Z M109.167565,118.175429 L118.265637,118.175429 L118.265637,109.085329 L109.167565,109.085329 L109.167565,118.175429 Z M90.9724536,118.175429 L100.069492,118.175429 L100.069492,109.085329 L90.9724536,109.085329 L90.9724536,118.175429 Z M72.7763083,118.175429 L81.8743809,118.175429 L81.8743809,109.085329 L72.7763083,109.085329 L72.7763083,118.175429 Z M54.5832653,118.175429 L63.681338,118.175429 L63.681338,109.085329 L54.5832653,109.085329 L54.5832653,118.175429 Z M36.3881541,118.175429 L45.4862268,118.175429 L45.4862268,109.085329 L36.3881541,109.085329 L36.3881541,118.175429 Z M18.193043,118.175429 L27.2900815,118.175429 L27.2900815,109.085329 L18.193043,109.085329 L18.193043,118.175429 Z M127.360608,136.355628 L136.45868,136.355628 L136.45868,127.264495 L127.360608,127.264495 L127.360608,136.355628 Z M90.9724536,136.355628 L100.069492,136.355628 L100.069492,127.264495 L90.9724536,127.264495 L90.9724536,136.355628 Z M72.7763083,136.355628 L81.8743809,136.355628 L81.8743809,127.264495 L72.7763083,127.264495 L72.7763083,136.355628 Z M54.5832653,136.355628 L63.681338,136.355628 L63.681338,127.264495 L54.5832653,127.264495 L54.5832653,136.355628 Z M36.3881541,136.355628 L45.4862268,136.355628 L45.4862268,127.264495 L36.3881541,127.264495 L36.3881541,136.355628 Z M18.193043,136.355628 L27.2900815,136.355628 L27.2900815,127.264495 L18.193043,127.264495 L18.193043,136.355628 Z M0,136.355628 L9.09600443,136.355628 L9.09600443,127.264495 L0,127.264495 L0,136.355628 Z" id="Fill-1" fill="url(#linearGradient-5)" mask="url(#mask-11)"></path>
                    </g>
                    <path d="M530.256392,252.09391 L530.256392,262.992989 L541.163708,262.992989 L541.163708,273.89113 L552.070086,273.89113 L552.070086,252.09391 L530.256392,252.09391 Z M497.534914,252.09391 L497.534914,262.992989 L497.534914,273.89113 L508.44176,273.89113 L508.44176,262.992989 L519.349076,262.992989 L519.349076,252.09391 L497.534914,252.09391 Z M541.163708,284.790209 L541.163708,295.689288 L530.256392,295.689288 L530.256392,306.587898 L541.163708,306.587898 L552.070086,306.587898 L552.070086,284.790209 L541.163708,284.790209 Z M497.534914,284.790209 L497.534914,295.689288 L497.534914,306.587898 L508.44176,306.587898 L519.349076,306.587898 L519.349076,295.689288 L508.44176,295.689288 L508.44176,284.790209 L497.534914,284.790209 Z" id="4" fill-opacity="0.03" fill="#FEFEFE"></path>
                    <path d="M233.423593,320.506012 L233.423593,331.405091 L244.330908,331.405091 L244.330908,342.303232 L255.237286,342.303232 L255.237286,320.506012 L233.423593,320.506012 Z M200.702114,320.506012 L200.702114,331.405091 L200.702114,342.303232 L211.608961,342.303232 L211.608961,331.405091 L222.516277,331.405091 L222.516277,320.506012 L200.702114,320.506012 Z M244.330908,353.202311 L244.330908,364.10139 L233.423593,364.10139 L233.423593,375 L244.330908,375 L255.237286,375 L255.237286,353.202311 L244.330908,353.202311 Z M200.702114,353.202311 L200.702114,364.10139 L200.702114,375 L211.608961,375 L222.516277,375 L222.516277,364.10139 L211.608961,364.10139 L211.608961,353.202311 L200.702114,353.202311 Z" id="3" fill-opacity="0.03" fill="#FEFEFE"></path>
                    <path d="M452.413983,72.6292864 L452.413983,83.5283651 L463.321299,83.5283651 L463.321299,94.4265067 L474.227677,94.4265067 L474.227677,72.6292864 L452.413983,72.6292864 Z M419.692505,72.6292864 L419.692505,83.5283651 L419.692505,94.4265067 L430.599352,94.4265067 L430.599352,83.5283651 L441.506668,83.5283651 L441.506668,72.6292864 L419.692505,72.6292864 Z M463.321299,105.325585 L463.321299,116.224664 L452.413983,116.224664 L452.413983,127.123274 L463.321299,127.123274 L474.227677,127.123274 L474.227677,105.325585 L463.321299,105.325585 Z M419.692505,105.325585 L419.692505,116.224664 L419.692505,127.123274 L430.599352,127.123274 L441.506668,127.123274 L441.506668,116.224664 L430.599352,116.224664 L430.599352,105.325585 L419.692505,105.325585 Z" id="Fill-1-Copy" fill-opacity="0.03" fill="#FEFEFE"></path>
                </g>
            </g>
        </g>
    </g>
</svg>