<?xml version="1.0" encoding="UTF-8"?>
<svg width="72px" height="69px" viewBox="0 0 72 69" version="1.1" xmlns="http://www.w3.org/2000/svg" xmlns:xlink="http://www.w3.org/1999/xlink">
    <title>card/data list 2@3x</title>
    <defs>
        <polygon id="path-1" points="0 0 45.9715634 0 45.9715634 39 0 39"></polygon>
    </defs>
    <g id="Web" stroke="none" stroke-width="1" fill="none" fill-rule="evenodd">
        <g id="01-01-Landing" transform="translate(-734.000000, -3482.000000)">
            <g id="card/data-list" transform="translate(734.000000, 3482.000000)">
                <g id="icons/red" fill="#E85453">
                    <polygon id="icons/ref" points="0 0 0 15 7.50016122 15 7.50016122 7.50016122 15 7.50016122 15 0"></polygon>
                </g>
                <g id="Group" transform="translate(57.000000, 54.000000)" fill="#E85453">
                    <g id="icons/red-copy" transform="translate(7.500000, 7.500000) rotate(-180.000000) translate(-7.500000, -7.500000) ">
                        <polygon id="icons/ref" points="0 0 0 15 7.50016122 15 7.50016122 7.50016122 15 7.50016122 15 0"></polygon>
                    </g>
                </g>
                <g id="Group" transform="translate(13.000000, 11.000000)">
                    <g id="Group-18" transform="translate(0.000000, 3.000000)">
                        <g id="Group-3">
                            <mask id="mask-2" fill="white">
                                <use xlink:href="#path-1"></use>
                            </mask>
                            <g id="Clip-2"></g>
                            <path d="M23.0084435,31.7248167 C23.0085958,31.7330407 23.0085958,31.7412648 23.0085958,31.7496411 C23.2866908,31.7496411 23.5647857,31.7510118 23.8428807,31.7493365 C24.9538898,31.7430923 26.0650513,31.7296902 27.1762127,31.730604 C28.3508822,31.7313654 29.5253993,31.7520779 30.6999164,31.7517733 C31.8491522,31.7514687 32.9982357,31.7286241 34.1473192,31.7287764 C35.2586329,31.729081 36.3696421,31.7438538 37.4808035,31.7574083 C37.7033099,31.7599973 37.7887487,31.6683143 37.8097658,31.4444372 C37.8479924,31.032016 37.5956357,31.0373464 37.3065753,31.0374987 C31.5798905,31.0396309 25.8535103,31.0374987 20.1269777,31.0373464 C16.3134522,31.0371941 12.4999266,31.0385648 8.68655332,31.0405447 C8.26682183,31.0408493 8.11559056,31.216905 8.24504331,31.5530253 C8.35119456,31.8277697 8.59822085,31.7519256 8.8019947,31.7511641 C9.92579683,31.7473567 11.049599,31.7283195 12.1732488,31.7287764 C13.3731996,31.7292333 14.5731504,31.7529917 15.7729489,31.7528394 C16.896751,31.7526871 18.0205531,31.7302994 19.1445075,31.726035 C20.4324862,31.7210092 21.7204649,31.7248167 23.0084435,31.7248167 M23.0084435,33.6745273 L10.4262459,33.6745273 C7.79074032,33.6745273 5.15508244,33.6742227 2.51972915,33.6746796 C1.91998219,33.6748319 1.9198299,33.6757457 1.91822397,34.2904178 C1.91822397,34.5945556 1.91822397,34.8985411 1.91876381,35.2026789 C1.92318044,36.4542585 2.5395278,37.0789822 3.78151266,37.0791345 C14.2347457,37.0808098 24.6878264,37.0811143 35.1410594,37.0814189 C37.5359351,37.0815712 39.9305063,37.0837034 42.3253821,37.0779161 C43.3955756,37.0754793 44.0565461,36.4236467 44.0856348,35.3546716 C44.0955342,34.9874827 44.0889854,34.6198369 44.087767,34.2524957 C44.0857871,33.6752888 44.085178,33.6746796 43.4973102,33.6745273 C36.667688,33.674375 29.8380657,33.6745273 23.0084435,33.6745273 M23.0689056,29.1153539 C28.8345785,29.1153539 34.6000992,29.1158108 40.3657721,29.1150493 C41.470994,29.114897 41.9157022,28.6712549 41.9157022,27.5760846 L41.9157022,3.47716165 C41.9157022,2.41945657 41.4198221,1.90362546 40.3633354,1.90332086 C28.8321418,1.90027492 17.3007959,1.90057951 5.76975453,1.90286397 C4.76779028,1.90316857 4.21464632,2.46499348 4.21464632,3.45781988 C4.21434172,11.4654621 4.22485024,19.4731043 4.20169008,27.4805942 C4.19880739,28.4598661 4.76855177,29.1385031 5.84818766,29.1320013 C11.5882747,29.0969259 17.3286663,29.1155062 23.0689056,29.1153539 M22.968237,39.000046 C16.6195698,39.000046 10.2707503,39.0005178 3.92208312,38.9988425 C3.11460258,38.9986902 2.33499246,38.8974125 1.6382321,38.4262045 C0.633831098,37.7471106 0.0831238919,36.8049993 0.0231187373,35.606876 C-0.0216566827,34.7095401 0.0120010309,33.8080921 0.0136763018,32.9083193 C0.0150469779,32.097336 0.428838869,31.7202477 1.2536813,31.7301471 C2.75700841,31.7481182 4.26033552,31.7526871 5.76381493,31.7523825 C6.02074056,31.7522302 6.32350768,31.7796437 6.30599349,31.3573232 C6.29685565,31.1352736 6.22740806,31.0312545 5.99469771,31.0379556 C5.62750881,31.0483118 5.26169058,31.0362804 4.89724303,30.9683557 C3.56890557,30.7211771 2.46764345,29.5076719 2.34321652,28.1624294 C2.30788354,27.7830567 2.29600434,27.4047501 2.29615664,27.0247682 C2.29661353,19.2449629 2.2982888,11.4650052 2.29402448,3.68519982 C2.29356758,2.74537289 2.47937035,1.87194761 3.10424636,1.13878818 C3.81273362,0.307244668 4.74296582,-0.000548270449 5.80996103,-9.18862291e-05 C12.2982849,0.00356375792 18.7863042,0.00158389241 25.2744757,0.00158389241 C30.318107,0.00158389241 35.3615859,0.00371605526 40.4052172,0.000365513633 C41.538614,-0.000548270449 42.4799639,0.386134693 43.1840346,1.29961418 C43.7309343,2.00931982 43.881861,2.83568522 43.8826225,3.69677442 C43.8882575,9.34791977 43.8853638,14.9992174 43.8853638,20.6502105 C43.8853638,22.8930935 43.8862776,25.1356719 43.8846023,27.378555 C43.8841455,28.0846055 43.7741868,28.7764923 43.4232937,29.392992 C42.842127,30.4139934 41.9434204,30.9599794 40.7667711,31.0321683 C40.5518795,31.0454182 40.335465,31.0466366 40.1205734,31.0364326 C39.8602973,31.0242489 39.7183561,31.1028343 39.7151579,31.3964636 C39.7122642,31.6724264 39.8307516,31.7368481 40.0835652,31.7342591 C41.0308547,31.7240552 41.9784488,31.7278626 42.9258905,31.7342591 C43.6464093,31.7391326 44.3676895,31.7379142 45.0869899,31.7737041 C45.6186599,31.8002038 45.9486883,32.1549044 45.9553894,32.6946462 C45.9684869,33.746107 45.9878287,34.7990909 45.9471653,35.8491811 C45.8908153,37.3059052 44.45191,38.7909567 42.9997548,38.9359437 C42.5972329,38.9758456 42.1910559,38.997015 41.7865541,38.9971673 C35.513731,39.0009747 29.2410601,39.000046 22.968237,39.000046" id="Fill-1" fill="#231F20" mask="url(#mask-2)"></path>
                        </g>
                        <path d="M22.9629371,3.62901733 C28.1454635,3.62901733 33.3279899,3.62825584 38.5105163,3.62993111 C39.3169308,3.63023571 39.634623,3.95006014 39.6486344,4.75662689 C39.6493959,4.80718961 39.6498528,4.85790462 39.6498528,4.90861964 C39.6493959,9.41890557 39.648939,13.9290392 39.648939,18.4393251 C39.6487867,20.9857368 39.6498528,23.5323007 39.6492436,26.0788646 C39.6490913,26.2559865 39.6535079,26.4353927 39.6286834,26.6097732 C39.5606065,27.0852455 39.3566804,27.3033353 38.8862339,27.3992826 C38.7141379,27.434311 38.5342747,27.4436012 38.3579144,27.4436012 C28.1070846,27.445581 17.8562547,27.4453217 7.60527261,27.4453217 C7.50399488,27.4453217 7.40226025,27.4469517 7.30128711,27.4394891 C6.5212201,27.3828345 6.23246433,27.0905759 6.23155054,26.3117273 C6.22682933,22.9924066 6.2280477,19.6730859 6.23155054,16.3537653 C6.23231203,15.7049786 6.60757269,15.293928 7.17396653,15.2948418 C7.74706144,15.2959079 8.14927874,15.7229496 8.1514109,16.3735639 C8.15856887,18.5527867 8.15445685,20.7320094 8.15460914,22.9112321 C8.15476144,23.6587075 8.16207171,24.4061829 8.15171549,25.1536583 C8.14775576,25.4325147 8.25588688,25.554048 8.53322035,25.5287666 C8.60860753,25.5219132 8.6850608,25.5283097 8.76120948,25.5283097 C18.2136966,25.5283097 27.6664883,25.5283097 37.1189755,25.5281574 C37.7254235,25.5281574 37.7263373,25.5277005 37.7263373,24.926126 C37.7263373,18.6673143 37.7263373,12.4085025 37.7263373,6.14969072 C37.7263373,5.5540558 37.7252712,5.55161904 37.1476074,5.55161904 C27.6568936,5.55131444 18.1663321,5.55146674 8.67561837,5.55222823 C8.16039644,5.55222823 8.15552293,5.55847242 8.15506603,6.09273151 C8.15369536,7.16962605 8.15948266,8.24667289 8.15171549,9.32341513 C8.14806036,9.86407071 7.82854052,10.2641558 7.36677497,10.3431982 C6.74113747,10.4504155 6.25028312,10.0474367 6.23459649,9.38433407 C6.21784378,8.67523762 6.22926608,7.96553199 6.22896149,7.25597865 C6.22865689,6.47042893 6.22637243,5.68503151 6.22972298,4.8994818 C6.23368271,3.90924445 6.51208226,3.62962652 7.49150649,3.62916963 C9.8103859,3.62825584 12.129113,3.62866611 14.4479924,3.62866611 C17.2863581,3.62866611 20.1245714,3.62866611 22.9629371,3.62901733" id="Fill-4" fill="#231F20"></path>
                        <path d="M23.0886128,22.4299268 C25.5212584,22.4299268 27.9537516,22.4242918 30.3862448,22.4360416 C30.7452097,22.4378463 30.8815158,22.3307812 30.8690274,21.9597849 C30.845269,21.2512977 30.8512086,20.5411351 30.8668952,19.8318864 C30.8742055,19.5088637 30.7639422,19.3771265 30.4307156,19.3775834 C25.5275026,19.3833707 20.6242895,19.3832184 15.7210764,19.3774297 C15.4100852,19.3769742 15.2920548,19.4886082 15.2989081,19.8008177 C15.3133764,20.4719921 15.3022587,21.1436234 15.3031725,21.8149501 C15.303934,22.4296222 15.3048477,22.4299268 15.9048993,22.4299268 C18.2994705,22.4300791 20.6938894,22.4299268 23.0886128,22.4299268 M23.0573919,24.350701 C20.561543,24.350701 18.065694,24.3519193 15.5698451,24.3502441 C14.1904881,24.3494826 13.3816368,23.5386515 13.3784386,22.1556393 C13.3764587,21.2563235 13.3720421,20.3568553 13.3830075,19.4573872 C13.3964097,18.371964 14.2922227,17.4788924 15.3817579,17.4778263 C20.5003194,17.4729528 25.6187287,17.4728005 30.7374425,17.4775217 C31.8636814,17.4787401 32.7384773,18.3425706 32.7773132,19.5132803 C32.8079249,20.4369637 32.8114278,21.3635408 32.7773132,22.2870719 C32.7340607,23.4609799 31.8655089,24.3797898 30.620935,24.3616664 C28.1002616,24.3249627 25.5786745,24.350701 23.0573919,24.350701" id="Fill-6" fill="#231F20"></path>
                        <path d="M23.0573767,10.8490843 C23.1205801,10.8490843 23.1836312,10.8493889 23.2468346,10.8490843 C23.9655257,10.8449722 24.1105128,10.6357157 23.8761272,9.94169667 C23.8721675,9.92981748 23.8695784,9.9173291 23.8651618,9.9056022 C23.7255051,9.54161154 23.2401335,9.28514281 22.8762951,9.3829177 C22.3721909,9.51846234 22.1344547,9.94093518 22.2383215,10.5909403 C22.3130995,11.0592546 22.7057221,10.7674529 22.944372,10.8481705 C22.978182,10.8595928 23.0194546,10.8498458 23.0573767,10.8490843 M23.1038273,12.7666602 C22.6359699,12.7666602 22.168417,12.7642234 21.7007119,12.7672693 C21.2686443,12.7700107 21.2223459,12.8225533 21.2511301,13.2520318 C21.3160088,14.2265825 22.1688739,14.9385726 23.2113493,14.8884668 C24.1514808,14.8433868 24.9472344,13.9842774 24.9274358,13.0532838 C24.9221054,12.7994041 24.7794028,12.7663556 24.5826346,12.7669648 C24.0896481,12.7683354 23.5966616,12.7674216 23.1038273,12.7666602 M26.7977995,12.7425972 C26.8673994,13.4215387 26.7388604,14.167948 26.3501976,14.8700388 C25.3100067,16.7492358 23.0308769,17.2979631 21.339158,16.3849405 C20.0050332,15.6648787 19.3847261,14.5285882 19.3268531,13.0496286 C19.3114711,12.657463 19.3192383,12.2640789 19.3283761,11.8716087 C19.3391892,11.3932427 19.55469,11.0265107 20.0207199,10.8920321 C20.3128262,10.8076594 20.3126739,10.630233 20.3099325,10.4071174 C20.2988148,9.50064355 20.5830017,8.72773452 21.2803712,8.10925499 C22.2381692,7.25989269 23.7451515,7.20978686 24.7411761,8.01467834 C25.4927635,8.62204016 25.8695472,9.39525379 25.8148724,10.3655402 C25.7993381,10.6413507 25.826447,10.8253259 26.1712482,10.9063481 C26.5550375,10.9965081 26.7805899,11.3049102 26.795515,11.7199205 C26.8064804,12.0234491 26.7977995,12.3277392 26.7977995,12.7425972" id="Fill-8" fill="#231F20"></path>
                        <path d="M7.17947969,13.7980725 C6.62435586,13.8001956 6.237216,13.4247827 6.23614649,12.8829087 C6.23477925,12.355503 6.64384992,11.932421 7.15922414,11.9280044 C7.67947188,11.9234354 8.14078054,12.3704282 8.14123808,12.8794059 C8.14184662,13.3818348 7.70810378,13.7959313 7.17947969,13.7980725" id="Fill-10" fill="#231F20"></path>
                        <path d="M35.2954432,34.4266173 C36.0295164,34.4266173 36.7641988,34.4119967 37.4976628,34.4307293 C38.2274717,34.4491573 38.66091,35.0458583 38.4210416,35.6967772 C38.2710287,36.103868 37.9314057,36.3286588 37.5131972,36.333837 C36.0325623,36.3522649 34.5513183,36.3580522 33.0711404,36.3315525 C32.4499196,36.3204348 32.0556217,35.8627813 32.0859289,35.3046115 C32.1139516,34.7878666 32.5297234,34.4319477 33.1311456,34.426465 C33.8524258,34.4199162 34.5740107,34.4247897 35.2954432,34.4247897 L35.2954432,34.4266173 Z" id="Fill-12" fill="#231F20"></path>
                        <path d="M41.0171631,34.4312167 C41.5357356,34.4217742 41.9775502,34.8393736 41.9844036,35.3456099 C41.9911047,35.8408809 41.511368,36.3359996 41.02889,36.3317353 C40.5324007,36.3271663 40.0965257,35.8897684 40.079773,35.3791153 C40.0636294,34.8870426 40.5052917,34.4405068 41.0171631,34.4312167" id="Fill-14" fill="#231F20"></path>
                        <path d="M17.9418763,22.2178375 C17.6252501,22.2178375 17.3084716,22.2253001 16.99215,22.2163146 C16.4108311,22.1998664 16.0349612,21.8112036 16.0472973,21.2512063 C16.0588719,20.7142058 16.4370262,20.3547841 17.0102734,20.3491491 C17.6180921,20.3432095 18.2260632,20.3418388 18.8337296,20.3483876 C19.4592148,20.355241 19.8494006,20.7239529 19.8433087,21.2873007 C19.8373691,21.8322207 19.4241864,22.2091566 18.8156062,22.2192082 C18.5244137,22.2240817 18.2330688,22.220122 17.9418763,22.220122 L17.9418763,22.2178375 Z" id="Fill-16" fill="#231F20"></path>
                    </g>
                </g>
            </g>
        </g>
    </g>
</svg>