<?xml version="1.0" encoding="UTF-8"?>
<svg width="40px" height="40px" viewBox="0 0 40 40" version="1.1" xmlns="http://www.w3.org/2000/svg" xmlns:xlink="http://www.w3.org/1999/xlink">
    <title>iccons/profile copy@3x</title>
    <g id="Web" stroke="none" stroke-width="1" fill="none" fill-rule="evenodd">
        <g id="01-01-Landing" transform="translate(-614.000000, -2118.000000)">
            <g id="card-2" transform="translate(434.000000, 1918.000000)">
                <g id="Group" transform="translate(180.000000, 200.000000)">
                    <circle id="profiile" fill="#E85453" cx="20" cy="20" r="20"></circle>
                    <g id="Group-9" transform="translate(10.000000, 9.000000)" fill="#FFFFFF" fill-rule="nonzero">
                        <ellipse id="Oval" cx="10" cy="6" rx="4.99209162" ry="6"></ellipse>
                        <path d="M19.7844996,17.1 C18.8859231,15.3 17.1886119,13.8 14.9920916,12.9 C14.3930406,12.7 13.6941478,12.7 13.1949386,13 C12.1965203,13.6 11.198102,13.9 10,13.9 C8.80189801,13.9 7.80347969,13.6 6.80506136,13 C6.3058522,12.8 5.60695937,12.7 5.00790838,13 C2.81138807,13.9 1.11407692,15.4 0.215500426,17.2 C-0.483392401,18.5 0.614867756,20 2.11249524,20 L17.8875048,20 C19.3851322,20 20.4833924,18.5 19.7844996,17.1 Z" id="Path"></path>
                    </g>
                </g>
            </g>
        </g>
    </g>
</svg>