<?xml version="1.0" encoding="UTF-8"?>
<svg width="72px" height="69px" viewBox="0 0 72 69" version="1.1" xmlns="http://www.w3.org/2000/svg" xmlns:xlink="http://www.w3.org/1999/xlink">
    <title>card/data list 3@3x</title>
    <defs>
        <polygon id="path-1" points="0 0 36.3309603 0 36.3309603 44 0 44"></polygon>
    </defs>
    <g id="Web" stroke="none" stroke-width="1" fill="none" fill-rule="evenodd">
        <g id="01-01-Landing" transform="translate(-134.000000, -3653.000000)">
            <g id="card/data-list" transform="translate(134.000000, 3653.000000)">
                <g id="icons/red" fill="#E85453">
                    <polygon id="icons/ref" points="0 0 0 15 7.50016122 15 7.50016122 7.50016122 15 7.50016122 15 0"></polygon>
                </g>
                <g id="Group" transform="translate(57.000000, 54.000000)" fill="#E85453">
                    <g id="icons/red-copy" transform="translate(7.500000, 7.500000) rotate(-180.000000) translate(-7.500000, -7.500000) ">
                        <polygon id="icons/ref" points="0 0 0 15 7.50016122 15 7.50016122 7.50016122 15 7.50016122 15 0"></polygon>
                    </g>
                </g>
                <g id="Group" transform="translate(13.000000, 11.000000)">
                    <g id="Group-22" transform="translate(5.000000, 1.000000)">
                        <g id="Group-3">
                            <mask id="mask-2" fill="white">
                                <use xlink:href="#path-1"></use>
                            </mask>
                            <g id="Clip-2"></g>
                            <path d="M18.7880933,40.7175511 L18.794132,40.7175511 C18.794132,40.3486608 18.780101,39.9788826 18.7992826,39.611058 C18.8115375,39.3799909 18.7374752,39.2876352 18.5053426,39.2897665 C17.7673845,39.2961603 17.0294264,39.2952723 16.2912907,39.2913649 C16.0495672,39.2901217 15.9417466,39.4005934 15.9424701,39.6394751 C15.944779,40.3626918 15.945667,41.0859085 15.9417466,41.8091252 C15.9403388,42.0673661 16.0545402,42.186363 16.3154453,42.1847645 C17.0384844,42.1805019 17.7618787,42.1803243 18.4850954,42.1865406 C18.7118998,42.1884943 18.7998154,42.098625 18.7918231,41.8686236 C18.7781473,41.4853472 18.7880933,41.1013603 18.7880933,40.7175511 M31.3397747,5.30764 C31.84116,5.30764 32.3425452,5.30479829 32.8441081,5.30888325 C33.078372,5.31083693 33.2019867,5.21865877 33.1980793,4.97000864 C33.1904422,4.4835424 33.2206354,3.99458966 33.1835155,3.51060993 C33.1076772,2.52471212 32.2910391,1.8373721 31.2770794,1.8693414 C30.2796371,1.90060028 29.5459416,2.61884396 29.5162812,3.60545219 C29.5034934,4.03277522 29.5216094,4.46116389 29.5089993,4.88848691 C29.5002965,5.1873999 29.6178725,5.32007251 29.9240674,5.31208018 C30.3956146,5.29982528 30.8678723,5.30888325 31.3397747,5.30764 M31.3339137,7.18015316 C30.4339778,7.18015316 29.5342195,7.18672462 28.6344612,7.17606819 C28.3570387,7.17287126 28.2462118,7.25084084 28.2486574,7.55330597 C28.2627292,9.29403455 28.2630845,11.0351183 28.2520728,12.7758469 C28.2495863,13.1445596 28.3589924,13.3095567 28.7554117,13.306578 C30.4959627,13.2925064 32.2366913,13.2942825 33.9772423,13.3054717 C34.3404491,13.3077806 34.4709904,13.1738648 34.4685039,12.8117236 C34.4569594,11.1004778 34.4546505,9.38905443 34.4699783,7.67780865 C34.4732993,7.28209971 34.3173601,7.16683261 33.9449177,7.17446972 C33.0748199,7.19205284 32.2041892,7.17997555 31.3339137,7.18015316 M17.4064866,16.3896215 C21.1570187,16.3896215 24.9075508,16.3897991 28.6579054,16.3894439 C28.805497,16.3894439 28.9532662,16.3878454 29.1006802,16.3832276 C29.2280246,16.3793203 29.3212684,16.334208 29.3685119,16.1985161 C29.5786213,15.5960723 29.3392067,15.2463637 28.7079906,15.2463637 C21.1772659,15.2461861 13.6467189,15.2461861 6.11599419,15.2465413 C5.96840257,15.2467189 5.82081095,15.2490278 5.67339694,15.2568425 C5.56363566,15.2625259 5.48211394,15.3113679 5.43327195,15.4200635 C5.19652149,15.9464914 5.46257714,16.3890887 6.02203996,16.3892663 C9.81679629,16.3899767 13.6115526,16.3896215 17.4064866,16.3896215 M17.4109268,26.4002761 C21.174957,26.4002761 24.9391649,26.4002761 28.7031952,26.4000985 C28.8358678,26.4000985 28.968718,26.3985 29.1015683,26.394415 C29.2283798,26.3908629 29.3219788,26.3491252 29.3692224,26.2116572 C29.589633,25.5717383 29.3365426,25.1936125 28.6786854,25.1936125 C21.1651886,25.1934349 13.6518695,25.1934349 6.1383727,25.1939677 C5.99095869,25.1939677 5.84318946,25.196099 5.69595306,25.2037361 C5.58796786,25.2094195 5.5007627,25.25169 5.44517163,25.3559455 C5.17361016,25.8678096 5.46950383,26.3999209 6.03020989,26.3999209 C9.82372298,26.4004537 13.6174137,26.4002761 17.4109268,26.4002761 M14.5713422,8.25130243 C10.790972,8.25130243 7.01042426,8.25076961 3.23023172,8.25183526 C2.66863762,8.25201286 2.64501585,8.27421377 2.64412782,8.81467261 C2.64146371,10.1142248 2.64164132,11.4139546 2.64395021,12.7135068 C2.64483825,13.2676414 2.67432105,13.2997883 3.21300381,13.2999659 C10.7588251,13.3012092 18.304824,13.2987226 25.8508229,13.3068934 C26.2484855,13.3072478 26.397498,13.1894942 26.3908011,12.7751365 C26.3689032,11.4759395 26.3832894,10.1762097 26.3824014,8.87647993 C26.3820462,8.2529009 26.3806253,8.25165765 25.7352006,8.25148004 C22.0139736,8.25094722 18.2925691,8.25130243 14.5713422,8.25130243 M17.4040001,18.2683509 C12.6782266,18.2683509 7.95227546,18.2678181 3.22650196,18.2688837 C2.66668394,18.2690613 2.64501585,18.2901966 2.64412782,18.8365165 C2.64164132,20.1508101 2.65513947,21.4656365 2.63631716,22.7797525 C2.63045206,23.1900252 2.78141822,23.3125742 3.18032408,23.3122198 C12.6615315,23.3042266 22.1429165,23.3042266 31.6239463,23.3122198 C32.0216089,23.3125742 32.1732855,23.1941101 32.1670849,22.7817061 C32.1469996,21.4968953 32.1603202,20.2119069 32.1594321,18.9269185 C32.1590769,18.2699494 32.1578337,18.2685285 31.4928722,18.2685285 C26.7965815,18.2682177 22.1001132,18.2683509 17.4040001,18.2683509 M17.3572894,33.3872118 C22.0812868,33.3872118 26.8054618,33.387345 31.5294593,33.3869898 C32.1580113,33.3868122 32.1590769,33.3853913 32.1594321,32.7444068 C32.1602805,31.4599512 32.160853,30.1754956 32.1592545,28.89104 C32.1585441,28.2878859 32.1523279,28.2816696 31.532301,28.2816696 C27.8712829,28.2809592 24.2099096,28.2813144 20.5488915,28.2813144 C14.8208803,28.2813144 9.09304678,28.2813144 3.36503561,28.2813144 C2.64395021,28.2813144 2.64341739,28.2822024 2.64323978,29.0212262 C2.64286004,30.2612799 2.64252935,31.5013337 2.64341739,32.7415651 C2.64395021,33.3852137 2.64501585,33.3868122 3.27356788,33.3868122 C7.96826012,33.387345 12.6627747,33.3872118 17.3572894,33.3872118 M13.8554074,6.37878928 C17.8284814,6.37878928 21.8015554,6.37523714 25.7746294,6.38465032 C26.1392571,6.38553836 26.3836446,6.34166937 26.4793749,5.91772088 C26.560719,5.55717818 26.8733078,5.36411911 27.2386459,5.33428109 C27.5730803,5.30710718 27.6432352,5.13163123 27.6439456,4.83555995 C27.6451889,4.26064531 27.6036288,3.68466502 27.69261,3.11063842 C27.9821098,1.24682802 29.704012,-0.131404182 31.5765252,0.009971183 C33.5204364,0.156674765 35.0029241,1.71056053 35.0237041,3.62569942 C35.0281443,4.05391048 35.0316965,4.48247676 35.0235265,4.91068782 C35.0189087,5.15241127 35.0840906,5.27975567 35.3583162,5.32131576 C36.0699884,5.42930096 36.32521,5.73371978 36.3268085,6.45302911 C36.3323143,8.99370071 36.3323143,11.5343723 36.3269861,14.0750439 C36.32521,14.8675274 35.9586287,15.2326879 35.1471412,15.2419235 C34.0100996,15.2547112 32.8723476,15.263414 31.7354837,15.2378385 C31.2859597,15.2275373 31.1934264,15.4149129 31.1946696,15.8163053 C31.1955576,16.2114814 31.2719288,16.4331353 31.7298002,16.3963706 C32.126042,16.3644013 32.5269015,16.3828724 32.9256298,16.3926408 C33.6170548,16.4095135 34.0122309,16.7791142 34.0154278,17.4616588 C34.0264395,19.6771315 34.0266171,21.8929595 34.015783,24.1084322 C34.0124085,24.8353787 33.6401437,25.1799367 32.905205,25.1916588 C32.4917353,25.1984079 32.0775552,25.2067554 31.664796,25.1904155 C31.3159753,25.1765622 31.1742448,25.3278836 31.2051484,25.6655149 C31.2104766,25.7239477 31.2120751,25.7843342 31.2042604,25.8424117 C31.1499126,26.2546381 31.3005235,26.4420138 31.7420551,26.4068476 C32.1382969,26.3752335 32.5391564,26.3931718 32.9377071,26.4032954 C33.6293097,26.4208785 34.0125861,26.7867494 34.015783,27.4820818 C34.0264395,29.6975545 34.0273275,31.9133825 34.0154278,34.1288552 C34.0115205,34.8854621 33.6330394,35.211549 32.8164013,35.2119042 C28.2082038,35.2138579 23.6001839,35.2127922 18.9918088,35.2131474 C18.2783605,35.2131474 18.2781829,35.2138579 18.2774725,35.9091902 C18.2772949,36.2786133 18.2906154,36.6483916 18.274098,37.0169266 C18.2597118,37.3362644 18.3760445,37.48208 18.7078148,37.4644968 C19.017029,37.4479794 19.3280193,37.4573926 19.6381216,37.4634312 C20.2792837,37.4760413 20.6179807,37.7978656 20.6519037,38.4404486 C20.6684212,38.7496628 20.6691316,39.0611859 20.6554559,39.3705778 C20.6419577,39.6737533 20.7639739,39.7993216 21.0699912,39.7909741 C21.5422488,39.7778312 22.0150393,39.78831 22.4876522,39.78831 C26.1211411,39.7884876 29.7544525,39.78831 33.3879414,39.7888428 C33.6236262,39.7888428 33.8607319,39.7760551 34.0898453,39.8554455 C34.480226,39.990427 34.7670617,40.3767228 34.7318954,40.7679915 C34.6940651,41.1882103 34.4736545,41.4810846 34.0585864,41.6100275 C33.8280522,41.6817808 33.5911241,41.6689931 33.3552617,41.6689931 C29.3376083,41.6695259 25.3203101,41.6691707 21.3028343,41.6695259 C20.659896,41.6697035 20.6604289,41.6711244 20.6577647,42.2975451 C20.6566991,42.5634232 20.6693092,42.8303668 20.6472859,43.094824 C20.5991544,43.672758 20.2732451,43.9899645 19.7004617,43.9931615 C18.1495953,44.0022194 16.5987288,44.0022194 15.0478624,43.9935167 C14.4345846,43.9901421 14.0987293,43.649669 14.0696017,43.0294646 C14.0550379,42.7197175 14.0502425,42.408372 14.0674704,42.0991578 C14.085764,41.7650786 13.9363963,41.6425296 13.619545,41.6682827 C13.4875828,41.6789391 13.3538445,41.6693483 13.2209943,41.6693483 C9.2774031,41.6693483 5.3339895,41.6700587 1.3903983,41.6675722 C1.17016532,41.6673946 0.944604117,41.6638425 0.730587391,41.6190854 C0.29846897,41.5286834 -0.00133205432,41.148071 -9.26558844e-05,40.7353118 C0.00133205432,40.3328538 0.313743193,39.925778 0.723838315,39.8382176 C0.937322221,39.7925726 1.16323863,39.7902637 1.38347161,39.7900861 C5.40076982,39.7875996 9.41824564,39.7886652 13.4355439,39.7881324 C14.062675,39.7879548 14.062675,39.7863563 14.0640959,39.1444837 C14.0678256,37.5788759 14.1838032,37.4636088 15.7550944,37.4614775 C16.4587743,37.4605895 16.4589519,37.4605895 16.45984,36.7528246 C16.4601952,36.4427224 16.4609056,36.1324425 16.4594848,35.8223403 C16.4564654,35.2227382 16.4490059,35.2145683 15.8277358,35.213325 C15.0007965,35.2117266 14.1736796,35.2129698 13.346385,35.2129698 C9.58004584,35.2129698 5.81388427,35.213325 2.04754509,35.2126146 C1.04211049,35.2122594 0.706077591,34.8897247 0.70359109,33.9006299 C0.69844048,31.8622316 0.698085265,29.8238333 0.703768697,27.785435 C0.70678802,26.7119768 1.03180927,26.4013417 2.11805517,26.4002761 C2.44289881,26.4000985 2.76863049,26.3862451 3.0925861,26.4032954 C3.42542208,26.4210561 3.55134561,26.2731093 3.52346127,25.9555475 C3.5144033,25.8530682 3.51298245,25.7479247 3.52363888,25.6458005 C3.56075879,25.2918293 3.3941632,25.1749637 3.05617662,25.1893499 C2.62867599,25.2074658 2.19957689,25.2003616 1.77136583,25.1895275 C1.1525822,25.1740757 0.778718953,24.9096185 0.754031547,24.3078852 C0.658123636,21.9622263 0.65847885,19.614081 0.754031547,17.2684221 C0.777475703,16.6961716 1.15684477,16.4171506 1.74028456,16.3954825 C2.18288181,16.3789651 2.62778795,16.3679534 3.06896434,16.3951273 C3.56129162,16.4253205 3.51529134,16.1098901 3.52701342,15.7889538 C3.53980114,15.4422645 3.47763861,15.2124407 3.05173644,15.2415683 C2.68426705,15.2664333 2.31360074,15.2504486 1.94435528,15.2447652 C1.10693714,15.2317999 0.722950279,14.8666394 0.707853664,14.0208737 C0.689915332,13.0019409 0.701992625,11.9824754 0.701815017,10.963365 C0.701815017,9.87019245 0.694355513,8.77701987 0.705011948,7.6840249 C0.714247524,6.71748629 1.06289054,6.37949971 2.02463376,6.3793221 C5.96822496,6.37807885 9.91181617,6.37878928 13.8554074,6.37878928" id="Fill-1" fill="#231F20" mask="url(#mask-2)"></path>
                        </g>
                        <path d="M18.0242401,31.8264437 C15.958135,31.8266213 13.89203,31.8266213 11.8261025,31.8264437 C11.6785109,31.8264437 11.5303865,31.8308839 11.3833277,31.821826 C10.7915404,31.7850613 10.3853526,31.4119084 10.3766972,30.9034189 C10.3686575,30.4155318 10.7453625,30.0372284 11.3170802,29.9706257 C11.4778147,29.9517993 11.641391,29.9558843 11.8035464,29.9558843 C15.9798031,29.9551738 20.156415,29.954641 24.3328493,29.9571275 C24.5381633,29.9573051 24.7493383,29.9581932 24.947548,30.003483 C25.3967167,30.10614 25.6835524,30.4620649 25.6891472,30.8794419 C25.694564,31.2882938 25.4443154,31.6117166 25.0127298,31.7635708 C24.8123889,31.8339032 24.6058317,31.8260885 24.3996296,31.8260885 C22.274559,31.826799 20.1494883,31.8264437 18.0242401,31.8264437" id="Fill-4" fill="#231F20"></path>
                        <path d="M7.26754626,31.8162136 C7.00220104,31.8162136 6.73454693,31.8375264 6.47168821,31.8117734 C5.97989376,31.7632866 5.62467927,31.4030991 5.59643972,30.9596138 C5.56660171,30.4935724 5.88984689,30.0934233 6.40295421,30.0110136 C6.98799246,29.9172369 7.58066783,29.9186578 8.16588369,30.0065734 C8.69053549,30.085431 8.98340983,30.4600047 8.95836721,30.9574825 C8.93403502,31.4363117 8.62304474,31.763997 8.10780613,31.8130166 C7.83020601,31.8394801 7.54781049,31.817812 7.26754626,31.817812 L7.26754626,31.8162136 Z" id="Fill-6" fill="#231F20"></path>
                        <path d="M28.9706717,30.899032 C28.9642779,31.3849654 28.5474337,31.8035857 28.0632763,31.8105124 C27.579119,31.8172614 27.1299503,31.3537065 27.1464677,30.8645762 C27.16263,30.3852143 27.5972349,29.9696133 28.0753536,29.975652 C28.5472561,29.9816906 28.9767104,30.4248207 28.9706717,30.899032" id="Fill-8" fill="#231F20"></path>
                        <path d="M17.9808684,21.7354396 C15.7950561,21.7349068 13.6092437,21.7409455 11.4232538,21.7317099 C10.6357433,21.7283353 10.1869298,21.0956983 10.4709238,20.4332233 C10.5840596,20.1694766 10.7767634,19.9922245 11.0504562,19.9307724 C11.2644729,19.8826409 11.488258,19.8600848 11.7077806,19.8599072 C15.9170722,19.8559998 20.1261863,19.8561774 24.3354779,19.8597295 C24.5551781,19.8599072 24.7818049,19.8730501 24.9928023,19.9272203 C25.4334459,20.0403561 25.7172623,20.4561347 25.6833393,20.8882531 C25.6485283,21.3342249 25.3222637,21.6661728 24.8480524,21.7228295 C24.6876731,21.7418335 24.5237416,21.7354396 24.3614086,21.7356172 C22.2343842,21.7363277 20.1077151,21.7359724 17.9808684,21.7354396" id="Fill-10" fill="#231F20"></path>
                        <path d="M7.29582134,21.7274651 C7.01626754,21.7274651 6.73529288,21.7459362 6.45751515,21.7233801 C5.99715718,21.6857274 5.62418197,21.2971227 5.59700807,20.858788 C5.57196544,20.4561524 5.89112566,19.9979257 6.31507415,19.9197786 C6.95428261,19.8018473 7.60681162,19.8068203 8.24619769,19.912319 C8.70691088,19.9883349 8.98912878,20.4263144 8.95556101,20.8934215 C8.92163803,21.3633702 8.58524991,21.6965614 8.09008092,21.7276427 C7.82615656,21.7441601 7.56045613,21.730662 7.29582134,21.730662 L7.29582134,21.7274651 Z" id="Fill-12" fill="#231F20"></path>
                        <path d="M28.0805575,19.877497 C28.5505063,19.8801721 28.969837,20.3144218 28.969482,20.7985792 C28.9689489,21.3159491 28.5611627,21.7276427 28.049121,21.7274651 C27.5747321,21.7274651 27.156467,21.3060031 27.1468762,20.8186488 C27.1376407,20.3533178 27.6122072,19.8748439 28.0805575,19.877497" id="Fill-14" fill="#231F20"></path>
                        <path d="M18.0199065,11.6327312 C15.8189975,11.6321984 13.6180886,11.6387698 11.417002,11.6290014 C10.5799391,11.6250941 10.1231333,10.8729274 10.534294,10.2058346 C10.7303724,9.88738483 11.0374553,9.76039565 11.3978204,9.75524504 C11.8556919,9.74885118 12.3135634,9.75169289 12.7714349,9.75169289 C16.6120139,9.75151529 20.4527705,9.75133768 24.2933495,9.75222572 C24.4704239,9.75222572 24.6496296,9.74547664 24.8242175,9.7689208 C25.3339503,9.83801001 25.6962691,10.2521901 25.6861455,10.7363474 C25.6763771,11.2041649 25.2724982,11.6036036 24.7556611,11.6263373 C24.3429019,11.6446309 23.9287218,11.6329088 23.5148969,11.6330864 C21.683411,11.6334416 19.85157,11.6330864 18.0199065,11.6327312" id="Fill-16" fill="#231F20"></path>
                        <path d="M7.28646143,11.6274385 C7.02111622,11.6274385 6.75470535,11.6425351 6.49060338,11.624064 C5.99969697,11.5897858 5.61215796,11.1990498 5.59617331,10.7459738 C5.58072148,10.2978707 5.93966572,9.81921917 6.40464148,9.7833425 C6.99056777,9.73805266 7.58466399,9.73805266 8.17076789,9.77907993 C8.63911819,9.81175966 8.97390784,10.2731833 8.9581008,10.7504139 C8.94176093,11.2406099 8.59578202,11.595114 8.08249709,11.6260176 C7.81803991,11.6420023 7.55180665,11.6288594 7.28646143,11.6288594 L7.28646143,11.6274385 Z" id="Fill-18" fill="#231F20"></path>
                        <path d="M29.8928796,9.25073391 C30.2035146,9.26813942 30.4509215,9.39086602 30.6425597,9.611099 C30.8361516,9.83364088 31.0013264,9.80184918 31.1929646,9.60346189 C31.5309512,9.25393084 31.8753316,8.909728 32.2305461,8.57778007 C32.7061783,8.13376196 33.2583592,8.12719049 33.6442997,8.54296905 C33.9849504,8.90990561 33.9339771,9.44787795 33.5064765,9.88106201 C32.8747276,10.5208033 32.2413801,11.1589461 31.6007508,11.7899846 C31.0924389,12.2908371 30.6473551,12.289061 30.1489892,11.7805715 C29.8090489,11.4337045 29.4419348,11.1088609 29.1675316,10.7033835 C28.9595535,10.3959454 28.9567118,10.0645303 29.1208209,9.73808818 C29.2813778,9.41946079 29.5595108,9.27453328 29.8928796,9.25073391" id="Fill-20" fill="#231F20"></path>
                    </g>
                </g>
            </g>
        </g>
    </g>
</svg>