<?xml version="1.0" encoding="UTF-8"?>
<svg width="125px" height="125px" viewBox="0 0 125 125" version="1.1" xmlns="http://www.w3.org/2000/svg" xmlns:xlink="http://www.w3.org/1999/xlink">
    <title>6DD0828D-0E48-43FB-923C-011B727AD1A5@3x</title>
    <defs>
        <polygon id="path-1" points="0 0 90 0 90 90 0 90"></polygon>
    </defs>
    <g id="HD" stroke="none" stroke-width="1" fill="none" fill-rule="evenodd">
        <g id="1920-|-01-06-Product-2" transform="translate(-208.000000, -1754.000000)">
            <rect fill="#FFFFFF" x="0" y="0" width="1920" height="2952"></rect>
            <rect id="background-gray" fill="#F8F8F8" x="0" y="1486" width="1920" height="545"></rect>
            <g id="icons/service/insurance" transform="translate(208.000000, 1754.000000)">
                <rect id="box" x="0" y="0" width="125" height="125"></rect>
                <g id="Group" transform="translate(18.000000, 18.000000)">
                    <g id="Group-20">
                        <g id="Group-3">
                            <mask id="mask-2" fill="white">
                                <use xlink:href="#path-1"></use>
                            </mask>
                            <g id="Clip-2"></g>
                            <path d="M58.5020199,5.44203329 C58.5020199,8.32473448 58.4757144,10.9099962 58.5159242,13.4943185 C58.5305802,14.4403751 59.1838964,14.9739999 60.2022957,14.9976748 C61.2323445,15.0217255 62.2635207,15.0036875 63.2941332,15.0038754 C64.4899068,15.0040633 65.6856804,15.0038754 67.106554,15.0038754 C64.1870176,11.7596622 61.4390307,8.70578767 58.5020199,5.44203329 L58.5020199,5.44203329 Z M87.0036233,59.9942692 C87.0036233,51.7168845 87.004046,43.4398756 87.0029187,35.1626788 C87.0027308,33.4736812 86.5245341,32.9981163 84.8280162,32.9979284 C74.2706733,32.9971518 63.7131425,32.9971518 53.1557996,32.9979284 C51.4684887,32.9981163 50.9959289,33.4749965 50.9959289,35.1760195 C50.9953652,51.7306009 50.9953652,68.2849945 50.9959289,84.8395759 C50.9961168,86.5300767 51.4731861,87.0052658 53.1693282,87.0054537 C63.726859,87.0062303 74.2842019,87.0062303 84.8415448,87.0054537 C86.5260372,87.0052658 87.0027308,86.524064 87.0029187,84.8258595 C87.004046,76.5488506 87.0036233,68.2714659 87.0036233,59.9942692 L87.0036233,59.9942692 Z M48.1282519,87.0061113 C48.0792109,86.298213 48.0072465,85.741477 48.0072465,85.184741 C48.001046,68.3731177 48.001046,51.5613066 48.0033007,34.7496833 C48.0036765,31.8754374 49.875126,30.0075628 52.7512584,30.005496 C57.8133791,30.001738 62.8756876,30.0043686 67.9379962,30.0043686 L68.9357269,30.0043686 L68.9357269,17.9966836 C65.9350191,17.9966836 63.0008267,18.0053269 60.0670102,17.994241 C57.4501751,17.9842825 55.5144649,16.0513958 55.505258,13.4390771 C55.4941721,10.3141779 55.5024395,7.18927865 55.5024395,4.06437945 L55.5024395,2.99633133 L54.4720149,2.99633133 C39.003808,2.99633133 23.535977,2.99633133 8.067958,2.99750568 C4.80870462,2.99788147 2.99456353,4.83531694 2.99371799,8.13176524 C2.99371799,32.6929732 2.99371799,57.254369 2.99371799,81.8157648 C2.99371799,85.2200654 4.78615704,87.0061113 8.20267982,87.0061113 C21.1707353,87.0061113 34.1389787,87.0061113 47.1070342,87.0061113 L48.1282519,87.0061113 Z M6.18485888,0 L57.5615977,0 C57.8733181,0.297815239 58.2058949,0.577028768 58.4935645,0.896452053 C62.7809878,5.65416793 67.0761148,10.4054953 71.3225766,15.1994751 C71.7103951,15.637085 71.9587943,16.3546601 71.9670617,16.9465326 C72.0226791,20.9451484 71.9959978,24.9448917 71.9959978,28.9442591 L71.9959978,30.0043686 L73.1278866,30.0043686 C77.189834,30.0043686 81.2515935,30.0002349 85.3135409,30.0103813 C85.7457029,30.0113207 86.1893266,30.0468331 86.6079601,30.1469817 C88.4346903,30.5845916 89.3987874,31.8987366 90.0000564,33.5634956 L90.0000564,86.4398866 C89.2091998,88.5826531 87.8473257,89.9973225 85.4050465,89.9975104 C59.4120028,90 33.4187713,90.0033352 7.42572763,89.9937525 C3.29839223,89.9922493 0.00606905824,86.6732535 0.00475378246,82.5273271 C-0.00276207914,57.5027676 -1.72851909e-05,32.4783959 0.0021232309,7.45383629 C0.0021232309,5.30862709 0.730034427,3.4007306 2.39066405,2.07418449 C3.49962943,1.18787883 4.90960506,0.678116843 6.18485888,0 L6.18485888,0 Z" id="Fill-1" fill="#231F20" mask="url(#mask-2)"></path>
                        </g>
                        <path d="M13.1326669,49.0601246 L15.9954317,49.0601246 L15.9954317,43.0302426 L13.1326669,43.0302426 L13.1326669,49.0601246 Z M24.9893218,49.0455565 L27.8806995,49.0455565 L27.8806995,39.9843442 L24.9893218,39.9843442 L24.9893218,49.0455565 Z M36.8827646,49.0413394 L39.7432999,49.0413394 L39.7432999,33.8521016 L36.8827646,33.8521016 L36.8827646,49.0413394 Z M19.0181681,49.0735427 L21.9920397,49.0735427 L21.9920397,48.0599045 C21.9920397,44.9685764 21.9896243,41.8772483 21.9931545,38.7859202 C21.9948267,37.3833502 22.4751127,36.8805565 23.815826,36.8767227 C25.6072837,36.8717389 27.3991129,36.8677135 29.1905705,36.8784479 C30.3571917,36.8853486 30.878539,37.4239877 30.8818833,38.6344879 C30.89043,41.757636 30.8848561,44.880784 30.8850419,48.0041237 L30.8850419,49.0722009 L33.8581703,49.0722009 L33.8581703,48.0635466 C33.8581703,42.9644941 33.8574271,37.86525 33.8589135,32.7661976 C33.8592851,31.2309804 34.3096578,30.7571314 35.7689098,30.7550229 C37.5605532,30.7521476 39.3523824,30.7435217 41.1436542,30.7588566 C42.1575501,30.7674825 42.741511,31.3135973 42.7435548,32.3161177 C42.7554458,38.8173568 42.7480139,45.3187876 42.7439264,51.8200268 C42.7439264,51.9082026 42.7032368,51.9961867 42.6712797,52.125 L10.2165782,52.125 C10.189266,52.0184223 10.1335268,51.9028354 10.133341,51.7870567 C10.1275813,48.3771457 10.1188488,44.9670429 10.131483,41.5571319 C10.1353848,40.5227916 10.6818146,39.9529076 11.6737864,39.9425565 C13.5887992,39.9226211 15.5041837,39.9249214 17.4193823,39.9412147 C18.4670933,39.9498406 19.0077634,40.5122488 19.0138947,41.6019865 C19.0276437,44.0549986 19.0181681,46.5082023 19.0181681,49.0735427 L19.0181681,49.0735427 Z" id="Fill-4" fill="#E85453"></path>
                        <path d="M75.638662,81.3901871 L81.3818755,81.3901871 L81.3818755,75.646053 L75.638662,75.646053 L75.638662,81.3901871 Z M66.8714993,81.3964164 L72.6443935,81.3964164 L72.6443935,75.6720694 L66.8714993,75.6720694 L66.8714993,81.3964164 Z M58.0938934,81.3984317 L63.8691693,81.3984317 L63.8691693,75.6702372 L58.0938934,75.6702372 L58.0938934,81.3984317 Z M75.6712742,72.6616755 L81.3970823,72.6616755 L81.3970823,66.887311 L75.6712742,66.887311 L75.6712742,72.6616755 Z M66.8680183,72.6241166 L72.6432942,72.6241166 L72.6432942,66.892441 L66.8680183,66.892441 L66.8680183,72.6241166 Z M58.1111156,72.6050623 L63.8530465,72.6050623 L63.8530465,66.8618443 L58.1111156,66.8618443 L58.1111156,72.6050623 Z M75.646357,63.8618936 L81.3895705,63.8618936 L81.3895705,58.1186755 L75.646357,58.1186755 L75.646357,63.8618936 Z M66.8740643,63.8422897 L72.6421949,63.8422897 L72.6421949,58.0900941 L66.8740643,58.0900941 L66.8740643,63.8422897 Z M58.0942599,63.8618936 L63.8376565,63.8618936 L63.8376565,58.1186755 L58.0942599,58.1186755 L58.0942599,63.8618936 Z M84.3732126,69.7965706 C84.3732126,73.6055955 84.3766937,77.4144372 84.3717469,81.2232789 C84.3691819,83.185687 83.2044897,84.3705338 81.2662674,84.3716331 C73.5873966,84.3762134 65.9087091,84.3760302 58.2300215,84.3716331 C56.3359538,84.3705338 55.1304048,83.1825724 55.1291223,81.3106721 C55.1236259,73.6013816 55.1236259,65.8922743 55.1291223,58.1829838 C55.130588,56.3424131 56.3209303,55.1317331 58.1402466,55.1300842 C65.8799444,55.1233053 73.6198255,55.1233053 81.3595234,55.1300842 C83.169679,55.1317331 84.3671666,56.3530395 84.3708309,58.1870145 C84.3785258,62.0568665 84.3732126,65.9267186 84.3732126,69.7965706 L84.3732126,69.7965706 Z" id="Fill-15" fill="#231F20"></path>
                        <path d="M58.0898454,48.5354546 L81.3806847,48.5354546 L81.3806847,39.1968405 L58.0898454,39.1968405 L58.0898454,48.5354546 Z M69.7980063,36.0018801 C73.6064468,36.0018801 77.4147041,35.9983282 81.2229614,36.0032614 C83.171879,36.0058267 84.3655201,37.2734708 84.3699166,39.3485868 C84.3766945,42.3677267 84.3766945,45.3872613 84.3699166,48.4065985 C84.3653369,50.4477739 83.1832366,51.7438335 81.3088757,51.7454121 C73.6009512,51.7515293 65.8930267,51.7515293 58.1851022,51.7454121 C56.3532405,51.7438335 55.1388994,50.4489579 55.1326711,48.4967781 C55.1225958,45.4117302 55.1222295,42.3266822 55.1328543,39.242029 C55.139449,37.2874812 56.3493936,36.0079973 58.1904146,36.0042481 C62.0596729,35.9963549 65.9289312,36.0018801 69.7980063,36.0018801 L69.7980063,36.0018801 Z" id="Fill-16" fill="#231F20"></path>
                        <polygon id="Fill-17" fill="#231F20" points="61.875 46.125 65.25 46.125 65.25 42.75 61.875 42.75"></polygon>
                        <polygon id="Fill-18" fill="#231F20" points="67.5 46.125 70.875 46.125 70.875 42.75 67.5 42.75"></polygon>
                        <polygon id="Fill-19" fill="#231F20" points="73.125 46.125 76.5 46.125 76.5 42.75 73.125 42.75"></polygon>
                    </g>
                    <path d="M49.2188558,12.7260876 L12.8629064,12.7260876 C11.5804872,12.7260876 10.5408811,13.4213346 10.5408811,14.2789653 C10.5408811,15.1365959 11.5804872,15.8318429 12.8629064,15.8318429 L49.2188558,15.8318429 C50.501275,15.8318429 51.5408811,15.1365959 51.5408811,14.2789653 C51.5408811,13.4213346 50.501275,12.7260876 49.2188558,12.7260876 L49.2188558,12.7260876 Z" id="Path-Copy" fill="#202020" fill-rule="nonzero" transform="translate(31.040881, 14.278965) scale(-1, 1) translate(-31.040881, -14.278965) "></path>
                    <path d="M11.8108314,58.8510876 C11.090343,58.8510876 10.5062718,59.5463346 10.5062718,60.4039653 C10.5062718,61.2615959 11.090343,61.9568429 11.8108314,61.9568429 L41.2363215,61.9568429 C41.9568099,61.9568429 42.5408811,61.2615959 42.5408811,60.4039653 C42.5408811,59.5463346 41.9568099,58.8510876 41.2363215,58.8510876 L11.8108314,58.8510876 Z" id="Path-Copy-3" fill="#202020" fill-rule="nonzero" transform="translate(26.523576, 60.403965) scale(-1, 1) translate(-26.523576, -60.403965) "></path>
                    <path d="M11.8108314,65.6010876 C11.090343,65.6010876 10.5062718,66.2963346 10.5062718,67.1539653 C10.5062718,68.0115959 11.090343,68.7068429 11.8108314,68.7068429 L41.2363215,68.7068429 C41.9568099,68.7068429 42.5408811,68.0115959 42.5408811,67.1539653 C42.5408811,66.2963346 41.9568099,65.6010876 41.2363215,65.6010876 L11.8108314,65.6010876 Z" id="Path-Copy-4" fill="#202020" fill-rule="nonzero" transform="translate(26.523576, 67.153965) scale(-1, 1) translate(-26.523576, -67.153965) "></path>
                    <path d="M11.8108314,72.3510876 C11.090343,72.3510876 10.5062718,73.0463346 10.5062718,73.9039653 C10.5062718,74.7615959 11.090343,75.4568429 11.8108314,75.4568429 L41.2363215,75.4568429 C41.9568099,75.4568429 42.5408811,74.7615959 42.5408811,73.9039653 C42.5408811,73.0463346 41.9568099,72.3510876 41.2363215,72.3510876 L11.8108314,72.3510876 Z" id="Path-Copy-5" fill="#202020" fill-rule="nonzero" transform="translate(26.523576, 73.903965) scale(-1, 1) translate(-26.523576, -73.903965) "></path>
                    <path d="M11.8108314,79.1010876 C11.090343,79.1010876 10.5062718,79.7963346 10.5062718,80.6539653 C10.5062718,81.5115959 11.090343,82.2068429 11.8108314,82.2068429 L41.2363215,82.2068429 C41.9568099,82.2068429 42.5408811,81.5115959 42.5408811,80.6539653 C42.5408811,79.7963346 41.9568099,79.1010876 41.2363215,79.1010876 L11.8108314,79.1010876 Z" id="Path-Copy-6" fill="#202020" fill-rule="nonzero" transform="translate(26.523576, 80.653965) scale(-1, 1) translate(-26.523576, -80.653965) "></path>
                    <path d="M35.0980755,19.4760876 L12.0151678,19.4760876 C11.2009418,19.4760876 10.5408811,20.1713346 10.5408811,21.0289653 C10.5408811,21.8865959 11.2009418,22.5818429 12.0151678,22.5818429 L35.0980755,22.5818429 C35.9123016,22.5818429 36.5723623,21.8865959 36.5723623,21.0289653 C36.5723623,20.1713346 35.9123016,19.4760876 35.0980755,19.4760876 L35.0980755,19.4760876 Z" id="Path-Copy-2" fill="#202020" fill-rule="nonzero" transform="translate(23.556622, 21.028965) scale(-1, 1) translate(-23.556622, -21.028965) "></path>
                </g>
            </g>
        </g>
    </g>
</svg>