<?xml version="1.0" encoding="UTF-8"?>
<svg width="190px" height="57px" viewBox="0 0 190 57" version="1.1" xmlns="http://www.w3.org/2000/svg" xmlns:xlink="http://www.w3.org/1999/xlink">
    <title>64E753C5-5D91-4096-AA75-C59ED5587DCC@3x</title>
    <g id="HD" stroke="none" stroke-width="1" fill="none" fill-rule="evenodd">
        <g id="1920-|-01-01-Landing" transform="translate(-208.000000, -6648.000000)" fill="#ffffff">
            <g id="Group-16" transform="translate(0.000000, 6567.000000)">
                <g id="logo" transform="translate(208.000000, 81.000000)">
                    <g id="Group" transform="translate(2.000000, 6.000000)">
                        <path d="M110.504235,16.3307322 L120.212288,16.3307322 C120.318112,17.2665409 120.420696,18.1766166 120.546676,19.2958177 C120.937215,19.0272529 121.193496,18.9018502 121.386426,18.7112091 C125.050657,15.0904776 129.450974,14.9067228 133.940917,16.3792985 C138.215974,17.7811994 140.094882,21.268917 140.196386,25.6119826 C140.335685,31.5881829 140.230941,37.5701822 140.251818,43.549282 C140.254337,44.410429 140.052768,44.9095028 139.056443,44.8960926 C136.186609,44.8583993 133.315694,44.883045 130.243571,44.883045 C130.188859,44.0697395 130.108232,43.37785 130.100673,42.6852356 C130.052081,38.0362744 130.11903,33.3836888 129.947697,28.7398017 C129.818477,25.2502719 128.334427,23.6689654 125.623688,23.6214864 C122.684024,23.5700205 120.622624,25.5645035 120.507802,28.9529138 C120.350507,33.5978882 120.346907,38.2515611 120.424295,42.8990726 C120.451291,44.5122734 119.972205,45.009535 118.389171,44.9185637 C116.117204,44.7877244 113.831918,44.8620237 111.553112,44.8935556 C110.671249,44.9058784 110.221679,44.6315147 110.225257,43.6645365 C110.256593,34.7268751 110.265592,25.7892136 110.287548,16.8515521 C110.287908,16.7420966 110.375375,16.6330035 110.504235,16.3307322" id="Fill-1"></path>
                        <path d="M17.2677984,16.3224324 L27.0492802,16.3224324 C27.1450253,17.2745507 27.2364511,18.184264 27.3739498,19.5557202 C29.3737994,17.2408442 31.5705384,16.0904736 34.2218869,15.725501 C41.7724349,14.6860357 46.8051738,18.7674228 47.0067425,26.4093771 C47.1593588,32.2003729 47.0441767,37.9982549 47.0409372,43.7932374 C47.0405772,44.0810113 46.9700282,44.3687851 46.9030786,44.8765574 C43.8104386,44.8765574 40.7703505,44.9254862 37.7371013,44.8069697 C37.4019933,44.7939221 36.8390407,43.8283937 36.8300421,43.2967007 C36.7555336,38.9518229 36.7947675,34.6051329 36.7807297,30.2588054 C36.7782101,29.4157803 36.7422157,28.567681 36.6421512,27.7315421 C36.3369186,25.1832575 34.987488,23.8219495 32.6446117,23.6363825 C30.3917214,23.4577017 28.2273773,24.8037875 27.610793,26.9189615 C27.3289568,27.8863021 27.2270926,28.9359156 27.217734,29.9496479 C27.1767004,34.3557773 27.1547438,38.7633564 27.2267326,43.1687609 C27.2490492,44.5246324 26.8228753,44.9682536 25.4799237,44.9124385 C23.146046,44.8149433 20.8046094,44.8595229 18.4671322,44.8950416 C17.5229988,44.909539 17.0233963,44.6518473 17.0269764,43.5822999 C17.0539916,34.7087895 17.0482325,25.8356416 17.0611905,16.9621312 C17.0615504,16.7957733 17.1652143,16.6297778 17.2677984,16.3224324" id="Fill-3"></path>
                        <path d="M94.833995,26.6663439 C94.4168198,23.4152968 92.3053875,21.7615032 89.0316956,21.9351098 C86.2003751,22.0855206 84.2044849,23.9915693 84.1677706,26.6663439 L94.833995,26.6663439 Z M83.7577942,32.5363506 C83.7293586,35.6605454 84.7112862,37.553184 86.8155196,38.2784176 C89.2599002,39.1210803 91.6175343,39.091723 93.6954917,37.1447191 C94.2343281,36.6398463 95.1035932,36.2661752 95.8371593,36.2371804 C98.5133439,36.1306243 101.196008,36.1951378 104.096797,36.1951378 C103.479133,38.8024994 102.270801,40.7168842 100.549908,42.3844503 C95.2198551,47.5487949 81.4181574,47.4726834 76.3080305,40.2551412 C72.619683,35.0458546 72.3896787,29.4212168 74.7609906,23.7563486 C77.0012829,18.4042624 81.4509123,15.9012823 87.1081542,15.5591431 C88.8330065,15.4543992 90.5963728,15.4380896 92.3028679,15.6711357 C101.50052,16.9287871 104.643912,24.7367369 104.631352,31.4088135 C104.629155,32.6294966 103.847356,32.5385253 103.04936,32.5381628 C97.3543238,32.5349009 91.6592878,32.5363506 85.9642517,32.5363506 L83.7577942,32.5363506 Z" id="Fill-5"></path>
                        <path d="M10.2872219,10.9803856 C8.89711763,11.0416372 7.78021099,11.0912909 6.34259413,11.1547171 C7.46597977,12.7838651 8.51557685,14.1531467 9.38592176,15.6300717 C9.84809003,16.4140199 10.2451084,17.3824478 10.2519473,18.2707774 C10.3167373,26.5451817 10.2551868,34.8210358 10.3221365,43.0954402 C10.3340146,44.5756271 9.84125109,44.9703195 8.4572659,44.9116049 C6.1816991,44.815197 3.89677376,44.8199087 1.62048707,44.91088 C0.327927692,44.9623459 -0.00286096533,44.4755949 0,43.2367901 C0.0349331685,29.3442717 0.033493392,15.451391 0.00109842012,1.55887264 C-0.00178113293,0.379144815 0.354563557,-0.0343941846 1.54129936,0.00221180925 C3.998278,0.0775984105 6.45957597,0.0399051099 8.91907423,0.0174341037 C9.74694573,0.00982295649 10.3073787,0.156971803 10.2980202,1.18375181 C10.2685048,4.37644686 10.2872219,7.56986678 10.2872219,10.9803856" id="Fill-8"></path>
                        <path d="M163.981242,16.2603109 C163.981242,18.8466513 163.962165,21.1310827 163.990241,23.4147894 C164.002479,24.4122121 163.48092,24.6108268 162.625693,24.5966918 C160.537297,24.5622604 158.447461,24.5854563 156.387141,24.5854563 C156.33279,24.8467723 156.249642,25.0182044 156.294635,25.065321 C158.450341,27.3276439 158.428384,30.126009 158.349557,32.9964989 C158.254891,36.4367374 158.289446,39.8824125 158.347397,43.3241008 C158.366834,44.4911434 158.00797,44.9423757 156.812235,44.9057697 C154.475118,44.8340074 152.131882,44.8220471 149.795484,44.909394 C148.503285,44.9583228 148.169257,44.4679475 148.181495,43.2316797 C148.235486,37.7353441 148.204891,32.2386461 148.204891,26.741948 L148.204891,24.8554708 C144.830415,24.1751792 144.830415,24.1751792 144.830775,20.7226178 L144.830775,16.3694041 C145.923925,16.3034408 146.908372,16.2443638 148.114545,16.1715142 L148.114545,7.7680828 L158.3276,7.7680828 C158.3276,10.1039801 158.39059,12.3815253 158.303124,14.6532716 C158.253091,15.9442671 158.71058,16.372666 159.958867,16.2806073 C161.202474,16.1889111 162.458319,16.2603109 163.981242,16.2603109" id="Fill-11"></path>
                        <path d="M54.9297607,44.8852921 L54.9297607,25.0292587 C54.6986766,24.8378927 54.6162494,24.7106778 54.5194244,24.698355 C51.6330324,24.3246839 51.6326725,24.3264961 51.6326725,21.347638 L51.6326725,16.379371 C52.7574979,16.3028971 53.6904731,16.2391085 54.8354554,16.1611848 L54.8354554,7.76210261 L65.0341124,7.76210261 L65.0341124,16.2198994 L70.7723417,16.2198994 C70.7723417,18.8848882 70.815895,21.3385771 70.7136708,23.786467 C70.7017927,24.0702541 69.8901187,24.5305473 69.4355092,24.5486691 C67.3471134,24.6305795 65.2533184,24.5845502 63.0429014,24.5845502 C63.1030121,24.9473482 63.0612586,25.240921 63.1861592,25.3666862 C65.1107805,27.3024546 65.1730508,29.7075772 65.0974626,32.2370151 C64.9873196,35.9142865 65.0215143,39.5984442 65.0949429,43.2775278 C65.120499,44.564899 64.6817271,44.9436442 63.4431593,44.9088504 C60.7011049,44.8327389 57.9554511,44.8852921 54.9297607,44.8852921" id="Fill-13"></path>
                        <path d="M173.101471,41.8565991 C174.374233,41.823255 175.354361,40.7743665 175.258976,39.4761222 C175.160351,38.1278618 174.39331,37.3892181 173.055398,37.3424639 C171.805312,37.2986092 170.730879,38.3888155 170.741317,39.6127604 C170.752115,40.8160466 171.87982,41.8888559 173.101471,41.8565991 M178.802986,34.3882515 L178.802986,44.597337 C178.332899,44.6527896 177.881889,44.7412239 177.429079,44.7531843 C175.832007,44.7959517 174.284607,44.5357229 172.632104,45.035884 C170.649531,45.6368022 168.400241,44.2113431 167.429111,42.321604 C166.428107,40.3735127 166.736579,37.4359723 168.109766,35.8477796 C169.558541,34.1718775 171.7524,33.6253246 173.808041,34.3175766 C174.346518,34.4991568 174.987218,34.3817277 175.581486,34.3860769 C176.590409,34.3933256 177.599693,34.3882515 178.802986,34.3882515" id="Fill-15"></path>
                        <path d="M185,44.5837094 C181.366724,45.0324047 181.366724,45.0324047 181.366724,41.7070582 C181.366724,39.904666 181.467868,38.0953876 181.336489,36.3027812 C181.220227,34.7124139 181.746825,34.0556806 183.333459,34.3014119 C183.846739,34.3811478 184.372617,34.3782483 185,34.4202908 L185,44.5837094 Z" id="Fill-17"></path>
                        <path d="M181.575276,32.1561557 C180.980648,28.48867 181.261044,28.2037957 184.966309,28.7293273 L184.966309,32.1561557 L181.575276,32.1561557 Z" id="Fill-19"></path>
                        <path d="M165.444559,42.2737262 C165.257028,43.0725343 165.272506,44.0434992 164.803859,44.6038246 C164.530661,44.9307415 163.258619,44.8557173 162.847922,44.4911071 C162.467101,44.1529547 162.326003,42.8496364 162.625117,42.5752726 C163.168992,42.0769237 164.117805,42.0258203 164.897444,41.788425 C165.079936,41.9500713 165.262068,42.11208 165.444559,42.2737262" id="Fill-21"></path>
                    </g>
                </g>
            </g>
        </g>
    </g>
</svg>