<?xml version="1.0" encoding="UTF-8"?>
<svg width="638px" height="218px" viewBox="0 0 638 218" version="1.1" xmlns="http://www.w3.org/2000/svg" xmlns:xlink="http://www.w3.org/1999/xlink">
    <title>des el 1@3x</title>
    <defs>
        <linearGradient x1="99.9994356%" y1="49.9998231%" x2="0%" y2="49.9998231%" id="linearGradient-1">
            <stop stop-color="#FEFEFE" offset="0%"></stop>
            <stop stop-color="#FEFEFE" offset="100%"></stop>
        </linearGradient>
    </defs>
    <g id="Web" stroke="none" stroke-width="1" fill="none" fill-rule="evenodd" opacity="0.05">
        <g id="01-01-Landing" transform="translate(-802.000000, -3904.000000)" fill="url(#linearGradient-1)">
            <g id="des-el-1" transform="translate(802.000000, 3904.000000)">
                <path d="M0,6.04277473 L638,6.04277473 L638,0 L0,0 L0,6.04277473 Z M569.936373,12.7941185 L569.936373,19.5439285 L122.984923,19.5439285 L122.984923,26.2937386 L510.028352,26.2937386 L510.028352,33.0435486 L24.2064851,33.0435486 L24.2064851,39.7948924 L429.522601,39.7948924 L429.522601,46.5447024 L638,46.5447024 L638,12.7941185 L569.936373,12.7941185 Z M63.7187581,26.2937386 L103.226543,26.2937386 L103.226543,19.5423948 L63.7187581,19.5423948 L63.7187581,26.2937386 Z M24.2064851,26.2937386 L43.9603774,26.2937386 L43.9603774,19.5423948 L24.2064851,19.5423948 L24.2064851,26.2937386 Z M185.500763,53.2929788 L185.500763,60.0443225 L210.483759,60.0443225 L210.483759,66.7941325 L148.699545,66.7941325 L148.699545,73.5439426 L279.750304,73.5439426 L279.750304,80.2952863 L352.764748,80.2952863 L352.764748,87.0450964 L307.57901,87.0450964 L307.57901,93.7964401 L528.749889,93.7964401 L528.749889,100.54625 L638,100.54625 L638,53.2929788 L185.500763,53.2929788 Z M126.234598,60.0443225 L165.746871,60.0443225 L165.746871,53.2929788 L126.234598,53.2929788 L126.234598,60.0443225 Z M169.292787,93.7964401 L287.825117,93.7964401 L287.825117,87.0450964 L169.292787,87.0450964 L169.292787,93.7964401 Z M361.189664,114.047404 L638,114.047404 L638,107.297594 L361.189664,107.297594 L361.189664,114.047404 Z M127.168206,120.797214 L127.168206,127.548558 L267.581978,127.548558 L267.581978,134.298368 L527.811793,134.298368 L527.811793,141.046644 L389.274214,141.046644 L389.274214,147.799522 L638,147.799522 L638,120.797214 L127.168206,120.797214 Z M630.782491,154.549332 L630.782491,161.299142 L0,161.299142 L0,168.048952 L71.003595,168.048952 L71.003595,174.800295 L183.332817,174.800295 L183.332817,181.550106 L142.738816,181.550106 L142.738816,188.299916 L575.551488,188.299916 L575.551488,195.051259 L446.372433,195.051259 L446.372433,201.801069 L551.219324,201.801069 L551.219324,208.550879 L418.287883,208.550879 L418.287883,215.300689 L257.285357,215.300689 L257.285357,218 L638,218 L638,154.549332 L630.782491,154.549332 Z M24.2064851,188.299916 L122.984923,188.299916 L122.984923,181.550106 L24.2064851,181.550106 L24.2064851,188.299916 Z" id="Fill-1"></path>
            </g>
        </g>
    </g>
</svg>