<?xml version="1.0" encoding="UTF-8"?>
<svg width="375px" height="482px" viewBox="0 0 375 482" version="1.1" xmlns="http://www.w3.org/2000/svg" xmlns:xlink="http://www.w3.org/1999/xlink">
    <title>des el 2 mob@3x</title>
    <defs>
        <rect id="path-1" x="0" y="0" width="375" height="482"></rect>
        <path d="M0,10.3946813 L1097,10.3946813 L1097,0 L0,0 L0,10.3946813 Z M979.968967,22.0082313 L979.968967,33.6191431 L211.464672,33.6191431 L211.464672,45.2300549 L876.960975,45.2300549 L876.960975,56.8409667 L41.6214956,56.8409667 L41.6214956,68.4545167 L738.53651,68.4545167 L738.53651,80.0654285 L1097,80.0654285 L1097,22.0082313 L979.968967,22.0082313 Z M109.56031,45.2300549 L177.491406,45.2300549 L177.491406,33.6165049 L109.56031,33.6165049 L109.56031,45.2300549 Z M41.6214956,45.2300549 L75.5870439,45.2300549 L75.5870439,33.6165049 L41.6214956,33.6165049 L41.6214956,45.2300549 Z M318.956642,91.673702 L318.956642,103.287252 L361.913297,103.287252 L361.913297,114.898164 L255.679311,114.898164 L255.679311,126.509076 L481.012671,126.509076 L481.012671,138.122626 L606.556314,138.122626 L606.556314,149.733537 L528.862341,149.733537 L528.862341,161.347087 L909.151455,161.347087 L909.151455,172.957999 L1097,172.957999 L1097,91.673702 L318.956642,91.673702 Z M217.052279,103.287252 L284.991093,103.287252 L284.991093,91.673702 L217.052279,91.673702 L217.052279,103.287252 Z M291.088067,161.347087 L494.896793,161.347087 L494.896793,149.733537 L291.088067,149.733537 L291.088067,161.347087 Z M621.042416,196.182461 L1097,196.182461 L1097,184.571549 L621.042416,184.571549 L621.042416,196.182461 Z M218.657558,207.793373 L218.657558,219.406923 L460.090016,219.406923 L460.090016,231.017835 L907.538458,231.017835 L907.538458,242.626108 L669.331994,242.626108 L669.331994,254.242296 L1097,254.242296 L1097,207.793373 L218.657558,207.793373 Z M1084.58996,265.853208 L1084.58996,277.46412 L0,277.46412 L0,289.075032 L122.086119,289.075032 L122.086119,300.688582 L315.228998,300.688582 L315.228998,312.299493 L245.430221,312.299493 L245.430221,323.910405 L989.623796,323.910405 L989.623796,335.523955 L767.508713,335.523955 L767.508713,347.134867 L947.786205,347.134867 L947.786205,358.745779 L719.219135,358.745779 L719.219135,370.356691 L442.385638,370.356691 L442.385638,375 L1097,375 L1097,265.853208 L1084.58996,265.853208 Z M41.6214956,323.910405 L211.464672,323.910405 L211.464672,312.299493 L41.6214956,312.299493 L41.6214956,323.910405 Z" id="path-3"></path>
        <linearGradient x1="99.9994356%" y1="49.9998231%" x2="0%" y2="49.9998231%" id="linearGradient-5">
            <stop stop-color="#FEFEFE" offset="0%"></stop>
            <stop stop-color="#FEFEFE" offset="100%"></stop>
        </linearGradient>
    </defs>
    <g id="Web" stroke="none" stroke-width="1" fill="none" fill-rule="evenodd">
        <g id="m01-01-Landing-|-Vertical-" transform="translate(0.000000, -5408.000000)">
            <g id="des-el-2-mob" transform="translate(0.000000, 5408.000000)">
                <mask id="mask-2" fill="white">
                    <use xlink:href="#path-1"></use>
                </mask>
                <g id="Mask"></g>
                <g id="Group-3" opacity="0.10731797" mask="url(#mask-2)">
                    <g transform="translate(187.500000, 118.500000) rotate(-90.000000) translate(-187.500000, -118.500000) translate(-361.000000, -69.000000)">
                        <mask id="mask-4" fill="white">
                            <use xlink:href="#path-3"></use>
                        </mask>
                        <g id="Clip-2" stroke="none" fill="none"></g>
                        <path d="M0,10.3946813 L1097,10.3946813 L1097,0 L0,0 L0,10.3946813 Z M979.968967,22.0082313 L979.968967,33.6191431 L211.464672,33.6191431 L211.464672,45.2300549 L876.960975,45.2300549 L876.960975,56.8409667 L41.6214956,56.8409667 L41.6214956,68.4545167 L738.53651,68.4545167 L738.53651,80.0654285 L1097,80.0654285 L1097,22.0082313 L979.968967,22.0082313 Z M109.56031,45.2300549 L177.491406,45.2300549 L177.491406,33.6165049 L109.56031,33.6165049 L109.56031,45.2300549 Z M41.6214956,45.2300549 L75.5870439,45.2300549 L75.5870439,33.6165049 L41.6214956,33.6165049 L41.6214956,45.2300549 Z M318.956642,91.673702 L318.956642,103.287252 L361.913297,103.287252 L361.913297,114.898164 L255.679311,114.898164 L255.679311,126.509076 L481.012671,126.509076 L481.012671,138.122626 L606.556314,138.122626 L606.556314,149.733537 L528.862341,149.733537 L528.862341,161.347087 L909.151455,161.347087 L909.151455,172.957999 L1097,172.957999 L1097,91.673702 L318.956642,91.673702 Z M217.052279,103.287252 L284.991093,103.287252 L284.991093,91.673702 L217.052279,91.673702 L217.052279,103.287252 Z M291.088067,161.347087 L494.896793,161.347087 L494.896793,149.733537 L291.088067,149.733537 L291.088067,161.347087 Z M621.042416,196.182461 L1097,196.182461 L1097,184.571549 L621.042416,184.571549 L621.042416,196.182461 Z M218.657558,207.793373 L218.657558,219.406923 L460.090016,219.406923 L460.090016,231.017835 L907.538458,231.017835 L907.538458,242.626108 L669.331994,242.626108 L669.331994,254.242296 L1097,254.242296 L1097,207.793373 L218.657558,207.793373 Z M1084.58996,265.853208 L1084.58996,277.46412 L0,277.46412 L0,289.075032 L122.086119,289.075032 L122.086119,300.688582 L315.228998,300.688582 L315.228998,312.299493 L245.430221,312.299493 L245.430221,323.910405 L989.623796,323.910405 L989.623796,335.523955 L767.508713,335.523955 L767.508713,347.134867 L947.786205,347.134867 L947.786205,358.745779 L719.219135,358.745779 L719.219135,370.356691 L442.385638,370.356691 L442.385638,375 L1097,375 L1097,265.853208 L1084.58996,265.853208 Z M41.6214956,323.910405 L211.464672,323.910405 L211.464672,312.299493 L41.6214956,312.299493 L41.6214956,323.910405 Z" id="Fill-1" stroke="none" fill="url(#linearGradient-5)" fill-rule="evenodd" mask="url(#mask-4)"></path>
                    </g>
                </g>
            </g>
        </g>
    </g>
</svg>