<?xml version="1.0" encoding="UTF-8"?>
<svg width="291px" height="291px" viewBox="0 0 291 291" version="1.1" xmlns="http://www.w3.org/2000/svg" xmlns:xlink="http://www.w3.org/1999/xlink">
    <title>Fill 12</title>
    <defs>
        <linearGradient x1="49.9996152%" y1="98.8787058%" x2="49.9996152%" y2="-1.12152517%" id="linearGradient-1">
            <stop stop-color="#FEFEFE" offset="0%"></stop>
            <stop stop-color="#FEFEFE" offset="100%"></stop>
        </linearGradient>
    </defs>
    <g id="Web" stroke="none" stroke-width="1" fill="none" fill-rule="evenodd">
        <g id="01-03-Careers" transform="translate(-1149.000000, -1097.000000)" fill="url(#linearGradient-1)">
            <path d="M1420.59824,1116.39941 L1440,1116.39941 L1440,1097 L1420.59824,1097 L1420.59824,1116.39941 Z M1381.80132,1116.39941 L1401.20309,1116.39941 L1401.20309,1097 L1381.80132,1097 L1381.80132,1116.39941 Z M1343,1116.39941 L1362.39956,1116.39941 L1362.39956,1097 L1343,1097 L1343,1116.39941 Z M1304.19647,1116.39941 L1323.59824,1116.39941 L1323.59824,1097 L1304.19647,1097 L1304.19647,1116.39941 Z M1265.39956,1116.39941 L1284.80132,1116.39941 L1284.80132,1097 L1265.39956,1097 L1265.39956,1116.39941 Z M1226.59824,1116.39941 L1246,1116.39941 L1246,1097 L1226.59824,1097 L1226.59824,1116.39941 Z M1187.79691,1116.39941 L1207.19647,1116.39941 L1207.19647,1097 L1187.79691,1097 L1187.79691,1116.39941 Z M1149,1116.39941 L1168.39735,1116.39941 L1168.39735,1097 L1149,1097 L1149,1116.39941 Z M1420.59824,1155.19824 L1440,1155.19824 L1440,1135.79882 L1420.59824,1135.79882 L1420.59824,1155.19824 Z M1343,1155.19824 L1362.39956,1155.19824 L1362.39956,1135.79882 L1343,1135.79882 L1343,1155.19824 Z M1265.39956,1155.19824 L1284.80132,1155.19824 L1284.80132,1135.79882 L1265.39956,1135.79882 L1265.39956,1155.19824 Z M1226.59824,1155.19824 L1246,1155.19824 L1246,1135.79882 L1226.59824,1135.79882 L1226.59824,1155.19824 Z M1149,1155.19824 L1168.39735,1155.19824 L1168.39735,1135.79882 L1149,1135.79882 L1149,1155.19824 Z M1420.59824,1193.99926 L1440,1193.99926 L1440,1174.59985 L1420.59824,1174.59985 L1420.59824,1193.99926 Z M1381.80132,1193.99926 L1401.20309,1193.99926 L1401.20309,1174.59985 L1381.80132,1174.59985 L1381.80132,1193.99926 Z M1304.19647,1193.99926 L1362.39956,1193.99926 L1362.39956,1174.59985 L1304.19647,1174.59985 L1304.19647,1193.99926 Z M1265.39956,1193.99926 L1284.80132,1193.99926 L1284.80132,1174.59985 L1265.39956,1174.59985 L1265.39956,1193.99926 Z M1226.59824,1193.99926 L1246,1193.99926 L1246,1174.59985 L1226.59824,1174.59985 L1226.59824,1193.99926 Z M1149,1193.99926 L1168.39735,1193.99926 L1168.39735,1174.59985 L1149,1174.59985 L1149,1193.99926 Z M1420.59824,1232.8025 L1440,1232.8025 L1440,1213.40088 L1420.59824,1213.40088 L1420.59824,1232.8025 Z M1343,1232.8025 L1362.39956,1232.8025 L1362.39956,1213.40088 L1343,1213.40088 L1343,1232.8025 Z M1265.39956,1232.8025 L1284.80132,1232.8025 L1284.80132,1213.40088 L1265.39956,1213.40088 L1265.39956,1232.8025 Z M1226.59824,1232.8025 L1246,1232.8025 L1246,1213.40088 L1226.59824,1213.40088 L1226.59824,1232.8025 Z M1149,1232.8025 L1168.39735,1232.8025 L1168.39735,1213.40088 L1149,1213.40088 L1149,1232.8025 Z M1381.80132,1271.59912 L1440,1271.59912 L1440,1252.19971 L1381.80132,1252.19971 L1381.80132,1271.59912 Z M1343,1271.59912 L1362.39956,1271.59912 L1362.39956,1252.19971 L1343,1252.19971 L1343,1271.59912 Z M1304.19647,1271.59912 L1323.59824,1271.59912 L1323.59824,1252.19971 L1304.19647,1252.19971 L1304.19647,1271.59912 Z M1265.39956,1271.59912 L1284.80132,1271.59912 L1284.80132,1252.19971 L1265.39956,1252.19971 L1265.39956,1271.59912 Z M1226.59824,1271.59912 L1246,1271.59912 L1246,1252.19971 L1226.59824,1252.19971 L1226.59824,1271.59912 Z M1187.79691,1271.59912 L1207.19647,1271.59912 L1207.19647,1252.19971 L1187.79691,1252.19971 L1187.79691,1271.59912 Z M1149,1271.59912 L1168.39735,1271.59912 L1168.39735,1252.19971 L1149,1252.19971 L1149,1271.59912 Z M1420.59824,1310.40015 L1440,1310.40015 L1440,1291.00074 L1420.59824,1291.00074 L1420.59824,1310.40015 Z M1381.80132,1310.40015 L1401.20309,1310.40015 L1401.20309,1291.00074 L1381.80132,1291.00074 L1381.80132,1310.40015 Z M1343,1310.40015 L1362.39956,1310.40015 L1362.39956,1291.00074 L1343,1291.00074 L1343,1310.40015 Z M1304.19647,1310.40015 L1323.59824,1310.40015 L1323.59824,1291.00074 L1304.19647,1291.00074 L1304.19647,1310.40015 Z M1265.39956,1310.40015 L1284.80132,1310.40015 L1284.80132,1291.00074 L1265.39956,1291.00074 L1265.39956,1310.40015 Z M1226.59824,1310.40015 L1246,1310.40015 L1246,1291.00074 L1226.59824,1291.00074 L1226.59824,1310.40015 Z M1187.79691,1310.40015 L1207.19647,1310.40015 L1207.19647,1291.00074 L1187.79691,1291.00074 L1187.79691,1310.40015 Z M1149,1310.40015 L1168.39735,1310.40015 L1168.39735,1291.00074 L1149,1291.00074 L1149,1310.40015 Z M1420.59824,1349.20118 L1440,1349.20118 L1440,1329.80176 L1420.59824,1329.80176 L1420.59824,1349.20118 Z M1381.80132,1349.20118 L1401.20309,1349.20118 L1401.20309,1329.80176 L1381.80132,1329.80176 L1381.80132,1349.20118 Z M1343,1349.20118 L1362.39956,1349.20118 L1362.39956,1329.80176 L1343,1329.80176 L1343,1349.20118 Z M1304.19647,1349.20118 L1323.59824,1349.20118 L1323.59824,1329.80176 L1304.19647,1329.80176 L1304.19647,1349.20118 Z M1265.39956,1349.20118 L1284.80132,1349.20118 L1284.80132,1329.80176 L1265.39956,1329.80176 L1265.39956,1349.20118 Z M1226.59824,1349.20118 L1246,1349.20118 L1246,1329.80176 L1226.59824,1329.80176 L1226.59824,1349.20118 Z M1187.79691,1349.20118 L1207.19647,1349.20118 L1207.19647,1329.80176 L1187.79691,1329.80176 L1187.79691,1349.20118 Z M1149,1349.20118 L1168.39735,1349.20118 L1168.39735,1329.80176 L1149,1329.80176 L1149,1349.20118 Z M1420.59824,1388 L1440,1388 L1440,1368.59838 L1420.59824,1368.59838 L1420.59824,1388 Z M1343,1388 L1362.39956,1388 L1362.39956,1368.59838 L1343,1368.59838 L1343,1388 Z M1304.19647,1388 L1323.59824,1388 L1323.59824,1368.59838 L1304.19647,1368.59838 L1304.19647,1388 Z M1265.39956,1388 L1284.80132,1388 L1284.80132,1368.59838 L1265.39956,1368.59838 L1265.39956,1388 Z M1226.59824,1388 L1246,1388 L1246,1368.59838 L1226.59824,1368.59838 L1226.59824,1388 Z M1187.79691,1388 L1207.19647,1388 L1207.19647,1368.59838 L1187.79691,1368.59838 L1187.79691,1388 Z M1149,1388 L1168.39735,1388 L1168.39735,1368.59838 L1149,1368.59838 L1149,1388 Z" id="Fill-12"></path>
        </g>
    </g>
</svg>