<?xml version="1.0" encoding="UTF-8"?>
<svg width="117px" height="117px" viewBox="0 0 117 117" version="1.1" xmlns="http://www.w3.org/2000/svg" xmlns:xlink="http://www.w3.org/1999/xlink">
    <title>Fill 1 Copy</title>
    <g id="Web" stroke="none" stroke-width="1" fill="none" fill-rule="evenodd" fill-opacity="0.03">
        <g id="01-06-Product-2" transform="translate(-774.000000, -155.000000)" fill="#FEFEFE">
            <g id="des-banner" transform="translate(343.000000, 0.000000)">
                <path d="M500.779,155 L500.779,178.26 L524.039,178.26 L524.039,201.518 L547.297,201.518 L547.297,155 L500.779,155 Z M431,155 L431,178.26 L431,201.518 L454.259,201.518 L454.259,178.26 L477.519,178.26 L477.519,155 L431,155 Z M524.039,224.778 L524.039,248.038 L500.779,248.038 L500.779,271.297 L524.039,271.297 L547.297,271.297 L547.297,224.778 L524.039,224.778 Z M431,224.778 L431,248.038 L431,271.297 L454.259,271.297 L477.519,271.297 L477.519,248.038 L454.259,248.038 L454.259,224.778 L431,224.778 Z" id="Fill-1-Copy"></path>
            </g>
        </g>
    </g>
</svg>