<?xml version="1.0" encoding="UTF-8"?>
<svg width="72px" height="69px" viewBox="0 0 72 69" version="1.1" xmlns="http://www.w3.org/2000/svg" xmlns:xlink="http://www.w3.org/1999/xlink">
    <title>card/data list 4@3x</title>
    <defs>
        <polygon id="path-1" points="0 0 46 0 46 43.9999018 0 43.9999018"></polygon>
        <polygon id="path-3" points="-7.59153302e-15 0 8.02247269 0 8.02247269 14.488443 -7.59153302e-15 14.488443"></polygon>
    </defs>
    <g id="Web" stroke="none" stroke-width="1" fill="none" fill-rule="evenodd">
        <g id="01-01-Landing" transform="translate(-734.000000, -3653.000000)">
            <g id="card/data-list" transform="translate(734.000000, 3653.000000)">
                <g id="icons/red" fill="#E85453">
                    <polygon id="icons/ref" points="0 0 0 15 7.50016122 15 7.50016122 7.50016122 15 7.50016122 15 0"></polygon>
                </g>
                <g id="Group" transform="translate(57.000000, 54.000000)" fill="#E85453">
                    <g id="icons/red-copy" transform="translate(7.500000, 7.500000) rotate(-180.000000) translate(-7.500000, -7.500000) ">
                        <polygon id="icons/ref" points="0 0 0 15 7.50016122 15 7.50016122 7.50016122 15 7.50016122 15 0"></polygon>
                    </g>
                </g>
                <g id="Group" transform="translate(13.000000, 11.000000)">
                    <g id="Group-11" transform="translate(0.000000, 1.000000)">
                        <g id="Group-3" transform="translate(0.000000, 0.000098)">
                            <mask id="mask-2" fill="white">
                                <use xlink:href="#path-1"></use>
                            </mask>
                            <g id="Clip-2"></g>
                            <path d="M4.46332323,38.6140678 C4.86397821,38.5842918 5.10303569,38.3734884 5.09395417,37.9481923 C5.08487266,37.5205247 4.83352843,37.3070862 4.4125736,37.3202614 C3.99696083,37.3334367 3.73092592,37.5740161 3.74080874,37.9787588 C3.75069157,38.3835015 4.02901323,38.5940415 4.46332323,38.6140678 M2.64461671,27.8059095 C3.07999512,27.7964234 3.33935245,27.6085448 3.35003658,27.1806137 C3.36045361,26.7497841 3.09495291,26.5437236 2.69002427,26.5276499 C2.26826813,26.5105221 2.01131473,26.7611147 1.98967936,27.1537362 C1.96644137,27.5756067 2.27093916,27.7553167 2.64461671,27.8059095 M10.2020381,2.67075568 C10.2180643,3.05389102 10.4357535,3.32978008 10.8372098,3.34400932 C11.2677804,3.35929257 11.5599914,3.07813342 11.5658677,2.65916148 C11.5720111,2.236764 11.2776632,1.95560484 10.8510992,1.96113844 C10.4507113,1.96614502 10.222338,2.23465596 10.2020381,2.67075568 M22.501879,40.6422609 C22.0966833,40.6949618 21.8520166,40.9168324 21.8490785,41.3300073 C21.8466746,41.7444996 22.0798558,41.9958828 22.5032145,42.0043149 C22.9650362,42.0135376 23.2110383,41.7305339 23.204895,41.3026028 C23.1990187,40.893117 22.9113484,40.6904822 22.501879,40.6422609 M24.220956,16.382205 L24.220956,14.3411003 C24.220956,14.2973585 24.2212231,14.2533533 24.2201547,14.2096116 C24.1955812,13.1532226 23.5596082,12.4573076 22.5852153,12.4201535 C21.5734279,12.3814183 20.8236688,13.0570435 20.7964243,14.1347763 C20.7574272,15.6920871 20.7916164,17.2509789 20.7761244,18.8090802 C20.7715837,19.2470244 20.9732467,19.3874722 21.3837845,19.3800941 C22.1177844,19.3671824 22.8523186,19.3648109 23.5860514,19.3803576 C24.0409284,19.3901073 24.231373,19.1988031 24.2233599,18.7524267 C24.2094706,17.9627042 24.2193534,17.1724546 24.220956,16.382205 M28.4924723,15.8277919 C28.4550779,14.9977531 28.6327016,13.9287159 28.4120742,12.8955153 C27.7355015,9.73109149 25.0877063,8.009354 22.3047568,8.14663977 C18.9643626,8.31133 16.5337224,10.822263 16.4869793,13.9619175 C16.4677479,15.234907 16.4688163,16.5084236 16.4845754,17.7814132 C16.5067449,19.5877356 16.1750026,19.3524262 18.1902972,19.3832562 C18.6948554,19.3908978 18.8420293,19.1800943 18.8364201,18.7113201 C18.8182571,17.1969605 18.8201268,15.6823374 18.8340162,14.1677144 C18.8529805,12.0831314 20.472428,10.4478233 22.5149671,10.4304321 C24.5396103,10.4133043 26.209006,12.0712737 26.2346479,14.144526 C26.250407,15.3956447 26.2261006,16.6470269 26.2421268,17.8978821 C26.2629609,19.5379332 25.9373619,19.3661284 27.8621085,19.3806211 C28.3191223,19.3840467 28.5028894,19.1937965 28.4964789,18.7497917 C28.4831237,17.8499243 28.4924723,16.9500569 28.4924723,15.8277919 M22.4933317,21.3872068 C20.1340081,21.3872068 17.7744173,21.4011726 15.4153608,21.3774572 C14.8285348,21.3713966 14.5827997,21.5244926 14.5875385,22.15216 C14.6127153,25.445701 14.6092429,28.7395055 14.5897444,32.0330465 C14.5862721,32.5974728 14.7585537,32.8008982 15.3517902,32.7987901 C20.092607,32.7798178 24.8334239,32.7782368 29.5742408,32.800663 C30.2043375,32.8035332 30.3734139,32.5845611 30.3699416,31.9974734 C30.3496417,28.7476741 30.3453681,25.4978748 30.3727336,22.2483391 C30.3782218,21.5951118 30.190181,21.3629644 29.5042597,21.3735046 C27.1676399,21.4093412 24.8302187,21.3872068 22.4933317,21.3872068 M36.6041331,26.5877289 C37.694716,26.5877289 38.7861002,26.5655945 39.8756146,26.597215 C40.4106226,26.6127618 40.7690752,26.4841717 41.0946742,26.0138164 C41.7645693,25.0470189 42.7544542,24.7081523 43.9056696,24.9840413 C45.062494,25.2617749 45.7254445,26.0659902 45.9610296,27.1790327 C46.179253,28.2103887 45.4588754,29.4599264 44.4492248,29.9510985 C43.4133981,30.4554459 42.1085984,30.3034038 41.4007746,29.4148671 C40.8446655,28.7165806 40.2271226,28.5645386 39.3942944,28.5840379 C37.3255792,28.6317322 35.2547271,28.6167124 33.1852106,28.5895715 C32.5748795,28.5816664 32.3601284,28.7806122 32.382298,29.3882532 C32.4226306,30.5065657 32.4025979,31.6275133 32.3889756,32.7471433 C32.3847019,33.121583 32.4843315,33.4182889 32.7626531,33.6878538 C33.7634893,34.6564959 34.740019,35.6493803 35.7392526,36.6198668 C36.4166266,37.2775737 37.7860653,37.1513551 38.346181,36.3995772 C39.0310339,35.4802105 40.2327318,35.0844269 41.3123634,35.4222395 C42.4702563,35.784558 43.219214,36.8077455 43.2045233,38.0074808 C43.1911682,39.135543 42.4483538,40.1250018 41.3446829,40.4865298 C40.2519632,40.8443687 38.9896329,40.4604429 38.3403047,39.4817877 C38.0371425,39.0253981 37.6856345,38.8459517 37.1808092,38.924476 C35.8012205,39.1389685 34.7568466,38.6762549 33.8719332,37.5945695 C33.1494188,36.7110394 32.2450069,35.9734907 31.4402246,35.1534651 C31.1405347,34.848327 30.8218804,34.7041902 30.383831,34.7078792 C28.3583865,34.72448 26.3326749,34.7313311 24.3077646,34.7047172 C23.7318898,34.697339 23.5061875,34.874941 23.5291584,35.4575491 C23.5652173,36.3782333 23.551328,37.3018161 23.533432,38.2235544 C23.5254189,38.6369927 23.6688534,38.9081387 24.024368,39.1497722 C25.0682077,39.8596529 25.4581786,41.0306663 25.0788919,42.160046 C24.7311233,43.1961451 23.6373352,43.9921918 22.5502247,43.9999018 C21.4000778,44.0082656 20.3335342,43.2361978 19.9785539,42.1387022 C19.6136908,41.0093225 20.0170168,39.8074791 21.0426936,39.135016 C21.3827161,38.9120913 21.5250822,38.6709848 21.5178704,38.2780998 C21.4997073,37.3120928 21.4983718,36.3455588 21.5170691,35.3798153 C21.5261506,34.90946 21.3576084,34.7060347 20.8589265,34.7094602 C18.722367,34.7247435 16.5855404,34.7221084 14.4487138,34.7102508 C14.0745021,34.7081427 13.8266302,34.8757315 13.5824978,35.118946 C12.5327817,36.1640043 11.4574237,37.1842932 10.4282746,38.2483238 C9.96324774,38.7292192 9.46670267,39.0014192 8.78371947,38.9263205 C8.49791892,38.8947 8.20276975,38.9479279 7.91696919,38.9155168 C7.30396706,38.8462152 6.91185939,39.0572822 6.53791474,39.5787573 C5.63190027,40.8425242 3.74134295,40.953723 2.59199735,39.8862669 C1.45867795,38.834621 1.47096471,37.0441089 2.61817348,36.0111718 C3.79850306,34.9481952 5.61240172,35.1055073 6.57370658,36.3537274 C7.22517158,37.1995764 8.61945093,37.294438 9.38950981,36.539498 C10.3208991,35.6261919 11.2397345,34.7002376 12.1799382,33.7961541 C12.4726835,33.5142045 12.6040983,33.2088029 12.5992904,32.8059047 C12.5845998,31.5323882 12.5768538,30.2586081 12.6022286,28.9856185 C12.6129127,28.436739 12.4459731,28.1887814 11.8455249,28.195896 C9.82061457,28.2201384 7.79490297,28.2101252 5.76945848,28.2009026 C5.37948763,28.1993215 5.11772637,28.3189525 4.88801751,28.6570286 C4.20450011,29.6625612 2.96647621,30.0659864 1.83556074,29.7034044 C0.752189667,29.3561057 -0.00878769931,28.290494 -4.90701024e-05,27.1329194 C0.00884111998,25.9658586 0.762873799,24.9748187 1.90607602,24.6269929 C3.0140206,24.2897074 4.24136037,24.6999836 4.88614779,25.691814 C5.13802622,26.0796925 5.42008733,26.2067016 5.86508147,26.202749 C7.84591971,26.1858847 9.82729215,26.1742905 11.8075962,26.2080191 C12.4355561,26.2185593 12.6193232,25.9974791 12.6043654,25.4059118 C12.5717788,24.0891805 12.5792577,22.7708682 12.6022286,21.4538734 C12.6105088,20.975613 12.44811,20.6267332 12.1062177,20.2939272 C10.1414057,18.3819396 8.20276975,16.443865 6.23154723,14.538465 C5.78147813,14.1034193 5.5942387,13.6417597 5.60358731,13.0241055 C5.63216737,11.1142259 5.62415427,9.20355576 5.60786097,7.29341266 C5.60332021,6.77246454 5.76919137,6.36324227 6.1490123,6.00513984 C6.776438,5.41330905 7.37261262,4.78985774 7.99977122,4.19829045 C8.28156523,3.93241455 8.392146,3.68551097 8.2959888,3.27576169 C8.00431198,2.03650068 8.54225807,0.883405606 9.60960295,0.312918667 C10.6144456,-0.223839713 11.8642221,-0.0588859838 12.7082686,0.721877433 C13.5694097,1.51845111 13.807933,2.78748811 13.2876157,3.80487844 C12.7240277,4.90738068 11.6224936,5.4586318 10.3460068,5.23333557 C9.95336492,5.16403393 9.67637878,5.24282173 9.38790719,5.51449472 C7.5643928,7.23412418 7.55958494,7.22911759 7.55958494,9.7440032 C7.55958494,10.6881393 7.5724059,11.6325389 7.55397577,12.5764116 C7.54649688,12.9577024 7.67150124,13.2420236 7.94715187,13.507109 C9.84411966,15.3297686 11.6556144,17.2375402 13.6100094,19.0027559 C13.7865647,19.1624395 13.9473609,19.4090796 14.2256826,19.3150085 C14.5635683,19.2009112 14.4567269,18.8773278 14.4639387,18.6306877 C14.5186949,16.7885287 14.3528237,14.9413632 14.5665064,13.1031568 C15.0451556,8.98774569 18.7851363,5.95929008 23.0814932,6.19433597 C27.1187599,6.41515263 30.4701053,9.86310717 30.5259299,13.8725895 C30.5480995,15.475223 30.5280668,17.0783835 30.5382167,18.6812806 C30.5392851,18.9055228 30.4343135,19.2077623 30.7425507,19.3129005 C31.0206053,19.4080256 31.1779291,19.1563789 31.3574226,19.0003843 C31.6910346,18.7105295 32.007285,18.3980134 32.3603955,18.133455 C32.8136699,17.7940614 33.2789639,17.8296345 33.6830912,18.2306881 C34.0776028,18.6222556 34.0335308,19.0559838 33.7442579,19.4878674 C33.6833583,19.5785129 33.6144456,19.6754825 33.5255002,19.734771 C32.4709763,20.433321 32.2896132,21.4377997 32.376956,22.6053875 C32.4552172,23.6538713 32.4247674,24.7134224 32.3817638,25.7655953 C32.356389,26.3837765 32.5358824,26.6288356 33.1991,26.6006406 C34.3324194,26.5532098 35.468944,26.5877289 36.6041331,26.5877289" id="Fill-1" fill="#231F20" mask="url(#mask-2)"></path>
                        </g>
                        <g id="Group-6" transform="translate(31.415165, 0.000000)">
                            <mask id="mask-4" fill="white">
                                <use xlink:href="#path-3"></use>
                            </mask>
                            <g id="Clip-5"></g>
                            <path d="M3.33268022,2.63359432 C3.29849099,2.24044582 3.10537529,1.95744213 2.67587315,1.97773197 C2.26907479,1.99670428 2.03108573,2.24966847 2.04310538,2.66995792 C2.05512503,3.08286925 2.29551802,3.34716413 2.70098086,3.34215754 C3.11472391,3.33715096 3.31425009,3.04650565 3.33268022,2.63359432 M5.98047546,10.5634945 C5.97967415,9.73029373 5.95723747,8.89656594 5.98768725,8.06468268 C6.00745289,7.53846447 5.84184883,7.13135023 5.44039254,6.79142961 C5.18771279,6.57825458 4.95025794,6.3432087 4.73337004,6.09472408 C4.20904622,5.49340714 3.68178426,5.15506754 2.75306601,5.26231381 C1.26209526,5.43438216 0.00777806017,4.13662319 -5.81517618e-15,2.66811339 C-0.00717972589,1.19117146 1.20306543,0.00329380449 2.71914389,-0.000137832519 C4.20664229,-0.00329380449 5.50770257,1.22727155 5.33996169,2.71001059 C5.23258615,3.65678175 5.60038743,4.18800654 6.21285535,4.78510742 C8.34460696,6.8631028 7.98775692,6.11685845 8.01553567,9.0454459 C8.02702111,10.2512419 8.0182067,11.4567743 8.01660408,12.6625702 C8.01633698,12.8818059 8.02141194,13.1020955 7.99950947,13.3194866 C7.92338502,14.0789062 7.50162888,14.523438 6.90732398,14.4862839 C6.33732549,14.4507108 5.98982407,14.0009089 5.98314649,13.2596711 C5.97486629,12.3611213 5.98100966,11.4620444 5.98047546,10.5634945" id="Fill-4" fill="#231F20" mask="url(#mask-4)"></path>
                        </g>
                        <path d="M35.7953977,15.4239905 C36.3475003,15.4118693 36.7612433,15.8026463 36.781009,16.3549514 C36.8005075,16.8917098 36.3942433,17.3246475 35.8541604,17.3438833 C35.3098039,17.3631191 34.7999036,16.8927638 34.8073825,16.3781398 C34.8148614,15.8664144 35.2609239,15.4355847 35.7953977,15.4239905" id="Fill-7" fill="#231F20"></path>
                        <path d="M24.2854347,24.8079868 C23.0225702,23.8280141 21.3513047,24.0066701 20.2986505,25.1961288 C19.3830204,26.2303834 19.4826499,27.9550194 20.5163398,28.9718827 C21.5633848,30.0013943 23.3131786,30.0817631 24.3989537,29.1289313 C24.6615162,28.898365 24.8714594,28.6071927 25.0947578,28.3352562 C25.5242599,27.8122 26.0157301,27.6957311 26.4836951,28.0158889 C26.9620771,28.3431613 27.0411397,28.8783387 26.7000488,29.4775476 C25.2665052,31.9940142 21.5465573,32.557123 19.3466943,30.59059 C17.3559732,28.8111451 17.1300038,25.9544943 18.81596,23.88335 C20.3806513,21.9613492 23.2301095,21.5982402 25.3669361,23.0873034 C25.847455,23.4219539 26.085444,23.5310447 26.3034003,22.8517305 C26.4468348,22.4048271 26.8835488,22.1829564 27.3902438,22.3110195 C27.9279227,22.4467243 28.1717881,22.85094 28.0980676,23.3571318 C27.9372714,24.4659582 27.6405196,25.5502786 27.264171,26.6058771 C27.0956288,27.0796579 26.6338072,27.208248 26.1567606,27.1560742 C25.2726486,27.0593681 24.3880024,26.9581824 23.510568,26.8172076 C22.7803075,26.6999481 22.3946103,26.2409235 22.4774123,25.6804498 C22.5599473,25.1207665 22.9435076,24.8815046 23.7290585,24.8883557 C23.8989362,24.8896732 24.079231,24.9573938 24.2854347,24.8079868" id="Fill-9" fill="#231F20"></path>
                    </g>
                </g>
            </g>
        </g>
    </g>
</svg>