<?xml version="1.0" encoding="UTF-8"?>
<svg width="72px" height="69px" viewBox="0 0 72 69" version="1.1" xmlns="http://www.w3.org/2000/svg" xmlns:xlink="http://www.w3.org/1999/xlink">
    <title>card/data list@3x</title>
    <defs>
        <polygon id="path-1" points="-8.54315874e-16 0 25.4162855 0 25.4162855 29.5077288 -8.54315874e-16 29.5077288"></polygon>
        <polygon id="path-3" points="0 0 17.7939564 0 17.7939564 28.5467207 0 28.5467207"></polygon>
        <polygon id="path-5" points="0 3.38569232e-15 17.6885773 3.38569232e-15 17.6885773 28.5462271 0 28.5462271"></polygon>
    </defs>
    <g id="Web" stroke="none" stroke-width="1" fill="none" fill-rule="evenodd">
        <g id="01-01-Landing" transform="translate(-134.000000, -3482.000000)">
            <g id="Group" transform="translate(134.000000, 3482.000000)">
                <g fill="#E85453" id="icons/red">
                    <polygon id="icons/ref" points="0 0 0 15 7.50016122 15 7.50016122 7.50016122 15 7.50016122 15 0"></polygon>
                </g>
                <g transform="translate(57.000000, 54.000000)" fill="#E85453" id="icons/red-copy">
                    <g transform="translate(7.500000, 7.500000) rotate(-180.000000) translate(-7.500000, -7.500000) ">
                        <polygon id="icons/ref" points="0 0 0 15 7.50016122 15 7.50016122 7.50016122 15 7.50016122 15 0"></polygon>
                    </g>
                </g>
                <g transform="translate(13.000000, 11.000000)" id="Group-16">
                    <g transform="translate(3.000000, 0.000000)">
                        <g id="Group-3" transform="translate(7.433709, 0.000000)">
                            <mask id="mask-2" fill="white">
                                <use xlink:href="#path-1"></use>
                            </mask>
                            <g id="Clip-2"></g>
                            <path d="M1.97748417,9.09359893 C2.03255147,10.3601195 1.90750783,11.9037213 2.06549566,13.4468466 C2.68710684,19.5207135 5.78963195,23.9166074 11.1465496,26.8518094 C12.2315437,27.4462354 13.1482098,27.4238402 14.2120426,26.8403735 C20.0405191,23.6450059 23.1105809,18.7664238 23.3556184,12.181279 C23.4424275,9.84765042 23.3481639,7.50806569 23.3849555,5.17181643 C23.3948148,4.55237444 23.1820001,4.30817135 22.5853976,4.1809475 C19.4215531,3.50551749 16.2654035,2.79458869 13.1073301,2.09342801 C12.8495478,2.0360105 12.5941702,2.01623601 12.3354261,2.07365352 C9.07996299,2.79649466 5.82570223,3.52672146 2.56687257,4.23502955 C2.09988266,4.33676098 1.96113231,4.56500153 1.96930824,5.01600294 C1.99263369,6.28300005 1.97748417,7.55047365 1.97748417,9.09359893 M0.0133371322,8.73336959 C0.0133371322,6.90863645 0.00900869847,5.44365616 0.015020412,3.97867587 C0.0188679086,3.00257825 0.236011001,2.71286999 1.20485875,2.4960653 C4.9071124,1.66791902 8.61273262,0.855258783 12.3164291,0.0337834128 C12.6189385,-0.0331639709 12.9077412,0.00924398038 13.2039985,0.0747618826 C16.7133963,0.850732091 20.2239966,1.62122262 23.7338754,2.39504861 C23.9870888,2.45103663 24.237657,2.51988999 24.4889466,2.58445491 C25.0271152,2.72287637 25.3245748,3.09859175 25.3173607,3.61844653 C25.2649386,7.35582591 25.6958582,11.1234627 25.0843467,14.8255815 C23.9399569,21.7576138 19.9753521,26.5780637 13.4545667,29.337916 C12.9228907,29.5628211 12.4289684,29.56568 11.8970519,29.3383925 C4.96771048,26.3781745 1.0355689,21.1927304 0.114093451,13.7732449 C-0.108580418,11.9782926 0.0744161416,10.1730957 0.0133371322,8.73336959" id="Fill-1" fill="#231F20" mask="url(#mask-2)"></path>
                        </g>
                        <g id="Group-6" transform="translate(22.206044, 17.453279)">
                            <mask id="mask-4" fill="white">
                                <use xlink:href="#path-3"></use>
                            </mask>
                            <g id="Clip-5"></g>
                            <path d="M12.6089917,7.2050145 C12.6089917,8.43317736 12.6099536,9.66134022 12.6087513,10.8892648 C12.6075489,11.9608995 12.2422772,12.8872035 11.5603084,13.7263091 C10.5077776,15.0218959 9.50165724,16.3541726 8.47629938,17.6714398 C8.21442914,18.0078445 7.89003708,18.2136898 7.443487,18.1295886 C7.02410987,18.0502524 6.78772929,17.7691211 6.67639236,17.3803021 C6.56649823,16.9967245 6.74396402,16.6829534 6.96519507,16.3918156 C7.38553408,15.8378915 7.8241487,15.297071 8.23414756,14.7359995 C8.66747187,14.1432412 8.64102033,13.6045649 8.19326791,13.2641101 C7.73998471,12.9193668 7.04358782,13.0549293 6.621806,13.5971793 C5.42571548,15.1341101 4.22505605,16.6679438 3.05589801,18.2248874 C2.38354797,19.1202193 2.03294483,20.1387249 2.03967795,21.2732567 C2.05122044,23.1944798 2.04448732,25.1159412 2.03919702,27.0371644 C2.03679233,27.9963465 1.68258217,28.5271606 1.05111178,28.5462203 C0.393911261,28.5659948 0.000745196671,28.0192182 0.0108448754,27.0312082 C0.0315251699,25.0118273 -0.0523983508,22.99197 0.0601409262,20.9728273 C0.150797566,19.3527483 0.751968918,17.9377999 1.74414212,16.6665143 C2.91810953,15.1624615 4.0778893,13.6479259 5.25834937,12.1493528 C6.35680967,10.7546553 8.44936691,10.666504 9.69739863,11.9456517 C10.1129283,12.3716371 10.2733208,12.3349471 10.4769976,11.76649 C10.5799182,11.4796407 10.5650091,11.1806408 10.5652496,10.8840234 C10.5666924,8.60638287 10.558276,6.32826585 10.5719827,4.05062532 C10.5753493,3.49813072 10.5914607,2.93396202 10.7042404,2.39623873 C11.0151662,0.910769201 12.3685232,-0.0729523192 13.9147359,0.00423968187 C15.404679,0.07857272 16.6481418,1.255036 16.8022821,2.77886328 C17.1329264,6.04761098 17.4368786,9.31874115 17.7704085,12.5870124 C17.892326,13.7811059 17.5364326,14.8017557 16.8049273,15.7378278 C14.5048457,18.6816067 12.22833,21.6437307 9.91959157,24.5810769 C9.52834925,25.0785365 9.31529412,25.5752813 9.36939954,26.2080651 C9.40811498,26.6600195 9.39392733,27.1198361 9.36314736,27.5734582 C9.32419146,28.1495392 8.93511336,28.5293048 8.42195349,28.5440761 C7.8922013,28.5595622 7.44541075,28.1616898 7.42376858,27.568455 C7.39178626,26.6979008 7.40982141,25.8256788 7.41871874,24.9544098 C7.4220853,24.5972777 7.63682371,24.3240085 7.84434806,24.0557425 C10.2278722,20.9752098 12.5890328,17.8772852 15.0129557,14.8282011 C15.645388,14.0322182 15.8514695,13.2600599 15.7374874,12.2596611 C15.3924151,9.23130453 15.1435301,6.19222686 14.8525632,3.15767588 C14.7607042,2.20016152 13.9529704,1.71127884 13.1688025,2.12654322 C12.7467802,2.34978058 12.6089917,2.71453661 12.6104345,3.16434679 C12.6150034,4.51115661 12.6121178,5.85820468 12.6121178,7.2050145 L12.6089917,7.2050145 Z" id="Fill-4" fill="#231F20" mask="url(#mask-4)"></path>
                        </g>
                        <g id="Group-9" transform="translate(0.000000, 17.452507)">
                            <mask id="mask-6" fill="white">
                                <use xlink:href="#path-5"></use>
                            </mask>
                            <g id="Clip-8"></g>
                            <path d="M7.12792039,7.01685689 C7.1286418,8.30386673 7.12599664,9.59111483 7.13104648,10.8781247 C7.13200836,11.0942146 7.13489398,11.318405 7.18996127,11.5249651 C7.40181406,12.3214245 7.59731498,12.375983 8.18165354,11.8282534 C9.40660028,10.680618 11.3981607,10.7906881 12.4446798,12.1046198 C13.7441718,13.7363729 15.0277929,15.3814679 16.276546,17.0513405 C17.1912884,18.2740237 17.6840084,19.663718 17.6854512,21.2035078 C17.6871345,23.2429014 17.687375,25.2825333 17.6885773,27.3221651 C17.6885773,27.5608885 17.6799204,27.7988972 17.5616099,28.0159402 C17.3884726,28.3335233 17.1357401,28.5398451 16.7565212,28.5462271 C16.3614314,28.5527105 16.0663765,28.3814109 15.8797729,28.0319027 C15.7241898,27.7400502 15.7181781,27.4243731 15.7181781,27.1058369 C15.7193804,25.2644265 15.6994215,23.4225396 15.7244303,21.5816057 C15.7431868,20.2159743 15.3298214,19.0206896 14.4877005,17.9459577 C13.3974162,16.5541192 12.3350262,15.1410768 11.2524368,13.7428056 C11.0107659,13.4307021 10.7659689,13.1054951 10.3049908,13.0883413 C9.92601233,13.0747612 9.58310419,13.1407556 9.35682329,13.4764455 C9.11899991,13.8295275 9.13270661,14.1995249 9.37245375,14.5347384 C9.75359639,15.0672202 10.165519,15.5780216 10.5596469,16.1016883 C10.7024852,16.2918094 10.853259,16.4814539 10.9614699,16.6906347 C11.205305,17.1630783 11.0805018,17.6846008 10.6822859,17.9640645 C10.2578589,18.2618731 9.76441747,18.2294715 9.39674107,17.7896677 C8.74723554,17.0125063 8.14389998,16.1977018 7.51988411,15.4000512 C7.06708185,14.8208729 6.63111239,14.2276381 6.1533014,13.6694256 C5.45930919,12.858433 5.15824257,11.9256964 5.15944492,10.8774099 C5.16209007,8.50137343 5.16016632,6.12533692 5.15968538,3.74906217 C5.15968538,3.55107899 5.16449476,3.3526193 5.15391414,3.15511261 C5.11688198,2.46848499 4.66528207,1.985082 4.05497291,1.97126368 C3.45572531,1.9576836 2.99907555,2.37247149 2.92501124,3.05195169 C2.75596185,4.60555984 2.60518808,6.16107396 2.45080727,7.71634984 C2.30027397,9.23207672 2.17739454,10.7509008 1.99824548,12.2632922 C1.88859183,13.1905492 2.04177029,13.9617545 2.66121725,14.7386777 C5.11351543,17.8142072 7.49054695,20.9485836 9.90749625,24.0517497 C10.2177007,24.4500985 10.3706387,24.8622657 10.3540463,25.3640137 C10.3312018,26.0563593 10.360539,26.7503725 10.3417824,27.4427181 C10.3232664,28.1345871 9.92553139,28.5579519 9.34768549,28.5453248 C8.80086003,28.5334125 8.42164114,28.1076652 8.38388758,27.4632073 C8.38172336,27.4236583 8.37595212,27.3829181 8.38268524,27.3445603 C8.64335313,25.8347896 8.00202354,24.6909662 7.05794405,23.5419013 C4.9646654,20.9945653 3.00869429,18.3369209 0.962787943,15.7500359 C0.129323981,14.6962698 -0.111865965,13.5643587 0.0449195234,12.2489974 C0.318813191,9.95086767 0.490507729,7.64130206 0.708131759,5.33650138 C0.791574342,4.4504611 0.856019911,3.56084711 0.976735119,2.67933352 C1.2015732,1.03590628 2.59989777,-0.0905251411 4.24830962,0.00572661343 C5.83852808,0.0984046642 7.07501731,1.40113881 7.12527524,3.03670389 C7.12671805,3.07625288 7.12719899,3.11604012 7.12719899,3.1555891 C7.12719899,4.44259895 7.12719899,5.72984704 7.12792039,7.01685689" id="Fill-7" fill="#231F20" mask="url(#mask-6)"></path>
                        </g>
                        <path d="M29.4191617,10.2389948 C29.4674959,12.0132196 29.4513845,14.2827597 28.7436856,16.4955971 C27.3980237,20.7032759 24.7086235,23.7621281 20.7704702,25.7755528 C20.2118618,26.0609726 19.6926902,25.9244571 19.1730377,25.6483289 C15.8062377,23.8595711 13.3472064,21.2567235 11.9101664,17.7309074 C11.2988953,16.231143 10.9660869,14.6682432 10.8201225,13.062459 C10.8076181,12.9245141 10.804492,12.7851396 10.8119465,12.6469564 C10.8441693,12.0337088 11.2625846,11.5748453 11.7906535,11.5667449 C12.2694264,11.5593592 12.7099647,12.0089312 12.7621464,12.5933508 C12.8592957,13.679042 12.983137,14.7573476 13.3106551,15.8061105 C14.3886756,19.2590231 16.5156198,21.8702093 19.6758574,23.6692118 C20.0026542,23.8552826 20.2544247,23.8145424 20.5598198,23.6380014 C24.5429407,21.3332007 26.8389343,17.9281758 27.3547393,13.3788509 C27.5759704,11.4259409 27.4021116,9.46111862 27.4506863,7.50249072 C27.4591027,7.16823029 27.3220356,6.9940718 26.9921128,6.92235947 C24.8254912,6.45229831 22.6612743,5.97223077 20.4953742,5.49978713 C19.9685076,5.38519036 19.4618404,5.54267158 18.956616,5.65321815 C16.7325225,6.1399566 14.5105932,6.63670142 12.2874615,7.12772832 C11.5319093,7.29497765 11.0026381,7.04267417 10.850662,6.45015408 C10.7027738,5.87359654 11.0709311,5.37566049 11.8279261,5.20531394 C14.4394145,4.61827354 17.0547503,4.04743393 19.6684029,3.47016165 C19.9867832,3.3998788 20.301797,3.41465011 20.6192155,3.48493295 C23.1936717,4.05458133 25.7702921,4.61541458 28.3428246,5.19316335 C29.1613795,5.37708997 29.4097835,5.69943805 29.4169975,6.52377238 C29.4261353,7.59326279 29.4191617,8.6627532 29.4191617,10.2389948" id="Fill-10" fill="#231F20"></path>
                        <path d="M15.9006696,12.4823278 C16.2644985,12.4918577 16.5273307,12.661966 16.7435119,12.9097427 C17.1612057,13.388619 17.5841899,13.8634452 17.9826463,14.3578075 C18.209889,14.6398919 18.3779766,14.6537102 18.6559582,14.4016449 C20.3183172,12.891636 21.9965472,11.3987808 23.6704487,9.90116068 C23.8036682,9.78203722 23.9380902,9.66315201 24.0811689,9.55617914 C24.5988977,9.16878965 25.0983509,9.1842757 25.4657868,9.59310741 C25.8490936,10.0190929 25.812302,10.6409174 25.3364147,11.0800064 C24.4745755,11.8750364 23.5939797,12.6502919 22.720117,13.4326947 C21.5507185,14.4807429 20.3760297,15.5230732 19.2114405,16.5763628 C18.3688387,17.3385147 17.9131509,17.3065896 17.1777981,16.4293645 C16.5528203,15.6841281 15.9117312,14.9517571 15.2817036,14.2105709 C14.9895343,13.8670189 14.8801212,13.4820118 15.0770649,13.0541204 C15.2401026,12.7000855 15.5245768,12.5078202 15.9006696,12.4823278" id="Fill-12" fill="#231F20"></path>
                        <path d="M12.7515658,9.39374239 C12.746035,9.90787924 12.3136726,10.3469683 11.8079672,10.3517332 C11.25513,10.3572129 10.8145917,9.92717724 10.8150722,9.38278303 C10.8153131,8.83981831 11.2717224,8.40215872 11.8149408,8.42360095 C12.3283411,8.44409018 12.7568561,8.88794419 12.7515658,9.39374239" id="Fill-14" fill="#231F20"></path>
                    </g>
                </g>
            </g>
        </g>
    </g>
</svg>